<svg width="95" height="95" viewBox="0 0 95 95" fill="none" xmlns="http://www.w3.org/2000/svg">
<g clip-path="url(#clip0_283_22)">
<path d="M72.7344 0H22.2656C9.96866 0 0 9.96866 0 22.2656V72.7344C0 85.0313 9.96866 95 22.2656 95H72.7344C85.0313 95 95 85.0313 95 72.7344V22.2656C95 9.96866 85.0313 0 72.7344 0Z" fill="#0277BD"/>
<path d="M19.9474 38.0931L21.0095 49.9466H47.5356V38.0931H19.9474ZM47.5353 14.1016H17.8125L18.8902 25.955H47.5353V14.1016ZM47.5353 81.2105V68.878L47.4833 68.8917L34.282 65.3273L33.4381 55.8734H21.539L23.1997 74.4852L47.4807 81.2257L47.5353 81.2105Z" fill="#EBEBEB"/>
<path d="M62.0909 49.9466L60.7148 65.3195L47.4946 68.888V81.2198L71.795 74.4852L71.9731 72.4824L74.7585 41.2764L75.0476 38.0931L77.1877 14.1016H47.4946V25.955H64.1972L63.1188 38.0931H47.4946V49.9466H62.0909Z" fill="white"/>
</g>
<defs>
<clipPath id="clip0_283_22">
<rect width="95" height="95" fill="white"/>
</clipPath>
</defs>
</svg>
