<svg width="95" height="95" viewBox="0 0 95 95" fill="none" xmlns="http://www.w3.org/2000/svg">
<g clip-path="url(#clip0_283_14)">
<path d="M72.7344 0H22.2656C9.96866 0 0 9.96866 0 22.2656V72.7344C0 85.0313 9.96866 95 22.2656 95H72.7344C85.0313 95 95 85.0313 95 72.7344V22.2656C95 9.96866 85.0313 0 72.7344 0Z" fill="#E14E1D"/>
<path d="M17.8125 14.1016L21.0076 49.9466H62.0914L60.7128 65.321L47.4848 68.8976L34.2816 65.3262L33.3988 55.4544H21.5012L23.2026 74.4845L47.4822 81.228L71.7925 74.4845L75.0519 38.0946H31.8487L30.764 25.9562H76.1258L77.1875 14.1016H17.8125Z" fill="white"/>
<path d="M47.5 14.1016H17.8125L21.0076 49.9466H47.5V38.0946H31.8487L30.764 25.9562H47.5V14.1016ZM47.5 68.8924L47.4848 68.8976L34.2816 65.3262L33.3988 55.4544H21.5012L23.2026 74.4845L47.4822 81.228L47.5004 81.2228L47.5 68.8924Z" fill="#EBEBEB"/>
</g>
<defs>
<clipPath id="clip0_283_14">
<rect width="95" height="95" fill="white"/>
</clipPath>
</defs>
</svg>
