<svg width="95" height="95" viewBox="0 0 95 95" fill="none" xmlns="http://www.w3.org/2000/svg">
<rect width="95" height="95" rx="24" fill="#F5DE19"/>
<path d="M61.7768 70.8789C62.4851 72.3175 63.5855 73.5267 64.9511 74.3672C66.3168 75.2076 67.8921 75.6449 69.4956 75.6289C72.7315 75.6289 74.8007 74.0109 74.8007 71.7695C74.8007 69.0976 72.6751 68.1417 69.1126 66.5831L67.1592 65.7459C61.5186 63.3442 57.7779 60.3368 57.7779 53.9778C57.7779 48.1204 62.2311 43.6584 69.2165 43.6584C71.4778 43.4951 73.7372 44.0012 75.7127 45.1136C77.6883 46.226 79.2926 47.8954 80.3256 49.9136L74.2189 53.8175C73.8211 52.8168 73.1286 51.9606 72.233 51.3625C71.3375 50.7645 70.2814 50.4528 69.2047 50.4687C68.7349 50.4217 68.2605 50.473 67.8116 50.6195C67.3628 50.7659 66.9494 51.0043 66.5978 51.3193C66.2461 51.6344 65.964 52.0192 65.7693 52.4493C65.5746 52.8794 65.4717 53.3454 65.467 53.8175C65.467 56.1598 66.9187 57.1098 70.2704 58.5675L72.2239 59.4047C78.862 62.2517 82.6145 65.1522 82.6145 71.6745C82.6145 78.7075 77.0897 82.5609 69.6707 82.5609C66.7801 82.7451 63.8979 82.0888 61.3719 80.6712C58.846 79.2536 56.7843 77.1354 55.4356 74.572L61.7768 70.8789ZM34.1823 71.5558C35.4084 73.7318 36.5246 75.5725 39.2084 75.5725C41.7734 75.5725 43.3943 74.569 43.3943 70.6651V44.1037H51.2051V70.769C51.2051 78.8559 46.4551 82.5372 39.5409 82.5372C37.0969 82.6708 34.6696 82.0617 32.5782 80.79C30.4869 79.5183 28.8292 77.6435 27.8232 75.4122L34.1823 71.5558Z" fill="black"/>
</svg>
