<svg width="95" height="95" viewBox="0 0 95 95" fill="none" xmlns="http://www.w3.org/2000/svg">
<g clip-path="url(#clip0_283_27)">
<path d="M72.7344 0H22.2656C9.96866 0 0 9.96866 0 22.2656V72.7344C0 85.0313 9.96866 95 22.2656 95H72.7344C85.0313 95 95 85.0313 95 72.7344V22.2656C95 9.96866 85.0313 0 72.7344 0Z" fill="url(#paint0_linear_283_27)"/>
<path d="M29.4049 25.5091C25.6992 30.9337 26.1608 37.9901 28.9841 43.7469L29.1919 44.1569L29.3322 44.4167C29.3582 44.4672 29.3878 44.5169 29.4149 44.5659C29.4639 44.6572 29.5129 44.7447 29.5552 44.8346L29.8254 45.3066L29.9794 45.5663L30.2929 46.0658L30.4332 46.2763C30.5735 46.5008 30.7319 46.7238 30.8878 46.9438L30.9004 46.9613C30.9249 46.9965 30.9524 47.0314 30.9709 47.0667C31.1053 47.2559 31.2511 47.4426 31.3914 47.6278L31.5472 47.8296L31.9295 48.3084L32.0753 48.4865C32.2493 48.6962 32.4271 48.9032 32.6086 49.1066L32.6197 49.1177C32.6267 49.1266 32.6338 49.1318 32.6409 49.1407C32.8167 49.3393 32.9971 49.5333 33.1823 49.723L33.3563 49.9011L33.789 50.3334L33.9657 50.5045C34.1601 50.6908 34.3579 50.8737 34.5583 51.0537L34.6707 51.1517L35.2088 51.6148L35.4315 51.7959L35.8805 52.1466L36.1206 52.3325L36.8067 52.8338C36.8242 52.8457 36.8394 52.8583 36.8572 52.8702C37.0183 52.9827 37.1819 53.0914 37.3459 53.2001L37.5578 53.3437L38.3238 53.821L38.5357 53.9423L39.1109 54.2704C39.2159 54.3279 39.3235 54.3828 39.4285 54.4373L39.8397 54.6478L39.9343 54.6941L40.1028 54.7769L40.7548 55.0842L40.8932 55.1543C41.1448 55.266 41.3983 55.3732 41.6536 55.476L41.8388 55.5506L42.5561 55.8212L42.6459 55.8534C42.9109 55.947 43.1775 56.0359 43.4456 56.1203L43.6386 56.1789C43.9191 56.2631 44.1822 56.3637 44.4643 56.4175C62.3844 59.7536 67.5912 45.4569 67.5912 45.4569C63.2193 51.2578 55.459 52.7867 48.1069 51.0845C47.8282 51.0144 47.5581 50.9324 47.2861 50.8504L47.0812 50.7802C46.8166 50.6973 46.5533 50.6101 46.2915 50.5186L46.1828 50.4785C45.9493 50.3943 45.7171 50.3066 45.4863 50.2154L45.29 50.1367C45.0372 50.0354 44.7864 49.9293 44.5377 49.8183L44.3878 49.7512L43.7536 49.4495L43.5714 49.3597C43.4066 49.2768 43.2428 49.1919 43.0801 49.1051L42.7528 48.9296C42.5548 48.8213 42.3588 48.7093 42.165 48.5937L41.9664 48.4813C41.7086 48.3264 41.4533 48.1674 41.2005 48.0044C41.1304 47.9588 41.0628 47.9105 40.9934 47.8642L40.4483 47.4953L40.2731 47.3691L39.7577 46.9902L39.5287 46.8147L39.0637 46.4444L38.8563 46.2763L38.2774 45.7853C38.2554 45.7655 38.2319 45.7474 38.2073 45.7311C38.0015 45.5463 37.7986 45.3582 37.5987 45.1671L37.4272 44.9989L36.9893 44.5625L36.8186 44.387C36.6363 44.1977 36.4574 44.0051 36.282 43.8092C36.2735 43.7992 36.2635 43.7903 36.2553 43.781C36.0698 43.5743 35.8883 43.3635 35.7109 43.1498L35.5684 42.9772L35.1758 42.484L35.0318 42.3018L34.5794 41.688C30.4974 36.017 29.0383 28.1958 32.2928 21.7722L29.4049 25.5091ZM40.9084 20.9387C38.2292 24.8667 38.3742 30.1233 40.4646 34.2773C40.8142 34.9747 41.2102 35.6479 41.6499 36.2923C42.0514 36.8783 42.4967 37.5763 43.0296 38.0461C43.2226 38.2565 43.4245 38.467 43.6308 38.6818C43.6827 38.7356 43.7362 38.7868 43.7892 38.841C43.9896 39.0396 44.1945 39.2336 44.4038 39.4225C44.4123 39.4296 44.4201 39.4377 44.429 39.4448C44.6649 39.6544 44.906 39.8579 45.1523 40.0552L45.3152 40.184C45.5601 40.377 45.8106 40.5629 46.0655 40.7425C46.0722 40.7481 46.0793 40.7536 46.0867 40.7588C46.1988 40.8379 46.3145 40.9128 46.4288 40.9885C46.4838 41.0253 46.5353 41.0639 46.5903 41.098C46.7732 41.2179 46.9588 41.3337 47.1465 41.4454L47.2252 41.4917L47.7162 41.7723C47.7737 41.8053 47.8323 41.8339 47.8913 41.8647L48.242 42.0458C48.2598 42.0551 48.2773 42.0617 48.294 42.0703C48.5303 42.1894 48.7682 42.3018 49.0116 42.4106C49.0636 42.4336 49.1167 42.4547 49.1701 42.477C49.365 42.5617 49.5615 42.6429 49.7594 42.7204L50.0117 42.8147C50.191 42.8811 50.371 42.9449 50.5521 43.0062L50.7959 43.0852C51.0534 43.1672 51.308 43.2696 51.5767 43.3153C65.4125 45.6498 68.6076 34.7998 68.6076 34.7998C65.7283 39.0225 60.1526 41.0386 54.2014 39.4659C53.9382 39.3958 53.677 39.3186 53.418 39.2344C53.3386 39.2099 53.261 39.1839 53.1824 39.1642C52.9986 39.1037 52.816 39.0396 52.6346 38.972L52.3867 38.8781C52.1882 38.808 51.9919 38.7204 51.7978 38.6362C51.7444 38.6128 51.6909 38.592 51.6386 38.5675C51.3945 38.4607 51.1536 38.3467 50.9161 38.2257C50.794 38.1649 50.6742 38.1011 50.5539 38.0376L50.345 37.9285C50.1907 37.8436 50.0381 37.7559 49.8871 37.6654L49.7776 37.5953C49.5908 37.4835 49.4061 37.3685 49.2235 37.2501C49.1671 37.2134 49.1126 37.18 49.0566 37.1366L48.6973 36.8946C48.4436 36.715 48.1943 36.5293 47.9496 36.3376L47.7811 36.2029C45.1768 34.1085 43.1116 31.2466 42.1305 28.001C41.1014 24.6341 41.3237 20.8567 43.1124 17.7907L40.9084 20.9387ZM50.5814 17.5243C49.0016 19.8922 48.8469 22.8328 49.9501 25.4479C51.1061 28.2233 53.4748 30.4012 56.2391 31.4332C56.353 31.4767 56.4673 31.5149 56.5898 31.5546L56.7415 31.6036C56.9041 31.6555 57.0662 31.7156 57.234 31.7483C64.8741 33.2512 66.9459 27.7553 67.4973 26.9463C65.6819 29.6086 62.6315 30.2476 58.8887 29.3225C58.594 29.2486 58.2678 29.1399 57.9765 29.0378C57.6103 28.9053 57.2515 28.7533 56.9015 28.5825C56.2353 28.2558 55.6037 27.8631 55.016 27.4102C51.6594 24.8218 49.5783 19.8852 51.7641 15.8647M33.7089 67.7919L33.1916 69.627L33.7089 67.7926V67.7919ZM48.9189 63.5904H46.548C46.4808 63.5928 46.4162 63.6169 46.3639 63.6591C46.3116 63.7014 46.2743 63.7594 46.2578 63.8245L44.5741 71.6156C44.5575 71.6806 44.5203 71.7384 44.4682 71.7804C44.416 71.8225 44.3516 71.8466 44.2847 71.8491H42.6062C40.9452 71.8491 41.1374 70.7009 41.4836 69.1275L41.4944 69.08L41.6955 68.0068L41.7824 67.5648L42.5487 63.8245C42.556 63.796 42.5565 63.7661 42.5501 63.7373C42.5438 63.7086 42.5308 63.6817 42.5121 63.6588C42.4935 63.636 42.4698 63.6178 42.4429 63.6058C42.416 63.5938 42.3866 63.5882 42.3572 63.5896H39.9232C39.8561 63.592 39.7916 63.6161 39.7395 63.6584C39.6873 63.7006 39.6503 63.7587 39.6341 63.8238L38.5375 69.0243C37.9345 71.7767 38.0944 74.4018 41.3716 74.4838L41.4662 74.4857H46.6092C46.6763 74.4832 46.7409 74.4591 46.7931 74.4169C46.8454 74.3747 46.8825 74.3166 46.899 74.2515L49.1167 63.8238C49.1449 63.695 49.0584 63.5896 48.9274 63.5896L48.9189 63.5904ZM58.3792 71.8765C58.5113 71.8765 58.5896 71.9815 58.5707 72.1107L58.3406 73.2366L58.3792 71.8765Z" fill="white"/>
<path d="M52.036 70.4272C52.0341 70.3036 52.1744 70.0917 52.3061 70.0917L52.01 70.0869C51.8697 71.4295 52.036 70.4272 52.036 70.4272ZM58.3791 71.8763C58.5112 71.8763 58.5895 71.9813 58.5706 72.1104L58.3026 73.4193L58.3791 71.8763ZM53.9679 74.6202H53.8569H53.982H53.9679ZM19.1077 70.455L19.4762 68.8222L19.0554 70.688L19.006 70.9222L19.1085 70.4539L19.1077 70.455ZM23.5171 63.5634H20.9127C20.8453 63.5658 20.7805 63.5898 20.7278 63.632C20.6752 63.6741 20.6375 63.732 20.6203 63.7972L20.1264 65.9714C20.1182 65.9996 20.1168 66.0293 20.1225 66.0581C20.1282 66.0869 20.1407 66.1138 20.159 66.1368C20.1773 66.1597 20.2009 66.1779 20.2277 66.1898C20.2545 66.2017 20.2838 66.207 20.313 66.2052H22.9378C23.0049 66.2027 23.0694 66.1786 23.1217 66.1365C23.1739 66.0944 23.2112 66.0365 23.228 65.9714L23.7052 63.792C23.733 63.664 23.6488 63.5586 23.5159 63.5586L23.5171 63.5634ZM15.3845 78.8989L17.5324 78.9159C16.8982 78.9159 15.8514 78.9041 15.3838 78.8985L15.3845 78.8989Z" fill="white"/>
<path d="M22.7625 66.9549H20.137C20.0696 66.9573 20.0048 66.9813 19.9521 67.0234C19.8994 67.0655 19.8617 67.1235 19.8446 67.1887L19.1079 70.4543L19.0055 70.923L18.3041 74.2569C18.2696 74.4124 18.2273 74.5664 18.178 74.7178C18.178 74.7178 17.687 76.1769 16.8636 76.1606L16.0464 76.1454C15.9793 76.1471 15.9146 76.1702 15.8616 76.2113C15.8086 76.2525 15.7701 76.3094 15.7518 76.374L15.2081 78.6625C15.1996 78.6905 15.1979 78.7201 15.2032 78.7489C15.2085 78.7776 15.2206 78.8047 15.2385 78.8278C15.2565 78.8509 15.2797 78.8694 15.3062 78.8817C15.3327 78.894 15.3618 78.8998 15.3911 78.8985L17.5397 78.916C19.5993 78.916 20.6843 77.7745 21.3805 74.4918L22.9588 67.1968C22.987 67.0688 22.9013 66.9634 22.7695 66.9634L22.7625 66.9549ZM60.0522 74.487C59.9205 74.487 59.8418 74.3819 59.8629 74.2528L61.8375 65.0037L60.0522 74.487Z" fill="white"/>
<path d="M59.8911 74.3701C59.8752 74.3056 59.8845 74.1475 59.9123 74.0191L60.8493 69.6283L59.8618 74.2529C59.8336 74.382 59.9193 74.487 60.0511 74.487H60.2912C60.1594 74.487 59.9067 74.4343 59.8911 74.3701ZM62.6409 74.4343C62.5693 74.4625 62.4023 74.487 62.2706 74.487H62.5103C62.5772 74.4843 62.6414 74.4599 62.6933 74.4176C62.7452 74.3752 62.7819 74.3171 62.7979 74.2521L62.8458 74.018C62.8198 74.1467 62.7055 74.4057 62.6354 74.4343H62.6409ZM70.9865 65.6231L71.0952 66.0721C71.1256 66.2005 71.0421 66.3048 70.9108 66.3055M63.5479 70.536L63.6447 70.0703L64.0214 68.3061L63.595 70.3037L63.5479 70.5352V70.536ZM61.8694 64.8516L61.7874 65.2371L60.85 69.6283L61.8379 65.0037L61.8694 64.8523V64.8516Z" fill="white"/>
<path d="M71.096 66.0721L70.9873 65.623L70.8262 64.9217C70.6128 64.0938 69.9872 63.6147 68.6279 63.6147L62.3709 63.6106C62.3038 63.6129 62.2393 63.637 62.1872 63.6792C62.1351 63.7215 62.0982 63.7796 62.0821 63.8448L61.9853 64.3031L61.845 64.9952L59.9201 74.0109C59.8919 74.14 59.883 74.2914 59.899 74.3616C59.9153 74.4317 60.1677 74.4788 60.299 74.4788H62.277C62.4087 74.4788 62.575 74.4547 62.6473 74.4261C62.7197 74.3972 62.8254 74.1456 62.8577 74.0094L63.6085 70.2959L64.4115 66.5333C64.4281 66.4685 64.4652 66.4107 64.5173 66.3686C64.5694 66.3266 64.6337 66.3025 64.7006 66.2999L70.9242 66.297C71.0556 66.297 71.1391 66.1919 71.1086 66.0635L71.096 66.0721ZM79.1087 62.0086L78.6296 62.0104H76.6376C76.5646 62.015 76.4935 62.035 76.4289 62.0691C76.3643 62.1032 76.3077 62.1506 76.2627 62.2082L71.8579 68.6616C71.7837 68.7703 71.6987 68.7543 71.6686 68.6267L71.3443 67.2046C71.3269 67.1396 71.2892 67.0818 71.2365 67.0398C71.1839 66.9977 71.1192 66.9737 71.0519 66.9712H68.2204C68.0883 66.9712 68.01 67.0744 68.0464 67.2013L69.3088 71.647C69.3452 71.7732 69.3474 71.9814 69.3159 72.1098L68.7548 74.2614C68.745 74.2889 68.7423 74.3184 68.7471 74.3472C68.7518 74.3761 68.7638 74.4032 68.7819 74.4261C68.7999 74.4492 68.8233 74.4673 68.85 74.4791C68.8768 74.4908 68.906 74.4957 68.9351 74.4933H71.7406C71.8083 74.4906 71.8735 74.4668 71.9271 74.4253C71.9808 74.3838 72.0201 74.3266 72.0397 74.2617L72.6008 72.1105C72.6446 71.9591 72.7136 71.8159 72.8042 71.6871L79.9629 62.1945C80.0423 62.0891 79.9997 62.0038 79.8676 62.0049L79.1172 62.0101L79.1087 62.0086ZM56.6093 67.5757C56.5926 67.716 56.4608 67.8214 56.3287 67.8214H52.7373C52.6133 67.8214 52.5502 67.7372 52.5692 67.6318L52.5718 67.6129L52.5881 67.552C52.9388 66.6402 53.6297 66.0416 54.9419 66.0416C56.42 66.0416 56.7083 66.7642 56.6081 67.5757H56.6093ZM55.5557 63.4317C50.9475 63.4317 49.8553 66.229 49.243 69.0523C48.63 71.9302 48.6831 74.6217 53.4516 74.6217H54.2075L54.7898 74.6195L57.8242 74.6013C57.8908 74.5983 57.9546 74.5738 58.0061 74.5314C58.0575 74.489 58.0938 74.4311 58.1096 74.3664L58.5705 72.1135C58.5972 71.9843 58.5111 71.8789 58.379 71.8789H54.0918C52.3873 71.8789 51.8804 71.4258 52.0667 70.094H58.9201C58.9752 70.0933 59.0289 70.0762 59.0741 70.0447C59.1194 70.0132 59.1541 69.9688 59.1739 69.9173C59.1817 69.8981 59.1873 69.8781 59.1906 69.8576C60.2078 66.0209 59.9161 63.4347 55.5572 63.4347L55.5557 63.4317ZM33.7733 67.5605L33.7087 67.7899L33.1914 69.6245L32.6737 71.4581C32.6522 71.5228 32.6116 71.5794 32.5573 71.6204C32.503 71.6615 32.4375 71.6851 32.3694 71.6882H29.6293C27.5515 71.6882 27.0457 70.0632 27.5515 67.6663C28.0566 65.2148 29.0492 63.6904 31.094 63.5364C33.8883 63.326 34.4468 65.2913 33.7733 67.5598V67.5605ZM35.6517 71.5479C35.6517 71.5479 36.9424 68.4126 37.237 66.6009C37.6367 64.1758 36.4236 60.6597 31.7345 60.6597C27.0717 60.6597 25.0474 64.0166 24.2755 67.6741C23.5036 71.3494 24.5152 74.5735 29.1502 74.5482L36.2247 74.5222C36.2925 74.5188 36.3577 74.4946 36.4113 74.4529C36.465 74.4112 36.5045 74.3541 36.5245 74.2892L37.1205 72.0181C37.13 71.9906 37.1326 71.9612 37.1281 71.9325C37.1236 71.9037 37.1121 71.8766 37.0945 71.8533C37.0769 71.8299 37.0537 71.8114 37.0269 71.7995C37.0002 71.7875 36.9708 71.7826 36.9417 71.7851L35.8005 71.778C35.6885 71.7773 35.625 71.7053 35.6376 71.6099C35.6404 71.5916 35.6451 71.5737 35.6517 71.5565V71.5479Z" fill="white"/>
<path d="M58.7323 69.4501C58.7323 69.4918 58.7157 69.5318 58.6863 69.5613C58.6568 69.5907 58.6168 69.6073 58.5751 69.6073C58.5334 69.6073 58.4935 69.5907 58.464 69.5613C58.4345 69.5318 58.418 69.4918 58.418 69.4501C58.418 69.4084 58.4345 69.3685 58.464 69.339C58.4935 69.3095 58.5334 69.293 58.5751 69.293C58.6168 69.293 58.6568 69.3095 58.6863 69.339C58.7157 69.3685 58.7323 69.4084 58.7323 69.4501Z" fill="white"/>
</g>
<defs>
<linearGradient id="paint0_linear_283_27" x1="0" y1="0" x2="95" y2="95" gradientUnits="userSpaceOnUse">
<stop stop-color="#FF5C00"/>
<stop offset="1" stop-color="#FF0F00"/>
</linearGradient>
<clipPath id="clip0_283_27">
<rect width="95" height="95" fill="white"/>
</clipPath>
</defs>
</svg>
