<svg width="172" height="45" viewBox="0 0 172 45" fill="none" xmlns="http://www.w3.org/2000/svg">
<path d="M25.6 12.4833C22.9 11.5833 20.7 11.0833 19 11.0833C17.9 11.0833 17.1 11.2833 16.5 11.6833C15.9 12.0833 15.6 12.6833 15.6 13.4833C15.6 14.5833 16.2 15.4833 17.4 16.0833C18.6 16.6833 20.5 17.3833 23.1 18.0833C26.1 18.8833 28.5 19.7833 30.4 20.6833C32.3 21.5833 34 22.8833 35.4 24.5833C36.8 26.3833 37.5 28.6833 37.5 31.5833C37.5 34.4833 36.7 36.9833 35.2 38.9833C33.7 40.9833 31.6 42.4833 29 43.4833C26.4 44.4833 23.5 44.9833 20.2 44.9833C16.6 44.9833 13 44.3833 9.4 43.1833C5.8 41.9833 2.6 40.2833 0 38.1833L4.7 28.6833C6.8 30.4833 9.4 32.0833 12.5 33.2833C15.6 34.5833 18.2 35.1833 20.4 35.1833C21.8 35.1833 22.8 34.8833 23.6 34.3833C24.4 33.8833 24.7 33.0833 24.7 32.1833C24.7 30.9833 24.1 30.1833 22.8 29.4833C21.6 28.8833 19.6 28.1833 17 27.4833C14.1 26.6833 11.7 25.9833 9.7 25.0833C7.8 24.2833 6.1 22.9833 4.7 21.2833C3.3 19.5833 2.6 17.2833 2.6 14.4833C2.6 11.7833 3.3 9.3833 4.8 7.3833C6.2 5.3833 8.3 3.7833 10.9 2.7833C13.5 1.8833 16.5 1.3833 20 1.3833C23.2 1.3833 26.3 1.8833 29.4 2.7833C32.5 3.6833 35.2 4.8833 37.6 6.3833L33 15.9833C30.7 14.5833 28.3 13.4833 25.6 12.4833Z" fill="white"/>
<path d="M87.6992 2.2832H100.199V44.3832H87.6992V2.2832Z" fill="white"/>
<path d="M107.199 2.2832H119.699V33.8832H137.299V44.3832H107.199V2.2832Z" fill="white"/>
<path d="M141.699 2.2832H154.199V33.8832H171.799V44.3832H141.699V2.2832Z" fill="white"/>
<path d="M75.3059 3.3801L74.4219 2.9126L73.9544 3.7966L74.8384 4.2641L75.3059 3.3801Z" fill="white"/>
<path d="M75.0161 3.15945C75.1613 2.92456 74.2888 2.12208 73.0674 1.36707C71.846 0.612048 70.7382 0.190399 70.593 0.425286C70.4478 0.660173 71.3202 1.46265 72.5416 2.21767C73.763 2.97268 74.8709 3.39433 75.0161 3.15945Z" fill="white"/>
<path d="M79.1704 5.76833C79.3156 5.53345 78.4431 4.73097 77.2217 3.97595C76.0003 3.22094 74.8925 2.79929 74.7473 3.03417C74.6021 3.26906 75.4745 4.07154 76.6959 4.82655C77.9173 5.58157 79.0252 6.00322 79.1704 5.76833Z" fill="white"/>
<path d="M78.3 35.6832L67.7 19.3832L76.9 9.1832C77.8 8.1832 77.7 5.8832 76.4 5.2832L71.7 2.3832C69.7 2.3832 67.9 3.2832 66.6 4.7832L65.2 6.3832C65.2 6.7832 65.4 7.3832 66 8.2832C67.3 10.2832 65 12.5832 65 12.5832C65 12.5832 63.6 14.8832 61.5 13.7832C60.8 13.3832 60 13.2832 59.4 13.2832L54.5 19.1832V2.2832H42V44.3832H54.5V34.0832L59.2 28.8832L67 41.1832C68.3 43.1832 70.6 44.8832 72.8 44.3832L76.3 41.7832C78.5 40.5832 79.6 37.5832 78.3 35.6832Z" fill="white"/>
<path d="M73.5083 12.4416L73.1836 12.8218L74.5521 13.9909L74.8769 13.6107L73.5083 12.4416Z" fill="white"/>
<path d="M75.2012 15.2832C75.7535 15.2832 76.2012 14.8355 76.2012 14.2832C76.2012 13.7309 75.7535 13.2832 75.2012 13.2832C74.6489 13.2832 74.2012 13.7309 74.2012 14.2832C74.2012 14.8355 74.6489 15.2832 75.2012 15.2832Z" fill="white"/>
<path d="M119.4 4.88308C117.7 4.78308 116.2 5.68308 115.2 6.88308C114 8.38308 113.5 10.1831 113.3 12.0831C113.1 14.3831 113.2 16.7831 112.9 19.0831C112.6 21.4831 112 23.8831 111.7 26.2831C111.1 30.1831 111.2 34.5831 113.7 37.7831C114.8 39.1831 116.2 40.2831 117.9 40.7831C119.8 41.3831 121.6 40.7831 123.4 40.2831C124 40.0831 124.7 39.9831 125.3 39.8831C126 39.8831 126.7 39.9831 127.4 40.0831C128.5 40.1831 129.4 39.9831 130.3 39.2831C131.3 38.5831 132.1 37.6831 133 36.8831C134.1 35.8831 135.1 34.8831 136.2 33.8831C136.4 33.6831 136.1 33.2831 135.8 33.4831C134.2 34.9831 132.6 36.4831 130.9 37.9831C130.1 38.6831 129.3 39.3831 128.2 39.4831C127.2 39.5831 126.2 39.1831 125.2 39.2831C123.3 39.3831 121.5 40.4831 119.6 40.3831C117.8 40.3831 116.2 39.4831 114.9 38.2831C112 35.4831 111.6 31.2831 111.9 27.5831C112.1 25.3831 112.6 23.2831 112.9 21.1831C113.3 19.0831 113.5 16.9831 113.5 14.8831C113.5 12.6831 113.5 10.1831 114.6 8.18308C115.5 6.48308 117.2 4.98308 119.3 5.18308C119.7 5.38308 119.7 4.88308 119.4 4.88308Z" fill="black"/>
<path d="M115.8 12.5833C115.8 12.5833 115.9 12.5833 116 12.5833C116.1 12.6833 116.1 12.7833 116 12.8833C115.9 13.0833 115.8 13.0833 115.6 13.1833C115.6 13.1833 115.7 13.1833 115.7 13.2833C115.7 13.0833 115.6 12.8833 115.6 12.5833C115.6 12.3833 115.5 12.1833 115.6 12.0833C115.7 11.8833 115.9 11.8833 116 11.9833C116.1 12.0833 116.2 12.3833 116.2 12.5833C116.2 12.9833 116 13.3833 115.7 13.6833C115.6 13.7833 115.4 13.8833 115.2 13.8833C115 13.8833 114.9 13.6833 114.9 13.4833C114.9 13.1833 115.3 12.9833 115.5 12.7833C115.6 12.6833 115.6 12.5833 115.6 12.3833C115.6 12.1833 115.5 11.9833 115.5 11.7833C115.5 11.5833 115.7 11.4833 115.9 11.5833C116.1 11.5833 116.3 11.7833 116.4 11.8833C116.7 12.1833 116.7 12.5833 116.8 12.9833C116.8 13.1833 116.8 13.3833 116.6 13.4833C116.4 13.5833 116.2 13.4833 116 13.4833C115.8 13.4833 115.7 13.4833 115.5 13.5833C115.3 13.6833 115.1 13.7833 114.9 13.5833C114.8 13.4833 114.7 13.2833 114.7 13.0833C114.6 12.8833 114.6 12.5833 114.6 12.3833C114.6 12.1833 114.7 11.9833 114.8 11.8833C115 11.7833 115.2 11.6833 115.4 11.6833C115.6 11.5833 115.8 11.5833 116 11.4833C116.2 11.3833 116.4 11.3833 116.6 11.4833C117 11.6833 117.1 12.0833 117.1 12.4833C117.1 13.1833 116.8 14.1833 116 14.1833C115.8 14.1833 115.6 14.0833 115.5 13.8833C115.4 13.6833 115.3 13.5833 115.1 13.4833C114.9 13.3833 114.7 13.1833 114.6 12.9833C114.5 12.7833 114.5 12.5833 114.5 12.3833C114.5 11.9833 114.7 11.5833 115 11.2833C115.3 11.0833 115.8 10.9833 116 11.3833C116.1 11.4833 116.2 11.3833 116.2 11.2833C116 10.9833 115.5 10.8833 115.2 10.9833C114.8 11.1833 114.5 11.5833 114.4 11.9833C114.3 12.3833 114.3 12.8833 114.6 13.2833C114.8 13.4833 115 13.5833 115.2 13.7833C115.4 13.9833 115.5 14.1833 115.7 14.2833C116 14.4833 116.5 14.3833 116.8 14.1833C117.2 13.8833 117.3 13.3833 117.4 12.8833C117.5 12.3833 117.4 11.8833 117 11.5833C116.9 11.4833 116.7 11.3833 116.5 11.3833C116.2 11.3833 116 11.4833 115.7 11.5833C115.2 11.6833 114.6 11.7833 114.5 12.2833C114.4 12.4833 114.4 12.7833 114.5 12.9833C114.6 13.2833 114.6 13.4833 114.8 13.7833C114.9 13.9833 115.1 14.0833 115.3 14.0833C115.6 14.0833 115.8 13.8833 116 13.8833C116.3 13.8833 116.5 13.9833 116.8 13.8833C117 13.7833 117.1 13.6833 117.2 13.4833C117.2 13.2833 117.2 12.9833 117.1 12.7833C117 12.5833 117 12.2833 116.8 12.0833C116.6 11.7833 116.1 11.3833 115.7 11.5833C115.5 11.6833 115.5 11.8833 115.5 12.0833C115.5 12.2833 115.7 12.5833 115.5 12.7833C115.4 12.9833 115.2 13.0833 115.1 13.1833C115 13.2833 114.9 13.4833 114.9 13.6833C114.9 14.0833 115.4 14.3833 115.8 14.1833C116 14.0833 116.2 13.8833 116.3 13.6833C116.4 13.4833 116.6 13.2833 116.6 12.9833C116.7 12.5833 116.5 11.9833 116.1 11.8833C115.7 11.7833 115.6 12.3833 115.6 12.6833C115.6 12.9833 115.7 13.2833 115.7 13.4833C115.7 13.5833 115.8 13.5833 115.8 13.5833C116.1 13.4833 116.4 13.1833 116.3 12.8833C116.2 12.6833 115.9 12.4833 115.7 12.6833C115.6 12.4833 115.7 12.6833 115.8 12.5833Z" fill="black"/>
<path d="M117.901 17.0831C117.901 17.1831 117.901 17.1831 117.901 17.1831C117.801 17.1831 117.701 17.1831 117.601 17.1831C117.601 17.1831 117.601 17.2831 117.701 17.2831C117.701 17.2831 117.801 17.1831 117.901 17.0831C117.901 16.8831 118.001 16.7831 118.101 16.7831C118.201 16.7831 118.201 16.8831 118.201 16.9831C118.201 17.0831 118.101 17.1831 118.001 17.2831C117.901 17.3831 117.801 17.3831 117.701 17.4831C117.601 17.4831 117.401 17.5831 117.301 17.5831C117.201 17.5831 117.101 17.4831 117.001 17.3831C117.001 17.2831 117.001 17.1831 117.101 17.0831C117.301 16.9831 117.501 17.0831 117.701 16.9831C117.801 16.9831 117.801 16.8831 117.901 16.7831C117.901 16.6831 118.001 16.4831 118.101 16.5831C118.301 16.6831 118.301 16.9831 118.301 17.1831C118.201 17.3831 118.101 17.6831 117.901 17.7831C117.701 17.9831 117.501 17.6831 117.401 17.5831C117.301 17.4831 117.201 17.4831 117.101 17.4831C117.001 17.4831 116.901 17.3831 116.901 17.2831C116.901 17.1831 116.901 17.0831 117.001 16.9831C117.101 16.8831 117.101 16.7831 117.201 16.6831C117.301 16.5831 117.401 16.4831 117.501 16.4831C117.601 16.4831 117.701 16.5831 117.901 16.5831C118.001 16.6831 118.101 16.6831 118.301 16.7831C118.401 16.8831 118.501 16.8831 118.601 16.9831C118.701 17.1831 118.601 17.4831 118.501 17.5831C118.301 17.8831 117.701 18.2831 117.301 18.0831C117.201 17.9831 117.101 17.9831 117.101 17.7831C117.101 17.6831 117.101 17.4831 117.101 17.2831C117.101 17.1831 117.001 16.9831 117.001 16.8831C117.001 16.7831 117.101 16.6831 117.101 16.5831C117.301 16.3831 117.501 16.2831 117.801 16.1831C118.001 16.1831 118.301 16.3831 118.301 16.5831C118.301 16.6831 118.501 16.7831 118.501 16.6831C118.501 16.3831 118.401 16.0831 118.101 15.9831C117.801 15.8831 117.501 15.9831 117.201 16.1831C117.001 16.3831 116.801 16.5831 116.801 16.8831C116.801 17.0831 116.901 17.1831 116.801 17.3831C116.801 17.5831 116.801 17.6831 116.901 17.8831C117.001 18.0831 117.301 18.2831 117.601 18.1831C117.901 18.1831 118.201 17.9831 118.401 17.6831C118.601 17.4831 118.801 17.1831 118.701 16.8831C118.601 16.4831 118.301 16.3831 118.001 16.2831C117.901 16.1831 117.701 16.0831 117.501 16.0831C117.401 16.0831 117.201 16.0831 117.101 16.1831C117.001 16.2831 116.901 16.3831 116.801 16.5831C116.701 16.6831 116.601 16.8831 116.601 17.0831C116.601 17.1831 116.601 17.3831 116.701 17.4831C116.801 17.5831 117.001 17.5831 117.101 17.6831C117.201 17.7831 117.301 17.8831 117.401 17.9831C117.501 18.0831 117.701 18.0831 117.801 18.0831C117.901 17.9831 118.001 17.8831 118.101 17.6831C118.201 17.5831 118.301 17.3831 118.301 17.2831C118.401 16.9831 118.301 16.6831 118.101 16.4831C118.001 16.3831 117.801 16.3831 117.701 16.4831C117.601 16.5831 117.501 16.6831 117.401 16.7831C117.301 16.8831 117.101 16.8831 117.001 16.8831C116.901 16.8831 116.701 16.8831 116.601 16.9831C116.401 17.1831 116.501 17.5831 116.701 17.6831C116.901 17.7831 117.001 17.6831 117.201 17.6831C117.401 17.6831 117.501 17.5831 117.701 17.4831C117.901 17.2831 118.101 17.0831 118.001 16.7831C117.901 16.6831 117.801 16.5831 117.701 16.5831C117.601 16.5831 117.401 16.6831 117.401 16.7831C117.301 16.8831 117.201 17.0831 117.101 17.2831C117.101 17.3831 117.101 17.3831 117.201 17.3831C117.401 17.4831 117.701 17.4831 117.801 17.2831C117.901 17.0831 117.801 16.8831 117.601 16.8831C117.801 16.8831 117.801 17.0831 117.901 17.0831Z" fill="black"/>
<path d="M115.3 21.6835C115.4 21.6835 115.4 21.7835 115.4 21.7835C115.4 21.8835 115.3 21.9835 115.2 21.9835C115 22.0835 114.9 21.9835 114.7 21.9835C114.7 21.9835 114.7 22.0835 114.8 22.0835C114.9 21.8835 115 21.6835 115.1 21.5835C115.2 21.3835 115.3 21.1835 115.5 21.1835C115.7 21.0835 115.8 21.3835 115.8 21.5835C115.8 21.7835 115.7 21.9835 115.5 22.0835C115.2 22.3835 114.7 22.4835 114.3 22.4835C114.1 22.4835 113.9 22.3835 113.9 22.1835C113.8 21.9835 114 21.7835 114.2 21.6835C114.5 21.5835 114.9 21.7835 115.2 21.5835C115.3 21.4835 115.4 21.3835 115.5 21.2835C115.6 21.0835 115.7 20.7835 116 20.9835C116.3 21.1835 116.4 21.5835 116.3 21.8835C116.2 22.2835 116 22.5835 115.7 22.8835C115.4 23.2835 115 22.6835 114.8 22.4835C114.7 22.3835 114.6 22.2835 114.4 22.2835C114.2 22.1835 114 22.1835 114 21.8835C114 21.6835 114.1 21.4835 114.2 21.2835C114.3 21.0835 114.4 20.8835 114.5 20.7835C114.6 20.6835 114.8 20.4835 115 20.4835C115.2 20.4835 115.4 20.5835 115.6 20.6835C115.8 20.7835 116 20.8835 116.2 20.9835C116.4 21.0835 116.6 21.1835 116.7 21.3835C116.9 21.6835 116.8 22.0835 116.6 22.3835C116.2 22.8835 115.4 23.4835 114.7 23.1835C114.5 23.0835 114.4 22.9835 114.4 22.7835C114.3 22.5835 114.4 22.2835 114.4 22.0835C114.4 21.8835 114.3 21.6835 114.3 21.4835C114.3 21.2835 114.4 21.0835 114.5 20.8835C114.8 20.5835 115.2 20.2835 115.6 20.2835C116 20.2835 116.5 20.5835 116.4 21.0835C116.4 21.1835 116.6 21.2835 116.6 21.1835C116.7 20.7835 116.4 20.3835 116 20.1835C115.5 19.9835 115 20.1835 114.7 20.4835C114.3 20.7835 114.1 21.0835 114.1 21.5835C114.1 21.8835 114.2 22.0835 114.2 22.3835C114.2 22.5835 114.2 22.8835 114.3 23.0835C114.5 23.3835 114.9 23.5835 115.3 23.5835C115.8 23.4835 116.2 23.1835 116.6 22.8835C116.9 22.5835 117.2 22.1835 117.1 21.6835C117 21.1835 116.4 20.9835 116 20.6835C115.8 20.5835 115.5 20.3835 115.3 20.3835C115.1 20.3835 114.9 20.3835 114.7 20.5835C114.5 20.6835 114.4 20.8835 114.3 21.0835C114.2 21.2835 114 21.4835 114 21.7835C114 21.9835 114 22.1835 114.2 22.3835C114.4 22.5835 114.6 22.5835 114.8 22.6835C115.1 22.8835 115.4 23.4835 115.9 23.2835C116.1 23.1835 116.2 22.8835 116.4 22.7835C116.5 22.5835 116.7 22.3835 116.7 22.0835C116.8 21.6835 116.8 21.1835 116.4 20.9835C116.2 20.8835 116 20.7835 115.9 20.9835C115.7 21.0835 115.7 21.3835 115.5 21.4835C115.3 21.6835 115 21.5835 114.8 21.5835C114.6 21.5835 114.4 21.5835 114.2 21.7835C113.9 22.0835 114 22.5835 114.4 22.7835C114.6 22.8835 114.9 22.7835 115.1 22.7835C115.3 22.6835 115.6 22.6835 115.8 22.4835C116.1 22.2835 116.4 21.7835 116.3 21.3835C116.2 21.1835 116.1 21.0835 115.9 21.0835C115.7 21.0835 115.5 21.2835 115.4 21.4835C115.2 21.6835 115.1 21.9835 114.9 22.1835C114.9 22.2835 114.9 22.2835 115 22.2835C115.3 22.3835 115.7 22.3835 115.9 22.0835C116 21.8835 115.9 21.5835 115.6 21.5835C115.2 21.4835 115.2 21.6835 115.3 21.6835Z" fill="black"/>
<path d="M126.3 36.0834C126.4 36.0834 126.4 36.1834 126.4 36.1834C126.4 36.2834 126.3 36.3834 126.2 36.3834C126 36.4834 125.9 36.3834 125.7 36.3834C125.7 36.3834 125.7 36.4834 125.8 36.4834C125.9 36.2834 126 36.0834 126.1 35.9834C126.2 35.7834 126.3 35.5834 126.5 35.5834C126.7 35.4834 126.8 35.7834 126.8 35.9834C126.8 36.1834 126.7 36.3834 126.5 36.4834C126.2 36.7834 125.7 36.8834 125.3 36.8834C125.1 36.8834 124.9 36.7834 124.9 36.5834C124.8 36.3834 125 36.1834 125.2 36.0834C125.5 35.9834 125.9 36.1834 126.2 35.9834C126.3 35.8834 126.4 35.7834 126.5 35.6834C126.6 35.4834 126.7 35.1834 127 35.3834C127.3 35.5834 127.4 35.9834 127.3 36.2834C127.2 36.6834 127 36.9834 126.7 37.2834C126.4 37.6834 126 37.0834 125.8 36.8834C125.7 36.7834 125.6 36.6834 125.4 36.6834C125.2 36.5834 125 36.5834 125 36.2834C125 36.0834 125.1 35.8834 125.2 35.6834C125.3 35.4834 125.4 35.2834 125.5 35.1834C125.6 35.0834 125.8 34.8834 126 34.8834C126.2 34.8834 126.4 34.9834 126.6 35.0834C126.8 35.1834 127 35.2834 127.2 35.3834C127.4 35.4834 127.6 35.5834 127.7 35.7834C127.9 36.0834 127.8 36.4834 127.6 36.7834C127.2 37.2834 126.4 37.8834 125.7 37.5834C125.5 37.4834 125.4 37.3834 125.4 37.1834C125.3 36.9834 125.4 36.6834 125.4 36.4834C125.4 36.2834 125.3 36.0834 125.3 35.8834C125.3 35.6834 125.4 35.4834 125.5 35.2834C125.8 34.9834 126.2 34.6834 126.6 34.6834C127 34.6834 127.5 34.9834 127.4 35.4834C127.4 35.5834 127.6 35.6834 127.6 35.5834C127.7 35.1834 127.4 34.7834 127 34.5834C126.5 34.3834 126 34.5834 125.7 34.8834C125.3 35.1834 125.1 35.4834 125.1 35.9834C125.1 36.2834 125.2 36.4834 125.2 36.7834C125.2 36.9834 125.2 37.2834 125.3 37.4834C125.5 37.7834 125.9 37.9834 126.3 37.9834C126.8 37.8834 127.2 37.5834 127.6 37.2834C127.9 36.9834 128.2 36.5834 128.1 36.0834C128 35.5834 127.4 35.3834 127 35.0834C126.8 34.9834 126.5 34.7834 126.3 34.7834C126.1 34.7834 125.9 34.7834 125.7 34.9834C125.5 35.0834 125.4 35.2834 125.3 35.4834C125.2 35.6834 125 35.8834 125 36.1834C125 36.3834 125 36.5834 125.2 36.7834C125.4 36.9834 125.6 36.9834 125.8 37.0834C126.1 37.2834 126.4 37.8834 126.9 37.6834C127.1 37.5834 127.2 37.2834 127.4 37.1834C127.5 36.9834 127.7 36.7834 127.7 36.4834C127.8 36.0834 127.8 35.5834 127.4 35.3834C127.2 35.2834 127 35.1834 126.9 35.3834C126.7 35.4834 126.7 35.7834 126.5 35.8834C126.3 36.0834 126 35.9834 125.8 35.9834C125.6 35.9834 125.4 35.9834 125.2 36.1834C124.9 36.4834 125 36.9834 125.4 37.1834C125.6 37.2834 125.9 37.1834 126.1 37.1834C126.3 37.0834 126.6 37.0834 126.8 36.8834C127.1 36.6834 127.4 36.1834 127.3 35.7834C127.2 35.5834 127.1 35.4834 126.9 35.4834C126.7 35.4834 126.5 35.6834 126.4 35.8834C126.2 36.0834 126.1 36.3834 125.9 36.5834C125.9 36.6834 125.9 36.6834 126 36.6834C126.3 36.7834 126.7 36.7834 126.9 36.4834C127 36.2834 126.9 35.9834 126.6 35.9834C126.2 35.8834 126.2 36.0834 126.3 36.0834Z" fill="black"/>
<path d="M117.901 26.0833C117.901 26.1833 117.901 26.1833 117.901 26.1833C117.801 26.1833 117.701 26.1833 117.601 26.1833C117.601 26.1833 117.601 26.2833 117.701 26.2833C117.701 26.1833 117.801 26.0833 117.901 26.0833C117.901 25.8833 118.001 25.7833 118.101 25.7833C118.201 25.7833 118.201 25.8833 118.201 25.9833C118.201 26.0833 118.101 26.1833 118.001 26.2833C117.901 26.3833 117.801 26.3833 117.701 26.4833C117.601 26.4833 117.401 26.5833 117.301 26.5833C117.201 26.5833 117.101 26.4833 117.101 26.3833C117.101 26.2833 117.101 26.1833 117.201 26.0833C117.401 25.9833 117.601 26.0833 117.801 25.9833C117.901 25.9833 117.901 25.8833 118.001 25.7833C118.001 25.6833 118.101 25.5833 118.201 25.5833C118.401 25.6833 118.401 25.9833 118.401 26.0833C118.301 26.2833 118.201 26.4833 118.101 26.6833C117.901 26.8833 117.701 26.5833 117.601 26.4833C117.501 26.3833 117.401 26.3833 117.401 26.3833C117.301 26.3833 117.201 26.2833 117.201 26.1833C117.201 26.0833 117.201 25.9833 117.301 25.8833C117.401 25.7833 117.401 25.6833 117.501 25.5833C117.601 25.4833 117.701 25.3833 117.801 25.3833C117.901 25.3833 118.001 25.4833 118.101 25.4833C118.201 25.5833 118.301 25.5833 118.501 25.6833C118.601 25.7833 118.701 25.7833 118.801 25.8833C118.901 26.0833 118.801 26.2833 118.701 26.4833C118.501 26.7833 118.001 27.1833 117.601 26.8833C117.501 26.7833 117.401 26.7833 117.401 26.6833C117.401 26.5833 117.401 26.3833 117.401 26.2833C117.401 26.1833 117.301 25.9833 117.401 25.8833C117.401 25.7833 117.501 25.6833 117.501 25.5833C117.701 25.3833 117.901 25.2833 118.201 25.2833C118.401 25.2833 118.701 25.3833 118.701 25.6833C118.701 25.7833 118.901 25.8833 118.901 25.7833C118.901 25.4833 118.801 25.2833 118.501 25.1833C118.201 25.0833 117.901 25.1833 117.601 25.3833C117.401 25.5833 117.201 25.7833 117.201 26.0833C117.201 26.2833 117.301 26.3833 117.201 26.5833C117.201 26.7833 117.201 26.8833 117.301 26.9833C117.401 27.1833 117.701 27.2833 118.001 27.2833C118.301 27.2833 118.601 27.0833 118.801 26.8833C119.001 26.6833 119.201 26.3833 119.101 26.0833C119.001 25.7833 118.701 25.5833 118.401 25.4833C118.301 25.3833 118.101 25.2833 117.901 25.2833C117.801 25.2833 117.601 25.2833 117.501 25.3833C117.401 25.4833 117.301 25.5833 117.201 25.6833C117.101 25.7833 117.001 25.9833 117.001 26.0833C117.001 26.1833 117.001 26.3833 117.101 26.4833C117.201 26.5833 117.401 26.5833 117.501 26.6833C117.601 26.7833 117.701 26.8833 117.801 26.9833C117.901 27.0833 118.101 27.0833 118.201 27.0833C118.301 26.9833 118.401 26.8833 118.501 26.7833C118.601 26.6833 118.701 26.4833 118.701 26.3833C118.801 26.0833 118.701 25.7833 118.501 25.6833C118.401 25.5833 118.201 25.5833 118.101 25.6833C118.001 25.7833 117.901 25.8833 117.901 25.9833C117.801 26.0833 117.601 26.0833 117.501 26.0833C117.401 26.0833 117.201 26.0833 117.101 26.1833C116.901 26.3833 117.001 26.7833 117.201 26.8833C117.301 26.9833 117.501 26.8833 117.701 26.8833C117.901 26.8833 118.001 26.7833 118.101 26.6833C118.301 26.5833 118.501 26.2833 118.401 25.9833C118.401 25.8833 118.201 25.7833 118.101 25.7833C118.001 25.7833 117.901 25.8833 117.801 25.9833C117.701 26.0833 117.601 26.2833 117.501 26.3833C117.501 26.4833 117.501 26.4833 117.601 26.4833C117.801 26.5833 118.101 26.5833 118.201 26.3833C118.301 26.1833 118.201 25.9833 118.001 25.9833C117.801 25.8833 117.801 26.0833 117.901 26.0833Z" fill="black"/>
<path d="M120.3 37.4832C120.3 37.5832 120.3 37.5832 120.3 37.5832C120.2 37.5832 120.1 37.5832 120 37.5832C120 37.5832 120 37.6832 120.1 37.6832C120.1 37.5832 120.2 37.4832 120.3 37.4832C120.3 37.2832 120.4 37.1832 120.5 37.1832C120.6 37.1832 120.6 37.2832 120.6 37.3832C120.6 37.4832 120.5 37.5832 120.4 37.6832C120.3 37.7832 120.2 37.7832 120.1 37.8832C120 37.8832 119.8 37.9832 119.7 37.9832C119.6 37.9832 119.5 37.8832 119.5 37.7832C119.5 37.6832 119.5 37.5832 119.6 37.4832C119.8 37.3832 120 37.4832 120.2 37.3832C120.3 37.3832 120.3 37.2832 120.4 37.1832C120.4 37.0832 120.5 36.9832 120.6 36.9832C120.8 37.0832 120.8 37.3832 120.8 37.4832C120.7 37.6832 120.6 37.8832 120.5 38.0832C120.3 38.2832 120.1 37.9832 120 37.8832C119.9 37.7832 119.8 37.7832 119.8 37.7832C119.7 37.7832 119.6 37.6832 119.6 37.5832C119.6 37.4832 119.6 37.3832 119.7 37.2832C119.8 37.1832 119.8 37.0832 119.9 36.9832C120 36.8832 120.1 36.7832 120.2 36.7832C120.3 36.7832 120.4 36.8832 120.5 36.8832C120.6 36.9832 120.7 36.9832 120.9 37.0832C121 37.1832 121.1 37.1832 121.2 37.2832C121.3 37.4832 121.2 37.6832 121.1 37.8832C120.9 38.1832 120.4 38.5832 120 38.2832C119.9 38.1832 119.8 38.1832 119.8 38.0832C119.8 37.9832 119.8 37.7832 119.8 37.6832C119.8 37.5832 119.7 37.3832 119.8 37.2832C119.8 37.1832 119.9 37.0832 119.9 36.9832C120.1 36.7832 120.3 36.6832 120.6 36.6832C120.8 36.6832 121.1 36.7832 121.1 37.0832C121.1 37.1832 121.3 37.2832 121.3 37.1832C121.3 36.8832 121.2 36.6832 120.9 36.5832C120.6 36.4832 120.3 36.5832 120 36.7832C119.8 36.9832 119.6 37.1832 119.6 37.4832C119.6 37.6832 119.7 37.7832 119.6 37.9832C119.6 38.1832 119.6 38.2832 119.7 38.3832C119.8 38.5832 120.1 38.6832 120.4 38.6832C120.7 38.6832 121 38.4832 121.2 38.2832C121.4 38.0832 121.6 37.7832 121.5 37.4832C121.4 37.1832 121.1 36.9832 120.8 36.8832C120.7 36.7832 120.5 36.6832 120.3 36.6832C120.2 36.6832 120 36.6832 119.9 36.7832C119.8 36.8832 119.7 36.9832 119.6 37.0832C119.5 37.1832 119.4 37.3832 119.4 37.4832C119.4 37.5832 119.4 37.7832 119.5 37.8832C119.6 37.9832 119.8 37.9832 119.9 38.0832C120 38.1832 120.1 38.2832 120.2 38.3832C120.3 38.4832 120.5 38.4832 120.6 38.4832C120.7 38.3832 120.8 38.2832 120.9 38.1832C121 38.0832 121.1 37.8832 121.1 37.7832C121.2 37.4832 121.1 37.1832 120.9 37.0832C120.8 36.9832 120.6 36.9832 120.5 37.0832C120.4 37.1832 120.3 37.2832 120.3 37.3832C120.2 37.4832 120 37.4832 119.9 37.4832C119.8 37.4832 119.6 37.4832 119.5 37.5832C119.3 37.7832 119.4 38.1832 119.6 38.2832C119.7 38.3832 119.9 38.2832 120.1 38.2832C120.3 38.2832 120.4 38.1832 120.5 38.0832C120.7 37.9832 120.9 37.6832 120.8 37.3832C120.8 37.2832 120.6 37.1832 120.5 37.1832C120.4 37.1832 120.3 37.2832 120.2 37.3832C120.1 37.4832 120 37.6832 119.9 37.7832C119.9 37.8832 119.9 37.8832 120 37.8832C120.2 37.9832 120.5 37.9832 120.6 37.7832C120.7 37.5832 120.6 37.3832 120.4 37.3832C120.2 37.2832 120.2 37.4832 120.3 37.4832Z" fill="black"/>
<path d="M114.3 30.6834C114.4 30.7834 114.3 30.8834 114.3 30.8834C114.2 30.8834 114.1 30.8834 114 30.8834C114 30.8834 114 30.9834 114.1 30.9834C114 30.8834 114.1 30.7834 114.3 30.6834C114.3 30.4834 114.4 30.3834 114.5 30.2834C114.6 30.2834 114.7 30.3834 114.7 30.4834C114.7 30.5834 114.6 30.6834 114.5 30.7834C114.3 30.9834 114 31.0834 113.7 31.0834C113.6 31.0834 113.5 30.9834 113.4 30.8834C113.4 30.7834 113.4 30.5834 113.6 30.5834C113.8 30.4834 114.1 30.6834 114.3 30.4834C114.4 30.3834 114.5 30.3834 114.5 30.2834C114.6 30.1834 114.6 29.9834 114.8 30.0834C115 30.1834 115 30.4834 115 30.6834C114.9 30.9834 114.8 31.1834 114.6 31.3834C114.4 31.6834 114.2 31.2834 114 31.0834C113.9 30.9834 113.8 30.9834 113.7 30.8834C113.6 30.8834 113.5 30.7834 113.4 30.6834C113.4 30.5834 113.4 30.3834 113.5 30.2834C113.6 30.1834 113.6 29.9834 113.7 29.8834C113.8 29.7834 113.9 29.6834 114 29.6834C114.1 29.6834 114.3 29.7834 114.4 29.7834C114.5 29.8834 114.7 29.8834 114.8 29.9834C114.9 30.0834 115.1 30.0834 115.1 30.1834C115.2 30.3834 115.2 30.6834 115 30.8834C114.7 31.2834 114.2 31.6834 113.7 31.3834C113.6 31.2834 113.5 31.1834 113.5 31.0834C113.5 30.8834 113.5 30.7834 113.5 30.5834C113.5 30.4834 113.4 30.2834 113.4 30.1834C113.4 30.0834 113.5 29.8834 113.6 29.7834C113.8 29.5834 114.1 29.3834 114.4 29.3834C114.7 29.3834 115 29.5834 115 29.8834C115 29.9834 115.2 30.0834 115.2 29.9834C115.2 29.6834 115 29.3834 114.7 29.2834C114.4 29.1834 114 29.2834 113.7 29.4834C113.4 29.6834 113.2 29.9834 113.3 30.2834C113.3 30.4834 113.4 30.6834 113.4 30.8834C113.4 31.0834 113.4 31.1834 113.5 31.3834C113.6 31.6834 114 31.7834 114.2 31.6834C114.5 31.6834 114.9 31.3834 115.1 31.1834C115.3 30.9834 115.5 30.6834 115.5 30.2834C115.4 29.8834 115 29.7834 114.7 29.5834C114.5 29.4834 114.4 29.3834 114.2 29.3834C114 29.3834 113.9 29.3834 113.7 29.4834C113.6 29.5834 113.5 29.6834 113.4 29.8834C113.3 30.0834 113.2 30.1834 113.2 30.3834C113.2 30.4834 113.2 30.6834 113.3 30.7834C113.4 30.8834 113.6 30.8834 113.7 30.9834C113.8 31.0834 113.9 31.1834 114 31.2834C114.1 31.3834 114.3 31.3834 114.4 31.3834C114.5 31.2834 114.6 31.0834 114.7 30.9834C114.8 30.8834 114.9 30.6834 114.9 30.4834C115 30.1834 114.9 29.8834 114.7 29.6834C114.6 29.5834 114.4 29.5834 114.3 29.6834C114.2 29.7834 114.1 29.9834 114 30.0834C113.9 30.1834 113.7 30.1834 113.5 30.1834C113.3 30.1834 113.2 30.1834 113.1 30.3834C112.9 30.5834 113 30.9834 113.3 31.1834C113.5 31.2834 113.7 31.1834 113.8 31.1834C114 31.1834 114.2 31.0834 114.3 30.9834C114.5 30.7834 114.7 30.4834 114.6 30.1834C114.5 30.0834 114.4 29.9834 114.3 29.9834C114.1 29.9834 114 30.0834 113.9 30.2834C113.8 30.4834 113.7 30.5834 113.6 30.7834C113.6 30.8834 113.6 30.8834 113.7 30.8834C113.9 30.9834 114.2 30.9834 114.3 30.7834C114.4 30.5834 114.3 30.3834 114.1 30.3834C114.1 30.4834 114.1 30.6834 114.3 30.6834Z" fill="black"/>
<path d="M118.101 7.7834C118.001 7.7834 117.901 7.6834 117.901 7.6834C117.901 7.7834 117.901 7.7834 117.901 7.8834C117.901 7.7834 118.001 7.6834 118.101 7.7834C118.201 7.6834 118.301 7.6834 118.301 7.6834C118.401 7.6834 118.301 7.7834 118.301 7.7834C118.301 7.7834 118.201 7.7834 118.101 7.7834C118.001 7.8834 117.801 7.8834 117.701 7.7834C117.601 7.7834 117.601 7.6834 117.601 7.6834C117.601 7.5834 117.701 7.5834 117.701 7.5834C117.801 7.5834 117.801 7.5834 117.801 7.6834C117.901 7.5834 118.001 7.6834 118.101 7.7834C118.201 7.6834 118.201 7.6834 118.301 7.6834C118.301 7.6834 118.401 7.5834 118.501 7.5834V7.6834C118.501 7.7834 118.401 7.7834 118.401 7.8834C118.301 7.9834 118.101 8.0834 118.001 8.0834C117.901 8.0834 117.901 8.0834 117.901 7.9834C117.901 7.8834 117.901 7.7834 117.801 7.7834C117.801 7.6834 117.701 7.6834 117.701 7.5834C117.601 7.4834 117.601 7.4834 117.701 7.3834C117.701 7.2834 117.801 7.2834 117.901 7.2834C118.001 7.2834 118.101 7.1834 118.101 7.1834C118.201 7.1834 118.201 7.1834 118.301 7.1834C118.401 7.1834 118.401 7.2834 118.401 7.3834C118.401 7.4834 118.501 7.4834 118.501 7.5834C118.501 7.6834 118.601 7.6834 118.601 7.7834C118.601 7.9834 118.401 7.9834 118.301 8.0834C118.101 8.1834 117.601 8.1834 117.501 7.8834C117.501 7.7834 117.501 7.7834 117.601 7.6834C117.701 7.5834 117.701 7.4834 117.701 7.4834C117.701 7.3834 117.801 7.2834 117.801 7.2834C117.901 7.1834 117.901 7.1834 118.001 7.1834C118.101 7.1834 118.301 7.1834 118.501 7.2834C118.601 7.3834 118.701 7.4834 118.601 7.5834C118.501 7.6834 118.701 7.7834 118.701 7.6834C118.801 7.4834 118.801 7.2834 118.701 7.1834C118.601 6.9834 118.301 6.9834 118.101 6.9834C117.901 6.9834 117.701 7.0834 117.601 7.1834C117.501 7.2834 117.501 7.3834 117.501 7.4834C117.401 7.5834 117.401 7.6834 117.301 7.7834C117.201 7.9834 117.401 8.1834 117.501 8.2834C117.701 8.3834 117.901 8.3834 118.101 8.3834C118.301 8.3834 118.501 8.2834 118.601 8.0834C118.601 7.9834 118.701 7.8834 118.601 7.7834C118.601 7.6834 118.501 7.5834 118.401 7.4834C118.301 7.3834 118.301 7.2834 118.201 7.1834C118.101 7.0834 118.001 7.0834 117.901 7.0834C117.801 7.0834 117.701 7.0834 117.601 7.1834C117.501 7.1834 117.401 7.2834 117.301 7.3834C117.201 7.4834 117.201 7.5834 117.201 7.6834C117.201 7.7834 117.301 7.8834 117.401 7.9834C117.401 8.0834 117.401 8.1834 117.501 8.2834C117.501 8.3834 117.601 8.4834 117.701 8.4834C117.801 8.4834 117.901 8.3834 118.001 8.3834C118.101 8.3834 118.201 8.2834 118.301 8.1834C118.501 8.0834 118.501 7.7834 118.501 7.5834C118.501 7.4834 118.301 7.3834 118.201 7.4834C118.201 7.4834 118.101 7.4834 118.101 7.5834C118.101 7.5834 118.001 7.6834 118.001 7.5834C117.901 7.5834 117.901 7.4834 117.801 7.4834C117.701 7.3834 117.601 7.3834 117.501 7.4834C117.301 7.5834 117.201 7.7834 117.301 7.9834C117.401 8.0834 117.501 8.0834 117.601 8.1834C117.701 8.1834 117.801 8.2834 117.901 8.2834C118.101 8.2834 118.301 8.1834 118.301 7.8834C118.301 7.7834 118.201 7.6834 118.101 7.6834C118.001 7.6834 117.901 7.6834 117.801 7.6834C117.701 7.6834 117.601 7.7834 117.501 7.8834C117.401 7.8834 117.401 7.9834 117.501 8.0834C117.601 8.1834 117.801 8.2834 117.901 8.1834C118.001 8.0834 118.001 7.8834 117.901 7.7834C118.101 7.4834 117.901 7.6834 118.101 7.7834Z" fill="black"/>
<path d="M130.4 35.8835C130.3 35.8835 130.2 35.7835 130.2 35.7835C130.2 35.8835 130.2 35.8835 130.2 35.9835C130.3 35.8835 130.4 35.8835 130.4 35.8835C130.5 35.7835 130.6 35.7835 130.6 35.7835C130.7 35.7835 130.6 35.8835 130.6 35.8835C130.6 35.8835 130.5 35.9835 130.4 35.8835C130.3 35.9835 130.1 35.9835 130 35.8835C129.9 35.8835 129.9 35.7835 129.9 35.7835C129.9 35.6835 130 35.6835 130 35.6835C130.1 35.6835 130.1 35.6835 130.1 35.7835C130.3 35.6835 130.3 35.7835 130.4 35.8835C130.5 35.7835 130.5 35.7835 130.6 35.7835C130.6 35.7835 130.7 35.6835 130.8 35.6835V35.7835C130.8 35.8835 130.7 35.8835 130.7 35.9835C130.6 36.0835 130.4 36.1835 130.3 36.1835C130.2 36.1835 130.2 36.1835 130.2 36.0835C130.2 35.9835 130.2 35.8835 130.1 35.8835C130.1 35.7835 130 35.7835 130 35.6835C129.9 35.5835 129.9 35.5835 130 35.4835C130 35.3835 130.1 35.3835 130.2 35.3835C130.3 35.3835 130.4 35.2835 130.4 35.2835C130.5 35.2835 130.5 35.2835 130.6 35.2835C130.7 35.2835 130.7 35.3835 130.7 35.4835C130.7 35.5835 130.8 35.5835 130.8 35.6835C130.8 35.7835 130.9 35.7835 130.9 35.8835C130.9 36.0835 130.7 36.0835 130.6 36.1835C130.4 36.2835 129.9 36.2835 129.8 35.9835C129.8 35.8835 129.8 35.8835 129.9 35.7835C130 35.6835 130 35.5835 130 35.5835C130 35.4835 130.1 35.3835 130.1 35.3835C130.2 35.2835 130.2 35.2835 130.3 35.2835C130.4 35.2835 130.6 35.2835 130.8 35.3835C130.9 35.4835 131 35.5835 130.9 35.6835C130.8 35.7835 131 35.8835 131 35.7835C131.1 35.5835 131.1 35.3835 131 35.2835C130.9 35.0835 130.6 35.0835 130.4 35.0835C130.2 35.0835 130 35.1835 129.9 35.2835C129.8 35.3835 129.8 35.4835 129.8 35.5835C129.7 35.6835 129.7 35.7835 129.6 35.8835C129.5 36.0835 129.7 36.2835 129.8 36.3835C130 36.4835 130.2 36.4835 130.4 36.4835C130.6 36.4835 130.8 36.3835 130.9 36.1835C130.9 36.0835 131 35.9835 130.9 35.8835C130.9 35.7835 130.8 35.6835 130.7 35.5835C130.6 35.4835 130.6 35.3835 130.5 35.2835C130.4 35.1835 130.3 35.1835 130.2 35.1835C130.1 35.1835 130 35.1835 129.9 35.2835C129.8 35.2835 129.7 35.3835 129.6 35.4835C129.5 35.5835 129.5 35.6835 129.5 35.7835C129.5 35.8835 129.6 35.9835 129.7 36.0835C129.7 36.1835 129.7 36.2835 129.8 36.3835C129.8 36.4835 129.9 36.5835 130 36.5835C130.1 36.5835 130.2 36.4835 130.3 36.4835C130.4 36.4835 130.5 36.3835 130.6 36.2835C130.8 36.1835 130.8 35.8835 130.8 35.6835C130.8 35.5835 130.6 35.4835 130.5 35.5835C130.5 35.5835 130.4 35.5835 130.4 35.6835C130.4 35.6835 130.3 35.7835 130.3 35.6835C130.2 35.6835 130.2 35.5835 130.1 35.5835C130 35.4835 129.9 35.4835 129.8 35.5835C129.6 35.6835 129.5 35.8835 129.6 36.0835C129.7 36.1835 129.8 36.1835 129.9 36.2835C130 36.2835 130.1 36.3835 130.2 36.3835C130.4 36.3835 130.6 36.2835 130.6 35.9835C130.6 35.8835 130.5 35.7835 130.4 35.7835C130.3 35.7835 130.2 35.7835 130.1 35.7835C130 35.7835 129.9 35.8835 129.8 35.9835C129.7 35.9835 129.7 36.0835 129.8 36.1835C129.9 36.2835 130.1 36.3835 130.2 36.2835C130.3 36.1835 130.3 35.9835 130.2 35.8835C130.4 35.6835 130.3 35.7835 130.4 35.8835Z" fill="black"/>
</svg>
