<svg width="469" height="190" viewBox="0 0 469 190" fill="none" xmlns="http://www.w3.org/2000/svg">
<path d="M123.7 122.9C120.7 120.3 116.5 119 111.1 119H92V161H104.5V149.7L111.1 149.6C116.5 149.6 120.7 148.2 123.7 145.5C126.7 142.7 128.2 138.9 128.2 133.9C128.2 129.1 126.7 125.5 123.7 122.9ZM114.8 138.6C113.8 139.6 112.3 140.1 110.4 140.1H104.4V128.6H110.4C112.3 128.6 113.7 129.1 114.8 130.1C115.8 131.1 116.3 132.5 116.3 134.3C116.4 136.1 115.9 137.6 114.8 138.6Z" fill="white"/>
<path d="M208.7 121C205.2 119.1 201.3 118.2 197 118.2C192.6 118.2 188.7 119.1 185.2 121C181.8 122.9 179 125.5 177 128.8C175 132.1 174 135.8 174 139.9C174 144.1 175 147.8 177 151.2C179 154.5 181.7 157.2 185.2 159.1C188.7 161 192.6 161.9 197 161.9C201.3 161.9 205.2 161 208.7 159.1C212.2 157.2 214.9 154.6 216.9 151.2C218.9 147.9 219.9 144.1 219.9 139.9C219.9 135.8 218.9 132.1 216.9 128.8C215 125.5 212.2 122.9 208.7 121ZM205.8 145.8C204.9 147.5 203.7 148.9 202.2 149.9C200.7 150.9 199 151.4 197.2 151.4C195.4 151.4 193.6 150.9 192.1 149.9C190.5 148.9 189.3 147.5 188.3 145.7C187.4 143.9 186.9 142 186.9 139.9C186.9 137.8 187.4 135.9 188.3 134.1C189.2 132.4 190.5 131 192.1 130C193.7 129 195.4 128.5 197.2 128.5C199 128.5 200.7 129 202.2 130C203.7 131 204.9 132.4 205.8 134.1C206.7 135.8 207.1 137.8 207.1 139.9C207.1 142.1 206.7 144.1 205.8 145.8Z" fill="white"/>
<path d="M239.501 130C241.001 129 242.701 128.6 244.601 128.6C246.301 128.6 248.101 129.1 249.901 130.1C251.701 131.1 253.301 132.5 254.601 134.3L261.801 125.7C259.701 123.4 257.001 121.6 253.901 120.2C250.701 118.8 247.601 118.2 244.401 118.2C240.101 118.2 236.301 119.1 232.801 121C229.401 122.9 226.701 125.5 224.701 128.8C222.701 132.1 221.801 135.8 221.801 139.9C221.801 144.1 222.801 147.8 224.701 151.2C226.601 154.6 229.301 157.2 232.701 159.1C236.101 161 239.901 161.9 244.101 161.9C247.301 161.9 250.401 161.2 253.701 159.7C256.901 158.2 259.701 156.2 262.001 153.8L254.801 146.1C253.401 147.6 251.701 148.8 249.901 149.7C248.101 150.6 246.401 151 244.801 151C242.901 151 241.201 150.5 239.701 149.5C238.201 148.5 237.001 147.2 236.101 145.5C235.201 143.8 234.801 141.9 234.801 139.8C234.801 137.7 235.201 135.8 236.101 134.1C236.801 132.3 238.001 131 239.501 130Z" fill="white"/>
<path d="M278.1 144.8H298V135.2H278.1V128.6H300V119H265.6V161H300.6V151.4H278.1V144.8Z" fill="white"/>
<path d="M373.5 137.4C371.6 136.5 369.1 135.7 366.2 134.8C363.6 134.1 361.7 133.4 360.5 132.8C359.3 132.2 358.7 131.3 358.7 130.2C358.7 129.4 359 128.8 359.6 128.4C360.2 128 361.1 127.8 362.1 127.8C363.8 127.8 366 128.3 368.7 129.2C371.4 130.1 373.8 131.2 376.1 132.6L380.7 123C378.4 121.5 375.7 120.3 372.5 119.4C369.4 118.5 366.2 118 363.1 118C359.6 118 356.6 118.5 354 119.6C351.4 120.7 349.4 122.2 347.9 124.2C346.5 126.2 345.7 128.6 345.7 131.3C345.7 134.1 346.4 136.4 347.8 138.1C349.2 139.8 350.9 141.1 352.8 141.9C354.7 142.7 357.1 143.5 360.1 144.3C362.7 145 364.6 145.6 365.9 146.3C367.1 146.9 367.8 147.8 367.8 149C367.8 150 367.4 150.7 366.7 151.2C365.9 151.7 364.9 152 363.5 152C361.3 152 358.7 151.4 355.6 150.1C352.5 148.8 349.9 147.3 347.8 145.5L343.1 155C345.7 157.1 348.9 158.8 352.5 160C356.1 161.2 359.7 161.8 363.3 161.8C366.5 161.8 369.5 161.3 372.1 160.3C374.7 159.3 376.8 157.8 378.3 155.8C379.8 153.8 380.6 151.3 380.6 148.4C380.6 145.5 379.9 143.2 378.5 141.4C377.1 139.6 375.4 138.3 373.5 137.4Z" fill="white"/>
<path d="M334.2 137.4C332.3 136.5 329.8 135.7 326.9 134.8C324.3 134.1 322.4 133.4 321.2 132.8C320 132.2 319.4 131.3 319.4 130.2C319.4 129.4 319.7 128.8 320.3 128.4C320.9 128 321.8 127.8 322.8 127.8C324.5 127.8 326.7 128.3 329.4 129.2C332.1 130.1 333.2 130.5 335.5 131.8C335.5 131.8 337.6 132.1 338 130.7C337.7 130.8 335.5 130 335.3 130C334.1 129.5 333.9 128.4 334 128.4C334 128.4 334.6 129 335.6 129.7C337 130.2 337.6 130.6 337.9 130.5C338.1 130.4 338.2 130.4 338.3 130.3C339.3 129.3 339.2 127.8 338.8 126.2C337.9 123.8 336.3 121.1 333.6 119.8C330.6 118.7 327.1 118.1 323.9 118.1C320.4 118.1 317.4 118.6 314.8 119.7C312.2 120.8 310.2 122.3 308.7 124.3C307.3 126.3 306.5 128.7 306.5 131.4C306.5 134.2 307.2 136.5 308.6 138.2C310 139.9 311.7 141.2 313.6 142C315.5 142.8 317.9 143.6 320.9 144.4C323.5 145.1 325.4 145.7 326.7 146.4C327.9 147 328.6 147.9 328.6 149.1C328.6 150.1 328.2 150.8 327.5 151.3C326.7 151.8 325.7 152.1 324.3 152.1C322.1 152.1 319.8 151.1 316.4 150.2C312.4 149.9 314 150 310.7 150.1C307.9 150.4 303.9 155 303.9 155C306.5 157.1 309.7 158.8 313.3 160C316.9 161.2 320.5 161.8 324.1 161.8C327.3 161.8 330.3 161.3 332.9 160.3C335.5 159.3 337.6 157.8 339.1 155.8C340.6 153.8 341.4 151.3 341.4 148.4C341.4 145.5 340.7 143.2 339.3 141.4C337.8 139.6 336.1 138.3 334.2 137.4ZM336.5 127C336.7 127 336.9 127.2 336.9 127.4C336.9 127.6 336.7 127.8 336.5 127.8C336.3 127.8 336.1 127.6 336.1 127.4C336.1 127.2 336.3 127 336.5 127Z" fill="white"/>
<path d="M140.983 136.5C141.783 135.7 142.483 134.9 143.183 134.1C144.682 132.4 146.082 130.7 147.381 128.9C147.381 128.8 147.481 128.8 147.581 128.8C146.981 128.6 146.282 128.6 145.482 128.5L145.082 129L136.885 137C137.385 137.7 138.184 138.3 139.084 138.8C139.584 137.9 140.284 137.2 140.983 136.5Z" fill="white"/>
<path d="M143.984 128.6C143.784 128.6 143.484 128.6 143.285 128.6C142.985 128.6 142.685 128.6 142.485 128.6C138.786 128.9 135.787 131.4 135.787 134.2C135.787 134.8 135.887 135.4 136.187 135.9L143.984 128.6Z" fill="white"/>
<path d="M147.881 129.2C146.582 130.9 145.282 132.6 143.783 134.3C143.083 135.1 142.283 135.9 141.484 136.7C140.784 137.4 140.084 138.1 139.484 138.9C140.284 139.2 141.184 139.4 142.083 139.5C142.083 139.4 142.083 139.4 142.183 139.3C144.783 136.6 147.082 133.6 149.081 130.5C148.881 129.9 148.681 129.4 148.381 129.2C148.281 129.1 148.081 129.1 147.881 129C147.981 129 147.981 129.1 147.881 129.2Z" fill="white"/>
<path d="M156.178 138.8C157.077 139.2 158.077 139.4 159.177 139.5V139.4C160.076 137.9 161.276 136.6 162.476 135.3C163.075 134.6 163.675 133.9 164.075 133.1C164.475 132.4 164.775 131.6 165.275 131C164.775 130.4 164.075 129.9 163.275 129.6L156.178 138.8Z" fill="white"/>
<path d="M153.278 135.2C153.278 136.8 154.278 137.9 155.778 138.6L155.278 138.3L162.275 129.2C161.576 128.9 160.776 128.8 159.976 128.7C159.776 128.7 159.576 128.7 159.276 128.7C158.777 128.7 158.177 128.6 157.477 128.6C156.277 128.6 154.978 128.7 154.178 129.2C153.078 130.1 153.178 133.6 153.278 134.8C153.278 135 153.278 135.1 153.278 135.2Z" fill="white"/>
<path d="M164.374 133.6C163.974 134.3 163.474 134.9 162.875 135.5C161.775 136.8 160.575 138 159.676 139.4C159.776 139.4 159.976 139.4 160.076 139.4C163.774 139.4 166.673 137.1 166.673 134.2C166.673 133.1 166.273 132.1 165.574 131.3C165.174 132.1 164.874 132.9 164.374 133.6Z" fill="white"/>
<path d="M169.774 129.2C169.074 126.6 167.674 124.5 165.775 122.8C162.576 120.3 158.178 119 152.58 119H136.885C134.686 119 132.986 120.7 132.986 122.8V128C138.185 126.4 156.578 121.1 169.774 129.2Z" fill="white"/>
<path d="M164.575 149.5C163.876 148.4 164.076 146.9 165.175 146C166.575 144.9 167.674 143.5 168.474 142C168.774 141.4 169.074 140.7 169.374 140C166.275 141.7 162.276 143.3 158.478 143.3C155.778 143.3 153.279 142.5 151.18 140.5C150.98 140.3 150.58 140.3 150.48 140.4C145.982 145.9 135.685 141.5 132.986 140.1V158.8C132.986 160 133.986 161 135.186 161H143.383C144.482 161 145.382 160.1 145.382 159V151.9C145.382 150.7 146.382 149.7 147.581 149.7H152.08C153.179 149.7 154.079 150.4 154.479 151.5L156.878 159.7C157.278 160.6 158.178 161.1 159.177 161.1H169.374C170.373 161.1 171.073 160 170.473 159.1L164.575 149.5Z" fill="white"/>
<path d="M149.381 134.8C149.381 134.1 149.481 132.6 149.281 131.2C147.382 134.2 145.182 136.9 142.783 139.5C146.082 139.5 149.481 138.1 149.481 135.2C149.381 135.1 149.381 135 149.381 134.8Z" fill="white"/>
<path d="M149.781 139.6C150.28 139 151.28 139.2 151.88 139.6C156.778 144.4 164.875 141.5 169.774 138.4C170.073 137 170.273 135.5 170.273 133.8C170.273 132.6 170.173 131.6 169.974 130.5C156.978 121.8 137.685 127.5 132.986 129.1V139C134.586 139.8 145.382 145 149.781 139.6ZM153.679 128.4C155.179 127.5 157.878 127.6 159.377 127.7C159.677 127.7 159.877 127.7 160.077 127.7C164.375 128 167.774 131 167.774 134.3C167.774 137.7 164.375 140.5 160.177 140.5C155.479 140.5 152.38 138.4 152.38 135.2C152.38 135.1 152.38 135 152.38 134.8C152.18 132.4 152.28 129.5 153.679 128.4ZM134.886 134.3C134.886 130.9 138.284 128 142.583 127.7C142.783 127.7 142.983 127.7 143.383 127.7C144.982 127.6 147.581 127.5 149.081 128.4C150.48 129.5 150.58 132.4 150.48 134.9C150.48 135.1 150.48 135.2 150.48 135.3C150.48 138.5 147.381 140.6 142.683 140.6C138.284 140.5 134.886 137.7 134.886 134.3Z" fill="white"/>
<path d="M110.12 29.44C115.56 29.44 119.76 30.74 122.72 33.34C125.72 35.94 127.22 39.62 127.22 44.38C127.22 49.38 125.72 53.26 122.72 56.02C119.76 58.78 115.56 60.16 110.12 60.16L103.52 60.22V71.5H91.04V29.44H110.12ZM109.52 50.56C111.4 50.56 112.84 50.06 113.84 49.06C114.88 48.06 115.4 46.62 115.4 44.74C115.4 42.9 114.88 41.5 113.84 40.54C112.84 39.54 111.4 39.04 109.52 39.04H103.52V50.56H109.52ZM156.657 71.5L151.077 60.16H144.477V71.5H131.997V29.44H151.617C157.257 29.44 161.617 30.74 164.697 33.34C167.817 35.94 169.377 39.62 169.377 44.38C169.377 47.46 168.757 50.14 167.517 52.42C166.317 54.66 164.577 56.44 162.297 57.76L170.817 71.5H156.657ZM144.477 50.56H151.617C153.497 50.56 154.937 50.06 155.937 49.06C156.977 48.06 157.497 46.62 157.497 44.74C157.497 42.9 156.977 41.5 155.937 40.54C154.937 39.54 153.497 39.04 151.617 39.04H144.477V50.56ZM195.994 28.66C200.314 28.66 204.214 29.6 207.694 31.48C211.214 33.36 213.954 35.96 215.914 39.28C217.914 42.56 218.914 46.26 218.914 50.38C218.914 54.54 217.914 58.3 215.914 61.66C213.954 64.98 211.214 67.6 207.694 69.52C204.214 71.4 200.314 72.34 195.994 72.34C191.634 72.34 187.714 71.4 184.234 69.52C180.754 67.6 178.014 64.98 176.014 61.66C174.054 58.3 173.074 54.54 173.074 50.38C173.074 46.26 174.054 42.56 176.014 39.28C178.014 35.96 180.754 33.36 184.234 31.48C187.714 29.6 191.634 28.66 195.994 28.66ZM196.174 39.04C194.334 39.04 192.614 39.54 191.014 40.54C189.454 41.54 188.194 42.92 187.234 44.68C186.314 46.4 185.854 48.32 185.854 50.44C185.854 52.56 186.314 54.5 187.234 56.26C188.194 58.02 189.454 59.42 191.014 60.46C192.614 61.46 194.334 61.96 196.174 61.96C197.974 61.96 199.634 61.46 201.154 60.46C202.714 59.42 203.934 58.04 204.814 56.32C205.694 54.56 206.134 52.6 206.134 50.44C206.134 48.32 205.694 46.4 204.814 44.68C203.934 42.92 202.734 41.54 201.214 40.54C199.694 39.54 198.014 39.04 196.174 39.04ZM253.648 44.74C252.328 42.98 250.748 41.6 248.908 40.6C247.108 39.56 245.348 39.04 243.628 39.04C241.748 39.04 240.048 39.52 238.528 40.48C237.008 41.44 235.808 42.78 234.928 44.5C234.048 46.18 233.608 48.08 233.608 50.2C233.608 52.32 234.048 54.24 234.928 55.96C235.808 57.64 237.008 58.98 238.528 59.98C240.048 60.94 241.748 61.42 243.628 61.42C245.228 61.42 246.928 60.98 248.728 60.1C250.568 59.22 252.208 58.02 253.648 56.5L260.848 64.18C258.568 66.66 255.808 68.64 252.568 70.12C249.368 71.6 246.188 72.34 243.028 72.34C238.828 72.34 235.028 71.4 231.628 69.52C228.268 67.6 225.628 64.96 223.708 61.6C221.788 58.24 220.828 54.48 220.828 50.32C220.828 46.24 221.808 42.56 223.768 39.28C225.728 35.96 228.428 33.36 231.868 31.48C235.308 29.6 239.168 28.66 243.448 28.66C246.608 28.66 249.768 29.34 252.928 30.7C256.088 32.06 258.728 33.88 260.848 36.16L253.648 44.74ZM264.653 29.44H299.033V39.04H277.133V45.64H296.993V55.24H277.133V61.9H299.633V71.5H264.653V29.44ZM335.85 43C333.61 41.68 331.15 40.56 328.47 39.64C325.79 38.72 323.59 38.26 321.87 38.26C320.79 38.26 319.93 38.48 319.29 38.92C318.69 39.32 318.39 39.92 318.39 40.72C318.39 41.84 318.99 42.72 320.19 43.36C321.39 43.96 323.29 44.62 325.89 45.34C328.85 46.18 331.29 47.04 333.21 47.92C335.13 48.76 336.79 50.06 338.19 51.82C339.63 53.58 340.35 55.9 340.35 58.78C340.35 61.7 339.57 64.18 338.01 66.22C336.49 68.22 334.41 69.72 331.77 70.72C329.17 71.72 326.25 72.22 323.01 72.22C319.41 72.22 315.79 71.62 312.15 70.42C308.55 69.18 305.43 67.5 302.79 65.38L307.47 55.9C309.59 57.74 312.17 59.3 315.21 60.58C318.29 61.82 320.93 62.44 323.13 62.44C324.49 62.44 325.55 62.18 326.31 61.66C327.07 61.14 327.45 60.4 327.45 59.44C327.45 58.28 326.83 57.4 325.59 56.8C324.35 56.16 322.43 55.5 319.83 54.82C316.91 54.06 314.49 53.28 312.57 52.48C310.65 51.64 308.99 50.36 307.59 48.64C306.19 46.92 305.49 44.66 305.49 41.86C305.49 39.14 306.21 36.78 307.65 34.78C309.09 32.74 311.11 31.18 313.71 30.1C316.35 29.02 319.41 28.48 322.89 28.48C326.05 28.48 329.19 28.94 332.31 29.86C335.43 30.74 338.15 31.92 340.47 33.4L335.85 43ZM375.167 43C372.927 41.68 370.467 40.56 367.787 39.64C365.107 38.72 362.907 38.26 361.187 38.26C360.107 38.26 359.247 38.48 358.607 38.92C358.007 39.32 357.707 39.92 357.707 40.72C357.707 41.84 358.307 42.72 359.507 43.36C360.707 43.96 362.607 44.62 365.207 45.34C368.167 46.18 370.607 47.04 372.527 47.92C374.447 48.76 376.107 50.06 377.507 51.82C378.947 53.58 379.667 55.9 379.667 58.78C379.667 61.7 378.887 64.18 377.327 66.22C375.807 68.22 373.727 69.72 371.087 70.72C368.487 71.72 365.567 72.22 362.327 72.22C358.727 72.22 355.107 71.62 351.467 70.42C347.867 69.18 344.747 67.5 342.107 65.38L346.787 55.9C348.907 57.74 351.487 59.3 354.527 60.58C357.607 61.82 360.247 62.44 362.447 62.44C363.807 62.44 364.867 62.18 365.627 61.66C366.387 61.14 366.767 60.4 366.767 59.44C366.767 58.28 366.147 57.4 364.907 56.8C363.667 56.16 361.747 55.5 359.147 54.82C356.227 54.06 353.807 53.28 351.887 52.48C349.967 51.64 348.307 50.36 346.907 48.64C345.507 46.92 344.807 44.66 344.807 41.86C344.807 39.14 345.527 36.78 346.967 34.78C348.407 32.74 350.427 31.18 353.027 30.1C355.667 29.02 358.727 28.48 362.207 28.48C365.367 28.48 368.507 28.94 371.627 29.86C374.747 30.74 377.467 31.92 379.787 33.4L375.167 43Z" fill="white"/>
</svg>
