<svg width="27" height="18" viewBox="0 0 27 18" fill="none" xmlns="http://www.w3.org/2000/svg">
<path d="M0 3.40191e-07C4.91222 7.95153 13.075 18.2808 22.8874 17.9942C23.1622 17.9859 23.4386 17.9701 23.7158 17.9451C23.9193 17.7715 24.3592 17.3453 24.3568 16.782C24.3544 16.2611 23.9754 15.8765 23.4755 15.3697C22.8289 14.7134 22.4211 14.6311 22.0229 13.9681C21.8618 13.6998 21.7673 13.4555 21.712 13.2927C22.0669 13.3392 23.9105 13.5428 25.4777 12.2127C26.4552 11.3835 26.8502 10.3617 27 9.88645C26.9944 9.61312 26.9535 9.17113 26.738 8.70838C25.5722 6.20935 21.3282 7.46884 14.9818 6.23095C8.87661 5.04043 3.65592 2.09028 1.28114 0.747715C0.742722 0.442813 0.300454 0.180283 0 3.40191e-07Z" fill="#F0DB4F"/>
</svg>
