<svg id="Layer_1" data-name="Layer 1" xmlns="http://www.w3.org/2000/svg" viewBox="0 0 44.03 70.19"><defs><style>.cls-1{fill:none;stroke:#fff;stroke-miterlimit:10;}.cls-2{fill:#fff;}.cls-3{fill:#422600;}</style></defs><title>dendalien-one-cuser</title><line class="cls-1" x1="22.19" y1="68.65" x2="22.19" y2="22.06"/><path class="cls-2" d="M962.07,493.34a11.07,11.07,0,0,1-6.09-1.83,22.75,22.75,0,0,1-4.74-4.11,41.84,41.84,0,0,1-3.78-4.93,53,53,0,0,1-3.1-5.37,50.52,50.52,0,0,0,3.31,5.22,40.68,40.68,0,0,0,3.93,4.74,22.47,22.47,0,0,0,4.76,3.8,10.15,10.15,0,0,0,5.65,1.48Z" transform="translate(-939.95 -470.78)"/><path class="cls-2" d="M961.79,492.83a88.77,88.77,0,0,1-4.72-10,36,36,0,0,1-1.67-5.25,13.28,13.28,0,0,1-.36-2.74,4.21,4.21,0,0,1,.66-2.62,4.26,4.26,0,0,0-.54,2.62,14.35,14.35,0,0,0,.48,2.68,37.91,37.91,0,0,0,1.89,5.12,87.09,87.09,0,0,0,5.12,9.64Z" transform="translate(-939.95 -470.78)"/><polygon class="cls-2" points="21.69 21.18 21.22 0 22.69 21.14 21.69 21.18"/><path class="cls-2" d="M962.06,493a87.61,87.61,0,0,0,4.85-9.63,39.18,39.18,0,0,0,1.78-5.08,15.82,15.82,0,0,0,.47-2.65,5.31,5.31,0,0,0-.35-2.64,5.47,5.47,0,0,1,.48,2.65,15.37,15.37,0,0,1-.36,2.7,38.45,38.45,0,0,1-1.56,5.21,87,87,0,0,1-4.44,9.92Z" transform="translate(-939.95 -470.78)"/><path class="cls-2" d="M962.13,492.79A72.39,72.39,0,0,0,972.36,487a27.57,27.57,0,0,0,4.48-3.79,10.5,10.5,0,0,0,1.7-2.39,4.15,4.15,0,0,0,.38-2.85,4.17,4.17,0,0,1-.27,2.9,10.31,10.31,0,0,1-1.62,2.5,27.43,27.43,0,0,1-4.38,4,72,72,0,0,1-10.08,6.34Z" transform="translate(-939.95 -470.78)"/><path class="cls-2" d="M962.17,492.31a44,44,0,0,0,5.94,1.2,32.35,32.35,0,0,0,6.06.28A15,15,0,0,0,980,492.4a7.72,7.72,0,0,0,4-4.42,7.87,7.87,0,0,1-3.83,4.64,15.4,15.4,0,0,1-5.94,1.67,32.72,32.72,0,0,1-6.18,0,44.07,44.07,0,0,1-6.12-1Z" transform="translate(-939.95 -470.78)"/><path class="cls-2" d="M962.3,493a27.66,27.66,0,0,1-5.79,2.37,20.76,20.76,0,0,1-6.17.85,12.12,12.12,0,0,1-10.39-5.8,11.87,11.87,0,0,0,10.4,5.3,20.08,20.08,0,0,0,5.94-1.07,27.53,27.53,0,0,0,5.49-2.5Z" transform="translate(-939.95 -470.78)"/><ellipse class="cls-3" cx="21.96" cy="64" rx="3.26" ry="6.19"/></svg>