<svg width="41" height="42" viewBox="0 0 41 42" fill="none" xmlns="http://www.w3.org/2000/svg">
<path d="M37.7184 14.6604L22.1702 0.411221C21.8891 0.152985 21.4344 0.000784457 20.951 1.94415e-06C20.4647 0.000784499 20.0076 0.154944 19.7253 0.414354L4.27733 14.6635C3.95151 14.9636 3.90974 15.3584 4.16813 15.6855C4.42234 16.0122 9.26224 16.218 9.82556 16.218L13.6515 16.218L12.772 29.016C12.772 29.5598 13.4434 30 14.2734 30L27.7247 29.9996C28.5536 30 29.2255 29.5598 29.2261 29.0152L28.3839 16.218L32.4799 16.218C33.0409 16.218 37.5746 16.011 37.8336 15.6839C38.0914 15.3564 38.0472 14.9609 37.7184 14.6604Z" fill="white"/>
<path d="M4.21 40.12C3.65667 40.12 3.14667 40.0333 2.68 39.86C2.22 39.68 1.81667 39.4267 1.47 39.1C1.13 38.7733 0.863333 38.39 0.67 37.95C0.483333 37.51 0.39 37.0267 0.39 36.5C0.39 35.9733 0.483333 35.49 0.67 35.05C0.863333 34.61 1.13333 34.2267 1.48 33.9C1.82667 33.5733 2.23333 33.3233 2.7 33.15C3.16667 32.97 3.68 32.88 4.24 32.88C4.86 32.88 5.41667 32.9833 5.91 33.19C6.41 33.3967 6.83 33.6967 7.17 34.09L6.13 35.05C5.87667 34.7833 5.6 34.5867 5.3 34.46C5 34.3267 4.67333 34.26 4.32 34.26C3.98 34.26 3.67 34.3133 3.39 34.42C3.11 34.5267 2.86667 34.68 2.66 34.88C2.46 35.08 2.30333 35.3167 2.19 35.59C2.08333 35.8633 2.03 36.1667 2.03 36.5C2.03 36.8267 2.08333 37.1267 2.19 37.4C2.30333 37.6733 2.46 37.9133 2.66 38.12C2.86667 38.32 3.10667 38.4733 3.38 38.58C3.66 38.6867 3.96667 38.74 4.3 38.74C4.62 38.74 4.93 38.69 5.23 38.59C5.53667 38.4833 5.83333 38.3067 6.12 38.06L7.04 39.23C6.66 39.5167 6.21667 39.7367 5.71 39.89C5.21 40.0433 4.71 40.12 4.21 40.12ZM5.56 39.02V36.39H7.04V39.23L5.56 39.02ZM11.9448 40.12C11.3915 40.12 10.8782 40.03 10.4048 39.85C9.93818 39.67 9.53151 39.4167 9.18484 39.09C8.84484 38.7633 8.57818 38.38 8.38484 37.94C8.19818 37.5 8.10484 37.02 8.10484 36.5C8.10484 35.98 8.19818 35.5 8.38484 35.06C8.57818 34.62 8.84818 34.2367 9.19484 33.91C9.54151 33.5833 9.94818 33.33 10.4148 33.15C10.8815 32.97 11.3882 32.88 11.9348 32.88C12.4882 32.88 12.9948 32.97 13.4548 33.15C13.9215 33.33 14.3248 33.5833 14.6648 33.91C15.0115 34.2367 15.2815 34.62 15.4748 35.06C15.6682 35.4933 15.7648 35.9733 15.7648 36.5C15.7648 37.02 15.6682 37.5033 15.4748 37.95C15.2815 38.39 15.0115 38.7733 14.6648 39.1C14.3248 39.42 13.9215 39.67 13.4548 39.85C12.9948 40.03 12.4915 40.12 11.9448 40.12ZM11.9348 38.74C12.2482 38.74 12.5348 38.6867 12.7948 38.58C13.0615 38.4733 13.2948 38.32 13.4948 38.12C13.6948 37.92 13.8482 37.6833 13.9548 37.41C14.0682 37.1367 14.1248 36.8333 14.1248 36.5C14.1248 36.1667 14.0682 35.8633 13.9548 35.59C13.8482 35.3167 13.6948 35.08 13.4948 34.88C13.3015 34.68 13.0715 34.5267 12.8048 34.42C12.5382 34.3133 12.2482 34.26 11.9348 34.26C11.6215 34.26 11.3315 34.3133 11.0648 34.42C10.8048 34.5267 10.5748 34.68 10.3748 34.88C10.1748 35.08 10.0182 35.3167 9.90484 35.59C9.79818 35.8633 9.74484 36.1667 9.74484 36.5C9.74484 36.8267 9.79818 37.13 9.90484 37.41C10.0182 37.6833 10.1715 37.92 10.3648 38.12C10.5648 38.32 10.7982 38.4733 11.0648 38.58C11.3315 38.6867 11.6215 38.74 11.9348 38.74ZM21.2644 40V34.32H19.0244V33H25.1244V34.32H22.8844V40H21.2644ZM29.2984 40.12C28.745 40.12 28.2317 40.03 27.7584 39.85C27.2917 39.67 26.885 39.4167 26.5384 39.09C26.1984 38.7633 25.9317 38.38 25.7384 37.94C25.5517 37.5 25.4584 37.02 25.4584 36.5C25.4584 35.98 25.5517 35.5 25.7384 35.06C25.9317 34.62 26.2017 34.2367 26.5484 33.91C26.895 33.5833 27.3017 33.33 27.7684 33.15C28.235 32.97 28.7417 32.88 29.2884 32.88C29.8417 32.88 30.3484 32.97 30.8084 33.15C31.275 33.33 31.6784 33.5833 32.0184 33.91C32.365 34.2367 32.635 34.62 32.8284 35.06C33.0217 35.4933 33.1184 35.9733 33.1184 36.5C33.1184 37.02 33.0217 37.5033 32.8284 37.95C32.635 38.39 32.365 38.7733 32.0184 39.1C31.6784 39.42 31.275 39.67 30.8084 39.85C30.3484 40.03 29.845 40.12 29.2984 40.12ZM29.2884 38.74C29.6017 38.74 29.8884 38.6867 30.1484 38.58C30.415 38.4733 30.6484 38.32 30.8484 38.12C31.0484 37.92 31.2017 37.6833 31.3084 37.41C31.4217 37.1367 31.4784 36.8333 31.4784 36.5C31.4784 36.1667 31.4217 35.8633 31.3084 35.59C31.2017 35.3167 31.0484 35.08 30.8484 34.88C30.655 34.68 30.425 34.5267 30.1584 34.42C29.8917 34.3133 29.6017 34.26 29.2884 34.26C28.975 34.26 28.685 34.3133 28.4184 34.42C28.1584 34.5267 27.9284 34.68 27.7284 34.88C27.5284 35.08 27.3717 35.3167 27.2584 35.59C27.1517 35.8633 27.0984 36.1667 27.0984 36.5C27.0984 36.8267 27.1517 37.13 27.2584 37.41C27.3717 37.6833 27.525 37.92 27.7184 38.12C27.9184 38.32 28.1517 38.4733 28.4184 38.58C28.685 38.6867 28.975 38.74 29.2884 38.74ZM34.3359 40V33H37.3659C37.9925 33 38.5325 33.1033 38.9859 33.31C39.4392 33.51 39.7892 33.8 40.0359 34.18C40.2825 34.56 40.4059 35.0133 40.4059 35.54C40.4059 36.06 40.2825 36.51 40.0359 36.89C39.7892 37.27 39.4392 37.5633 38.9859 37.77C38.5325 37.97 37.9925 38.07 37.3659 38.07H35.2359L35.9559 37.34V40H34.3359ZM35.9559 37.52L35.2359 36.75H37.2759C37.7759 36.75 38.1492 36.6433 38.3959 36.43C38.6425 36.2167 38.7659 35.92 38.7659 35.54C38.7659 35.1533 38.6425 34.8533 38.3959 34.64C38.1492 34.4267 37.7759 34.32 37.2759 34.32H35.2359L35.9559 33.55V37.52Z" fill="white"/>
</svg>
