<svg width="166" height="166" viewBox="0 0 166 166" fill="none" xmlns="http://www.w3.org/2000/svg">
<circle cx="83" cy="83" r="83" fill="#F4F2ED"/>
<path d="M61.1977 140.166C71.3116 140.166 79.5198 131.958 79.5198 121.844V103.521H61.1977C51.0838 103.521 42.875 111.73 42.875 121.844C42.875 131.958 51.0838 140.166 61.1977 140.166Z" fill="#0ACF83"/>
<path d="M42.875 85.1991C42.875 75.0852 51.0838 66.877 61.1977 66.877H79.5198V103.521H61.1977C51.0838 103.521 42.875 95.313 42.875 85.1991Z" fill="#A259FF"/>
<path d="M42.875 48.5545C42.875 38.4406 51.0838 30.2324 61.1977 30.2324H79.5198V66.8772H61.1977C51.0838 66.8772 42.875 58.6684 42.875 48.5545Z" fill="#F24E1E"/>
<path d="M79.5195 30.2324H97.8416C107.956 30.2324 116.164 38.4406 116.164 48.5545C116.164 58.6684 107.956 66.8772 97.8416 66.8772H79.5195V30.2324Z" fill="#FF7262"/>
<path d="M116.164 85.1991C116.164 95.313 107.956 103.521 97.8416 103.521C87.7277 103.521 79.5195 95.313 79.5195 85.1991C79.5195 75.0852 87.7277 66.877 97.8416 66.877C107.956 66.877 116.164 75.0852 116.164 85.1991Z" fill="#1ABCFE"/>
</svg>
