<svg width="141" height="65" viewBox="0 0 141 65" fill="none" xmlns="http://www.w3.org/2000/svg">
<rect width="141" height="65" rx="32.5" fill="black"/>
<path d="M22.63 43.36C20.97 43.36 19.44 43.1 18.04 42.58C16.66 42.04 15.45 41.28 14.41 40.3C13.39 39.32 12.59 38.17 12.01 36.85C11.45 35.53 11.17 34.08 11.17 32.5C11.17 30.92 11.45 29.47 12.01 28.15C12.59 26.83 13.4 25.68 14.44 24.7C15.48 23.72 16.7 22.97 18.1 22.45C19.5 21.91 21.04 21.64 22.72 21.64C24.58 21.64 26.25 21.95 27.73 22.57C29.23 23.19 30.49 24.09 31.51 25.27L28.39 28.15C27.63 27.35 26.8 26.76 25.9 26.38C25 25.98 24.02 25.78 22.96 25.78C21.94 25.78 21.01 25.94 20.17 26.26C19.33 26.58 18.6 27.04 17.98 27.64C17.38 28.24 16.91 28.95 16.57 29.77C16.25 30.59 16.09 31.5 16.09 32.5C16.09 33.48 16.25 34.38 16.57 35.2C16.91 36.02 17.38 36.74 17.98 37.36C18.6 37.96 19.32 38.42 20.14 38.74C20.98 39.06 21.9 39.22 22.9 39.22C23.86 39.22 24.79 39.07 25.69 38.77C26.61 38.45 27.5 37.92 28.36 37.18L31.12 40.69C29.98 41.55 28.65 42.21 27.13 42.67C25.63 43.13 24.13 43.36 22.63 43.36ZM26.68 40.06V32.17H31.12V40.69L26.68 40.06ZM35.3045 43V22H40.1645V43H35.3045ZM49.1683 43V25.96H42.4483V22L60.7483 22V25.96L54.0283 25.96V43H49.1683ZM77.4332 22H82.2932V43H77.4332V22ZM67.8932 43H63.0332V22H67.8932V43ZM77.7932 34.39H67.5332V30.28H77.7932V34.39ZM96.2617 43.36C93.2817 43.36 90.9517 42.53 89.2717 40.87C87.5917 39.21 86.7517 36.84 86.7517 33.76V22L91.6117 22V33.58C91.6117 35.58 92.0217 37.02 92.8417 37.9C93.6617 38.78 94.8117 39.22 96.2917 39.22C97.7717 39.22 98.9217 38.78 99.7417 37.9C100.562 37.02 100.972 35.58 100.972 33.58V22H105.772V33.76C105.772 36.84 104.932 39.21 103.252 40.87C101.572 42.53 99.2417 43.36 96.2617 43.36ZM110.244 43V22H120.504C123.144 22 125.124 22.5 126.444 23.5C127.784 24.5 128.454 25.82 128.454 27.46C128.454 28.56 128.184 29.52 127.644 30.34C127.104 31.14 126.364 31.76 125.424 32.2C124.484 32.64 123.404 32.86 122.184 32.86L122.754 31.63C124.074 31.63 125.244 31.85 126.264 32.29C127.284 32.71 128.074 33.34 128.634 34.18C129.214 35.02 129.504 36.05 129.504 37.27C129.504 39.07 128.794 40.48 127.374 41.5C125.954 42.5 123.864 43 121.104 43H110.244ZM115.074 39.34H120.744C122.004 39.34 122.954 39.14 123.594 38.74C124.254 38.32 124.584 37.66 124.584 36.76C124.584 35.88 124.254 35.23 123.594 34.81C122.954 34.37 122.004 34.15 120.744 34.15H114.714V30.61H119.904C121.084 30.61 121.984 30.41 122.604 30.01C123.244 29.59 123.564 28.96 123.564 28.12C123.564 27.3 123.244 26.69 122.604 26.29C121.984 25.87 121.084 25.66 119.904 25.66H115.074V39.34Z" fill="white"/>
</svg>
