<svg width="143" height="143" viewBox="0 0 143 143" fill="none" xmlns="http://www.w3.org/2000/svg">
<path d="M142.988 71.9883C142.988 111.2 111.2 142.988 71.9883 142.988C32.7761 142.988 0.988281 111.2 0.988281 71.9883C0.988281 32.7761 32.7761 0.988281 71.9883 0.988281C111.2 0.988281 142.988 32.7761 142.988 71.9883Z" fill="#BFDEF7"/>
<path d="M49.5566 43.4632C44.2191 50.6161 44.833 59.9206 48.8341 67.5115L49.1287 68.0522L49.3276 68.3948C49.3645 68.4613 49.4066 68.5269 49.4451 68.5915C49.5145 68.7118 49.584 68.8273 49.644 68.9457L50.0273 69.5682L50.246 69.9107L50.6913 70.5693L50.8906 70.8468C51.0898 71.1428 51.315 71.4369 51.5365 71.7271L51.5544 71.75C51.5893 71.7965 51.6283 71.8425 51.6546 71.889C51.8456 72.1386 52.053 72.3847 52.2524 72.6289L52.4741 72.8951L53.0177 73.5263L53.2252 73.7612C53.4728 74.0376 53.7258 74.3107 53.984 74.5788L53.9999 74.5935C54.0099 74.6053 54.02 74.6121 54.03 74.6239C54.2803 74.8856 54.5371 75.1416 54.8007 75.3916L55.0486 75.6265L55.6647 76.1965L55.9163 76.4221C56.1933 76.6678 56.475 76.909 56.7605 77.1463L56.9208 77.2755L57.6875 77.8862L58.0049 78.125L58.6449 78.5874L58.9872 78.8325L59.9655 79.4936C59.9904 79.5093 60.0121 79.5259 60.0375 79.5416C60.2672 79.6898 60.5006 79.8332 60.7345 79.9766L61.0367 80.1659L62.1294 80.7952L62.4317 80.9552L63.2524 81.3878C63.4023 81.4636 63.5559 81.5361 63.7058 81.608L64.2926 81.8854L64.4277 81.9466L64.6682 82.0557L65.599 82.4609L65.7965 82.5534C66.1557 82.7007 66.5176 82.8421 66.8822 82.9776L67.1467 83.076L68.1711 83.4327L68.2994 83.4753C68.6779 83.5986 69.0587 83.7159 69.4417 83.8271L69.7174 83.9044C70.1182 84.0155 70.4939 84.1481 70.8971 84.219C74.032 84.7574 76.8963 84.9475 79.5092 84.8666C84.9007 84.6995 81.4126 78.3125 76.1436 77.1869V77.1869C75.7454 77.0945 75.3594 76.9863 74.9708 76.8782L74.6782 76.7857C74.3002 76.6764 73.9241 76.5614 73.5502 76.4407L73.3949 76.3879C73.0614 76.2769 72.7298 76.1612 72.4001 76.0409L72.1198 75.9372C71.7589 75.8036 71.4008 75.6637 71.0458 75.5174L70.8317 75.4288L69.9264 75.031L69.6663 74.9126C69.4311 74.8033 69.1973 74.6914 68.9651 74.5769L68.498 74.3454C68.2155 74.2026 67.9358 74.055 67.6593 73.9026L67.376 73.7543C67.0082 73.55 66.6439 73.3404 66.2833 73.1255C66.1833 73.0654 66.087 73.0017 65.988 72.9406L65.2106 72.4542L64.9608 72.2878L64.2259 71.7882L63.8995 71.5568L63.2367 71.0684L62.941 70.8468L62.1161 70.1994V70.1994C62.0531 70.1471 61.9844 70.1017 61.9216 70.0492C61.6608 69.8308 61.4032 69.6091 61.1491 69.3842L60.9049 69.1625L60.2814 68.5871L60.0383 68.3556C59.7786 68.106 59.524 67.852 59.2744 67.5937C59.2623 67.5805 59.248 67.5688 59.2364 67.5565C58.9723 67.284 58.7141 67.006 58.4617 66.7242L58.259 66.4967L57.7006 65.8463L57.4958 65.6061L56.8526 64.7967C52.3733 59.024 50.1386 51.5617 51.5139 44.5619C51.6608 43.8144 50.0485 42.8799 49.5566 43.4632V43.4632ZM66.0442 37.4366C62.1852 42.6161 62.358 49.5474 65.3212 55.0249C65.8167 55.9446 66.3788 56.8322 67.0036 57.682C67.5742 58.4546 68.2066 59.375 68.9659 59.9945C69.2406 60.272 69.528 60.5494 69.8218 60.8327C69.8958 60.9037 69.9719 60.9712 70.0474 61.0426C70.3328 61.3044 70.6246 61.5604 70.9228 61.8094C70.9349 61.8187 70.946 61.8295 70.9587 61.8388C71.2948 62.1151 71.6385 62.3835 71.9894 62.6437L72.2216 62.8135C72.5708 63.068 72.9279 63.3131 73.2914 63.5499C73.301 63.5573 73.311 63.5646 73.3216 63.5715C73.4814 63.6757 73.6465 63.7745 73.8096 63.8744C73.8879 63.9228 73.9614 63.9737 74.0398 64.0187C74.3007 64.1768 74.5654 64.3294 74.8333 64.4767L74.9456 64.5379L75.6461 64.9078C75.7282 64.9514 75.8119 64.9891 75.8961 65.0297L76.3966 65.2685C76.422 65.2807 76.4469 65.2895 76.4708 65.3007C76.8082 65.4578 77.1477 65.6061 77.4953 65.7495C77.5694 65.7798 77.6452 65.8077 77.7215 65.837C77.9999 65.9488 78.2804 66.0558 78.563 66.158L78.9234 66.2823C79.1794 66.3699 79.4364 66.4541 79.6951 66.5348L80.0434 66.6391C80.4113 66.7472 80.7748 66.8822 81.1589 66.9424C83.4768 67.3032 85.5868 67.4252 87.5058 67.3594C91.7631 67.2135 89.0725 62.8746 84.9394 61.8667V61.8667C84.5634 61.7742 84.1902 61.6724 83.8202 61.5613C83.7068 61.529 83.596 61.4948 83.4835 61.4688C83.221 61.389 82.9602 61.3045 82.7012 61.2154L82.3472 61.0916C82.0636 60.9991 81.7833 60.8836 81.5062 60.7725C81.4299 60.7417 81.3536 60.7143 81.2789 60.682C80.9304 60.5411 80.5864 60.3908 80.2475 60.2313C80.0732 60.1511 79.9022 60.0669 79.7306 59.9833L79.4324 59.8394C79.2123 59.7275 78.9945 59.6118 78.779 59.4925L78.6228 59.4C78.3564 59.2527 78.0929 59.101 77.8325 58.9449C77.752 58.8965 77.6742 58.8524 77.5943 58.7952L77.082 58.4761C76.7203 58.2393 76.3648 57.9944 76.0159 57.7417L75.7758 57.564C72.0637 54.8023 69.1281 51.0286 67.7459 46.749C66.2959 42.3093 66.6389 37.3285 69.2181 33.2857L66.0442 37.4366ZM79.9053 32.9344C77.6296 36.0567 77.3888 39.9341 78.9499 43.3824C80.5854 47.0421 83.9598 49.9139 87.9076 51.2747C88.0703 51.332 88.2336 51.3824 88.4085 51.4348L88.6254 51.4993C88.8576 51.5678 89.0892 51.6471 89.3289 51.6902C100.249 53.6719 103.25 46.425 104.044 45.3583C101.429 48.8687 97.0608 49.7113 91.7122 48.4915C91.2912 48.3941 90.8252 48.2507 90.4092 48.1162C89.8861 47.9414 89.3737 47.741 88.8741 47.5157C87.9233 47.0849 87.0222 46.5671 86.1844 45.97C81.3994 42.5569 78.4547 36.0474 81.6083 30.7461M55.4348 99.2183C55.4348 99.2181 55.4345 99.2181 55.4345 99.2182L54.6826 101.637L55.4348 99.2183C55.4348 99.2183 55.4348 99.2183 55.4348 99.2183V99.2183ZM77.2227 93.6772L73.8307 93.6772C73.7346 93.6804 73.6421 93.7122 73.5669 93.7679C73.4918 93.8235 73.4382 93.9 73.414 93.986L70.9539 104.259C70.9297 104.345 70.8761 104.421 70.8012 104.477C70.7263 104.532 70.6341 104.564 70.5382 104.567L68.1369 104.567C65.7606 104.567 66.0432 103.053 66.5489 100.978L66.5646 100.916L66.8595 99.5006L66.9866 98.9179L68.1076 93.986C68.1183 93.9483 68.1191 93.9089 68.1103 93.871C68.1014 93.833 68.0829 93.7976 68.0564 93.7675C68.03 93.7373 67.9962 93.7134 67.9577 93.6975C67.9193 93.6817 67.8774 93.6744 67.8352 93.6762L64.353 93.6762C64.2571 93.6793 64.1647 93.7111 64.0898 93.7668C64.0149 93.8225 63.9616 93.8991 63.9379 93.985L62.3348 100.842C61.4539 104.472 61.6654 107.933 66.3532 108.041L66.4886 108.044L73.8464 108.044C73.9425 108.041 74.0349 108.009 74.11 107.953C74.185 107.897 74.2386 107.821 74.2626 107.735L77.5041 93.985C77.5453 93.8152 77.4223 93.6762 77.2349 93.6762L77.2227 93.6772ZM90.6853 105.079C90.6948 104.814 91.0177 104.65 90.9747 104.912V104.912L90.6381 106.397L90.6853 105.079Z" fill="#E14E1D"/>
<path d="M81.6071 102.826C81.625 102.736 81.6284 102.642 81.6646 102.558C81.7283 102.409 81.879 102.248 82.0219 102.248V102.248C81.7815 102.245 81.576 102.424 81.5506 102.663C81.46 103.516 81.557 103.077 81.6071 102.826ZM90.6897 104.749C90.6945 104.666 90.7675 104.596 90.8412 104.634C90.9401 104.684 90.9906 104.789 90.9708 104.91V104.91C90.931 105.085 90.672 105.05 90.6825 104.871L90.6897 104.749ZM84.3694 108.22L84.2106 108.22L84.3895 108.22L84.3694 108.22ZM34.5248 102.727C34.5247 102.727 34.5244 102.727 34.5245 102.727L35.0622 100.574L34.4479 103.035L34.3757 103.343L34.5251 102.727C34.5252 102.727 34.5249 102.727 34.5248 102.727V102.727ZM40.8772 93.637C40.8776 93.6386 40.8764 93.6402 40.8747 93.6402L37.1521 93.6402C37.0557 93.6433 36.9628 93.675 36.8872 93.7305C36.8115 93.786 36.7572 93.8624 36.7322 93.9484L36.0112 96.8154C35.9993 96.8525 35.9972 96.8917 36.0052 96.9296C36.0131 96.9676 36.0308 97.0031 36.0569 97.0334C36.0829 97.0636 36.1165 97.0876 36.1547 97.1033C36.193 97.119 36.2348 97.126 36.2767 97.1237L40.0318 97.1237C40.1278 97.1203 40.2202 97.0885 40.2953 97.033C40.3704 96.9774 40.4241 96.9011 40.4485 96.8154L41.1456 93.9416C41.1861 93.7737 41.0679 93.6354 40.8797 93.6338C40.8781 93.6338 40.8768 93.6354 40.8772 93.637V93.637ZM29.1419 113.861C29.1419 113.861 29.142 113.861 29.142 113.861L32.2147 113.884C31.3079 113.884 29.8114 113.868 29.142 113.861C29.1417 113.861 29.1417 113.861 29.1419 113.861V113.861Z" fill="#E14E1D"/>
<path d="M39.7837 98.1185C39.7805 98.115 39.776 98.1129 39.7712 98.1129L36.0226 98.1129C35.9261 98.1161 35.8333 98.1478 35.7576 98.2033C35.682 98.2588 35.6277 98.3352 35.6027 98.4212L34.5273 102.727L34.3776 103.345L33.3522 107.741C33.3218 107.865 33.2874 107.988 33.2491 108.11C33.1987 108.27 33.1403 108.428 33.0706 108.581C32.8377 109.093 32.201 110.268 31.2787 110.252L30.1097 110.232C30.0138 110.234 29.921 110.264 29.8449 110.318C29.7688 110.373 29.7133 110.448 29.6867 110.533L28.8938 113.551C28.8814 113.588 28.8788 113.627 28.8862 113.664C28.8936 113.702 28.9108 113.738 28.9362 113.769C28.9617 113.799 28.9948 113.823 29.0327 113.84C29.0706 113.856 29.1122 113.863 29.154 113.862L32.2278 113.885C35.1743 113.885 36.7342 112.38 37.7519 108.051L40.058 98.432C40.0986 98.2654 39.9805 98.1279 39.7963 98.1242C39.7915 98.1241 39.7869 98.1221 39.7837 98.1185V98.1185ZM93.1749 107.579C93.1182 107.85 92.7584 108.008 92.8082 107.736V107.736L95.6942 95.54L93.1749 107.579Z" fill="#E14E1D"/>
<path d="M92.8462 107.89C92.8238 107.805 92.8381 107.596 92.8787 107.427L94.2483 101.637L92.805 107.735C92.7638 107.906 92.8857 108.044 93.0742 108.044L93.4177 108.044C93.2292 108.044 92.868 107.975 92.8462 107.89ZM96.7757 107.975C96.7765 107.975 96.7767 107.976 96.776 107.976C96.6714 108.013 96.4358 108.044 96.2495 108.044L96.5925 108.044C96.6883 108.041 96.7803 108.008 96.8548 107.953C96.9293 107.897 96.9821 107.82 97.0055 107.734L97.0755 107.426C97.038 107.594 96.8761 107.929 96.7753 107.973C96.7746 107.974 96.7749 107.975 96.7757 107.975V107.975ZM108.777 96.3562L108.93 96.9483C108.973 97.1176 108.853 97.2551 108.665 97.256M98.103 102.834L98.2446 102.22L98.7952 99.894L98.172 102.528L98.1032 102.832C98.1031 102.833 98.103 102.834 98.103 102.834V102.834ZM95.7393 95.3398C95.7393 95.3397 95.7391 95.3397 95.739 95.3398L95.6194 95.8473L94.2493 101.637L95.6931 95.5395L95.7392 95.3399C95.7392 95.3398 95.7393 95.3398 95.7393 95.3398V95.3398Z" fill="#E14E1D"/>
<path d="M108.937 96.9398C108.932 96.9426 108.927 96.9402 108.925 96.9351L108.775 96.3533L108.55 95.4285C108.25 94.3368 107.358 93.7051 105.413 93.7051L96.4615 93.6997C96.3656 93.7027 96.2731 93.7345 96.1983 93.7902C96.1235 93.8459 96.0703 93.9226 96.0469 94.0085L95.9053 94.6128L95.7001 95.5254L92.8867 107.414C92.8455 107.584 92.8318 107.783 92.8542 107.876C92.8771 107.968 93.2378 108.031 93.4257 108.031L96.2554 108.031C96.4439 108.031 96.6819 107.999 96.7856 107.961C96.8893 107.923 97.0423 107.591 97.0894 107.412L98.1879 102.515L99.3617 97.5536C99.3858 97.4681 99.4393 97.3919 99.5141 97.3365C99.5889 97.281 99.681 97.2492 99.7768 97.2458L108.681 97.2419C108.865 97.2419 108.984 97.1091 108.948 96.9446C108.947 96.9394 108.941 96.937 108.937 96.9398V96.9398ZM120.424 91.5883C120.42 91.5876 120.416 91.5873 120.412 91.5873L119.733 91.5897L116.883 91.5897C116.778 91.5957 116.676 91.6221 116.584 91.667C116.491 91.712 116.41 91.7745 116.345 91.8505L110.001 100.36C109.894 100.503 109.772 100.482 109.73 100.314L109.276 98.4388C109.251 98.353 109.198 98.2768 109.123 98.2214C109.047 98.166 108.955 98.1343 108.859 98.131L104.808 98.131C104.619 98.131 104.506 98.2671 104.557 98.4344L106.334 104.297C106.385 104.463 106.387 104.737 106.341 104.907L105.524 107.744C105.51 107.78 105.506 107.819 105.513 107.857C105.519 107.895 105.536 107.931 105.562 107.961C105.588 107.991 105.621 108.015 105.659 108.031C105.697 108.046 105.739 108.053 105.781 108.05L109.794 108.05C109.891 108.046 109.985 108.015 110.062 107.96C110.139 107.905 110.195 107.83 110.224 107.744L111.041 104.908C111.104 104.708 111.204 104.519 111.335 104.349L121.639 91.8324C121.753 91.6935 121.693 91.5809 121.504 91.5824L120.436 91.5892C120.432 91.5892 120.428 91.5889 120.424 91.5883V91.5883ZM88.1917 98.9281C88.1921 98.9281 88.1925 98.9285 88.1924 98.9289C88.1672 99.1135 87.9783 99.2521 87.7895 99.2521L82.6514 99.2521C82.4741 99.2521 82.3844 99.141 82.4122 99.002L82.416 98.9771L82.4398 98.8968C82.9475 97.6946 83.94 96.9053 85.8173 96.9053C87.9314 96.9053 88.3394 97.8575 88.191 98.9273C88.191 98.9278 88.1913 98.9281 88.1917 98.9281V98.9281ZM86.7137 93.4658C86.713 93.4646 86.7117 93.4639 86.7104 93.4639C80.1195 93.4647 78.5388 97.1528 77.6443 100.875C76.7483 104.67 76.8064 108.219 83.6285 108.219L84.71 108.219L85.543 108.216L89.8843 108.192C89.9796 108.188 90.071 108.156 90.1449 108.1C90.2188 108.044 90.2712 107.968 90.2941 107.882L90.9684 104.912C91.0075 104.741 90.885 104.602 90.696 104.602L84.5624 104.602V104.602C81.9522 104.602 83.6062 102.249 86.2164 102.249L91.4818 102.249C91.5607 102.248 91.6376 102.225 91.7025 102.184C91.7675 102.142 91.8175 102.084 91.8461 102.016C91.8574 101.99 91.8656 101.964 91.8704 101.937C93.3508 96.8785 92.9508 93.4686 86.717 93.4678C86.7157 93.4678 86.7143 93.467 86.7137 93.4658V93.4658ZM55.5224 98.9076C55.5224 98.9079 55.5223 98.9082 55.5222 98.9085L55.4285 99.2105L54.6763 101.63L53.9236 104.047C53.8924 104.133 53.834 104.207 53.756 104.261C53.678 104.316 53.5841 104.347 53.4867 104.351L49.5665 104.351C46.594 104.351 45.8811 102.208 46.6205 99.0475C47.3593 95.8151 48.7895 93.8049 51.7158 93.6018C55.7147 93.3244 56.5009 95.9156 55.5225 98.9066C55.5224 98.9069 55.5224 98.9073 55.5224 98.9076V98.9076ZM58.1834 104.172C58.1835 104.168 58.183 104.167 58.1845 104.163C58.2351 104.051 60.0567 99.9984 60.4842 97.6427C61.072 94.4449 59.3596 89.8086 52.6511 89.8086C45.9803 89.8086 43.0621 94.235 41.9337 99.0578C40.8051 103.904 42.2311 108.155 48.8622 108.122L58.9835 108.088C59.0806 108.083 59.174 108.051 59.251 107.996C59.328 107.941 59.3849 107.866 59.4141 107.781L60.2817 104.786C60.2955 104.75 60.2994 104.711 60.2931 104.673C60.2868 104.635 60.2705 104.599 60.2456 104.569C60.2206 104.538 60.1874 104.513 60.1492 104.498C60.111 104.482 60.0691 104.475 60.0273 104.479L58.3948 104.469C58.2345 104.468 58.1442 104.373 58.1629 104.248C58.1666 104.225 58.1728 104.203 58.1813 104.182C58.1827 104.179 58.1834 104.175 58.1834 104.172V104.172Z" fill="#E14E1D"/>
<path d="M91.2184 101.404C91.2181 101.459 91.1942 101.511 91.1518 101.55C91.1094 101.589 91.0521 101.611 90.9924 101.611C90.9328 101.611 90.8756 101.589 90.8336 101.55C90.7917 101.511 90.7682 101.459 90.7685 101.404C90.7688 101.349 90.7927 101.296 90.8351 101.257C90.8775 101.218 90.9348 101.196 90.9945 101.196C91.0542 101.196 91.1113 101.218 91.1533 101.257C91.1953 101.296 91.2187 101.349 91.2184 101.404Z" fill="#E14E1D"/>
</svg>
