<svg width="260" height="71" viewBox="0 0 260 71" fill="none" xmlns="http://www.w3.org/2000/svg">
<rect width="260" height="71" rx="35.5" fill="#E14E1D"/>
<path d="M73.36 46.36C71.94 46.36 70.63 46.1 69.43 45.58C68.25 45.04 67.28 44.28 66.52 43.3L69.22 40.06C69.8 40.82 70.41 41.4 71.05 41.8C71.69 42.18 72.38 42.37 73.12 42.37C75.1 42.37 76.09 41.21 76.09 38.89V28.9H68.71V25H80.92V38.62C80.92 41.22 80.28 43.16 79 44.44C77.72 45.72 75.84 46.36 73.36 46.36ZM95.5605 46.36C93.9205 46.36 92.3905 46.09 90.9705 45.55C89.5705 45.01 88.3505 44.25 87.3105 43.27C86.2905 42.29 85.4905 41.14 84.9105 39.82C84.3505 38.5 84.0705 37.06 84.0705 35.5C84.0705 33.94 84.3505 32.5 84.9105 31.18C85.4905 29.86 86.3005 28.71 87.3405 27.73C88.3805 26.75 89.6005 25.99 91.0005 25.45C92.4005 24.91 93.9205 24.64 95.5605 24.64C97.2205 24.64 98.7405 24.91 100.12 25.45C101.52 25.99 102.73 26.75 103.75 27.73C104.79 28.69 105.6 29.83 106.18 31.15C106.76 32.47 107.05 33.92 107.05 35.5C107.05 37.06 106.76 38.51 106.18 39.85C105.6 41.17 104.79 42.32 103.75 43.3C102.73 44.26 101.52 45.01 100.12 45.55C98.7405 46.09 97.2205 46.36 95.5605 46.36ZM102.43 50.83C101.61 50.83 100.83 50.74 100.09 50.56C99.3705 50.38 98.6505 50.09 97.9305 49.69C97.2305 49.29 96.4905 48.75 95.7105 48.07C94.9505 47.39 94.1205 46.55 93.2205 45.55L98.3205 44.26C98.8605 45 99.3605 45.59 99.8205 46.03C100.28 46.47 100.72 46.78 101.14 46.96C101.58 47.14 102.04 47.23 102.52 47.23C103.8 47.23 104.94 46.71 105.94 45.67L108.1 48.25C106.68 49.97 104.79 50.83 102.43 50.83ZM95.5605 42.22C96.5005 42.22 97.3605 42.06 98.1405 41.74C98.9405 41.42 99.6405 40.96 100.24 40.36C100.84 39.76 101.3 39.05 101.62 38.23C101.96 37.39 102.13 36.48 102.13 35.5C102.13 34.5 101.96 33.59 101.62 32.77C101.3 31.95 100.84 31.24 100.24 30.64C99.6405 30.04 98.9405 29.58 98.1405 29.26C97.3605 28.94 96.5005 28.78 95.5605 28.78C94.6205 28.78 93.7505 28.94 92.9505 29.26C92.1505 29.58 91.4505 30.04 90.8505 30.64C90.2705 31.24 89.8105 31.95 89.4705 32.77C89.1505 33.59 88.9905 34.5 88.9905 35.5C88.9905 36.48 89.1505 37.39 89.4705 38.23C89.8105 39.05 90.2705 39.76 90.8505 40.36C91.4505 40.96 92.1505 41.42 92.9505 41.74C93.7505 42.06 94.6205 42.22 95.5605 42.22ZM119.703 46.36C116.723 46.36 114.393 45.53 112.713 43.87C111.033 42.21 110.193 39.84 110.193 36.76V25L115.053 25V36.58C115.053 38.58 115.463 40.02 116.283 40.9C117.103 41.78 118.253 42.22 119.733 42.22C121.213 42.22 122.363 41.78 123.183 40.9C124.003 40.02 124.413 38.58 124.413 36.58V25H129.213V36.76C129.213 39.84 128.373 42.21 126.693 43.87C125.013 45.53 122.683 46.36 119.703 46.36ZM138.156 33.46H148.266V37.24H138.156V33.46ZM138.516 42.1H149.946V46H133.686V25L149.556 25V28.9L138.516 28.9V42.1ZM153.483 46V25H162.573C164.453 25 166.073 25.31 167.433 25.93C168.793 26.53 169.843 27.4 170.583 28.54C171.323 29.68 171.693 31.04 171.693 32.62C171.693 34.18 171.323 35.53 170.583 36.67C169.843 37.79 168.793 38.65 167.433 39.25C166.073 39.85 164.453 40.15 162.573 40.15H156.183L158.343 38.02V46H153.483ZM166.833 46L161.583 38.38L166.773 38.38L172.083 46H166.833ZM158.343 38.56L156.183 36.28H162.303C163.803 36.28 164.923 35.96 165.663 35.32C166.403 34.66 166.773 33.76 166.773 32.62C166.773 31.46 166.403 30.56 165.663 29.92C164.923 29.28 163.803 28.96 162.303 28.96H156.183L158.343 26.65V38.56ZM180.14 46V37.42L181.25 40.36L172.01 25H177.17L184.25 36.79H181.28L188.39 25H193.16L183.92 40.36L185 37.42V46H180.14Z" fill="#BFDEF7"/>
</svg>
