<svg width="138" height="138" viewBox="0 0 138 138" fill="none" xmlns="http://www.w3.org/2000/svg">
<circle cx="69" cy="69" r="69" fill="#E14E1D"/>
<path d="M33 28L37.0359 73.3894H88.9313L87.1898 92.8576L70.4808 97.3865L53.8031 92.8641L52.688 80.3638H37.6594L39.8086 104.461L70.4775 113L101.185 104.461L105.302 58.3816H50.73L49.3598 43.0111H106.659L108 28H33Z" fill="white"/>
<path d="M69.9995 28H33L36.9821 73.3894H69.9995V58.3816H50.4934L49.1415 43.0111H69.9995V28ZM69.9995 97.3799L69.9806 97.3865L53.5255 92.8641L52.4252 80.3638H37.5972L39.7177 104.461L69.9773 113L70 112.993L69.9995 97.3799Z" fill="#EBEBEB"/>
</svg>
