<svg width="142" height="142" viewBox="0 0 142 142" fill="none" xmlns="http://www.w3.org/2000/svg">
<circle cx="71" cy="71" r="71" fill="#31A8FF"/>
<path d="M34.8012 59.8105L36.1948 75.527H71V59.8105H34.8012ZM70.9995 28H32L33.414 43.7165H70.9995V28ZM70.9995 116.98V100.628L70.9313 100.646L53.6098 95.9203L52.5026 83.3853H36.8896L39.0686 108.063L70.9279 117L70.9995 116.98Z" fill="#EBEBEB"/>
<path d="M90.1712 75.5312L88.3639 95.916L71 100.648V117L102.917 108.07L103.151 105.414L106.809 64.0343L107.189 59.8133L110 28H71V43.7179H92.9378L91.5214 59.8133H71V75.5312H90.1712Z" fill="white"/>
</svg>
