<svg width="215" height="89" viewBox="0 0 215 89" fill="none" xmlns="http://www.w3.org/2000/svg">
<rect width="215" height="88.7154" rx="44.3577" fill="#BFDEF7"/>
<path d="M40.922 42.978L55.4568 42.9113L55.4884 49.7962L40.9536 49.8629L40.922 42.978ZM41.6332 60.6599L32.7232 60.7008L32.5786 29.2012L57.2834 29.0878L57.315 35.9727L41.5202 36.0452L41.6332 60.6599ZM61.1 60.5706L60.9554 29.0709L69.8653 29.03L70.0099 60.5297L61.1 60.5706ZM91.6066 61.0605C89.1166 61.072 86.8049 60.6926 84.6713 59.9224C82.5376 59.1221 80.6874 57.9906 79.1207 56.5278C77.5839 55.0648 76.376 53.3454 75.497 51.3694C74.6177 49.3634 74.1726 47.1604 74.1616 44.7604C74.1506 42.3605 74.5755 40.1685 75.4364 38.1845C76.2972 36.1705 77.5042 34.425 79.0574 32.9478C80.6107 31.4707 82.4505 30.3372 84.5769 29.5475C86.7331 28.7276 89.0862 28.3118 91.6362 28.3C94.6062 28.2864 97.2634 28.7692 99.608 29.7485C101.952 30.7277 103.894 32.1438 105.433 33.9968L99.7861 39.1527C98.7008 37.9877 97.5268 37.1231 96.2642 36.5589C95.0314 35.9645 93.6501 35.6709 92.1201 35.6779C90.7701 35.6841 89.5411 35.8997 88.433 36.3248C87.325 36.7499 86.3828 37.3693 85.6065 38.1828C84.8301 38.9664 84.2195 39.9142 83.7746 41.0263C83.3595 42.1082 83.1552 43.3391 83.1615 44.7191C83.1676 46.0391 83.3831 47.2531 83.8082 48.3612C84.2633 49.4691 84.8827 50.4263 85.6664 51.2327C86.45 52.0091 87.3828 52.6198 88.4649 53.0649C89.5768 53.4798 90.7927 53.6842 92.1127 53.6781C93.4327 53.6721 94.7217 53.4561 95.9798 53.0304C97.2377 52.5746 98.5093 51.8187 99.7944 50.7628L104.818 56.9948C103.024 58.2931 100.944 59.2926 98.5768 59.9935C96.21 60.6944 93.8866 61.0501 91.6066 61.0605ZM96.9378 55.861L96.8833 43.9811L104.758 43.945L104.818 56.9948L96.9378 55.861ZM109.987 60.3461L109.843 28.8465L117.178 28.8128L130.326 50.1727L126.456 50.1904L139.048 28.7124L146.382 28.6787L146.617 60.178L138.427 60.2156L138.25 41.1812L139.645 41.1748L130.223 57.1482L126.263 57.1664L116.425 41.2814L118.135 41.2735L118.222 60.3083L109.987 60.3461ZM148.647 60.1687L162.407 28.6052L171.182 28.5649L185.276 60.0005L176.006 60.0431L164.992 32.9583L168.502 32.9422L157.736 60.1269L148.647 60.1687ZM156.223 54.0138L158.488 47.4334L173.878 47.3627L176.203 53.9221L156.223 54.0138Z" fill="url(#paint0_radial_564_45)"/>
<defs>
<radialGradient id="paint0_radial_564_45" cx="0" cy="0" r="1" gradientUnits="userSpaceOnUse" gradientTransform="translate(107.499 44.3574) rotate(89.737) scale(34 78)">
<stop stop-color="#F24E1E"/>
<stop offset="0.255208" stop-color="#A259FF"/>
<stop offset="0.510417" stop-color="#0ACF83"/>
<stop offset="0.739583" stop-color="#FF7262"/>
<stop offset="1" stop-color="#1ABCFE"/>
</radialGradient>
</defs>
</svg>
