<svg width="155" height="143" viewBox="0 0 155 143" fill="none" xmlns="http://www.w3.org/2000/svg">
<ellipse cx="77.5" cy="71.5" rx="77.5" ry="71.5" fill="#452176"/>
<path d="M35.8366 110.236L29.5722 48.6866C29.5296 48.2677 29.692 47.9973 30.128 47.9239C31.1861 47.7457 32.1823 47.5778 33.6078 47.2767C35.0957 46.965 36.6522 46.7027 38.327 46.3601C40.0016 46.017 41.8068 45.7129 43.7306 45.3278C45.654 44.9433 47.5216 44.6287 49.3891 44.314C54.4939 43.4541 58.7877 43.3387 62.402 44.0075C65.6308 44.5008 68.6508 45.6963 71.2428 47.5072C73.4455 49.1031 75.2321 51.1675 76.4814 53.5605C77.6709 55.9155 78.4305 58.4038 78.7044 61.0955C79.228 66.2394 78.4153 70.6958 76.266 74.4653C74.1167 78.2343 70.8865 81.3338 66.9864 83.4509C62.9051 85.6597 58.291 86.9846 53.1868 87.8445C51.6927 88.0962 50.6965 88.264 50.0677 88.3089C49.4395 88.3537 48.5675 88.5006 47.3852 88.6998L49.3394 107.9C49.4439 108.309 49.1693 108.72 48.7395 108.854L36.6628 110.888C36.165 110.972 35.8914 110.774 35.8366 110.236ZM44.2509 57.2865L46.2964 77.3843C47.1744 77.2975 47.9894 77.2212 48.7364 77.0953L52.0362 76.5395C54.464 76.1305 56.8553 75.3626 59.0851 74.2568C61.0228 73.3828 62.6498 71.9526 63.8673 70.2263C65.0224 68.511 65.4381 66.3722 65.1703 63.7406C65.0385 61.8614 64.3537 60.0985 63.1962 58.6579C61.9799 57.2812 60.3641 56.3368 58.492 55.9825C56.0972 55.4734 53.5704 55.534 51.0244 56.0239C49.406 56.2966 47.9738 56.5379 46.7975 56.797C45.546 56.9469 44.6808 57.1536 44.2509 57.2865ZM118.262 61.5498C116.297 60.9072 114.238 60.585 112.079 60.5227C109.726 60.4324 107.393 60.5209 105.027 60.9195C103.776 61.0698 102.487 61.4695 101.335 61.9676C100.544 62.2834 99.9015 62.8177 99.5269 63.4888C99.264 64.0202 99.1381 64.6494 99.1929 65.1878C99.2477 65.7261 99.5517 66.2224 99.9739 66.6384C100.601 67.2018 101.403 67.6143 102.255 67.8968C103.771 68.3719 105.313 68.7821 106.876 69.1261C110.347 69.6365 113.736 70.5861 116.907 71.8772C119.089 72.7872 120.94 74.1791 122.33 76.0138C123.521 77.7598 124.232 79.7693 124.389 81.9331C124.737 84.7343 124.152 87.6922 122.771 90.2976C121.277 92.9779 119.043 95.2359 116.34 96.7956C113.418 98.5656 109.75 99.8532 105.267 100.608C102.404 101.091 99.5785 101.323 96.7224 101.257C94.4897 101.262 92.2889 100.978 90.1779 100.412C89.7176 100.246 89.3639 99.88 89.3771 99.3912L88.3178 88.9834C88.2995 88.804 88.3376 88.554 88.5122 88.4031C88.6868 88.2522 88.8796 88.2802 89.0785 88.3687C91.6464 89.3353 94.2959 89.8626 97.0962 89.9989C99.5225 90.1987 102.043 90.0781 104.533 89.6586C106.899 89.2601 108.549 88.678 109.615 87.9509C110.568 87.3643 111.15 86.2322 111.04 85.1555C110.955 84.3183 110.377 83.6245 109.302 83.0144C108.227 82.4051 106.082 81.8539 102.915 81.2311C99.6783 80.6988 96.5594 79.7516 93.6376 78.4136C91.5509 77.4062 89.7579 75.9416 88.3888 74.1262C87.1978 72.3801 86.4869 70.3707 86.3362 68.2663C86.0745 65.6946 86.5719 63.116 87.7158 60.6725C89.0288 58.0175 91.1375 55.7156 93.6921 54.068C96.4722 52.1395 100.078 50.863 104.498 50.1184C107.05 49.6884 109.683 49.4274 112.272 49.3563C114.164 49.2812 116.018 49.4554 117.765 49.83C118.021 49.848 118.294 50.0455 118.443 50.2634C118.53 50.4924 118.616 50.7214 118.64 50.9603L119.632 60.7103C119.657 60.9497 119.557 61.2096 119.382 61.361C118.834 61.5749 118.523 61.6273 118.262 61.5498Z" fill="#31A8FF"/>
</svg>
