<svg width="303" height="65" viewBox="0 0 303 65" fill="none" xmlns="http://www.w3.org/2000/svg">
<rect width="303" height="65" rx="32.5" fill="#31A8FF"/>
<path d="M52.49 43V22H61.58C63.46 22 65.08 22.31 66.44 22.93C67.8 23.53 68.85 24.4 69.59 25.54C70.33 26.68 70.7 28.04 70.7 29.62C70.7 31.18 70.33 32.53 69.59 33.67C68.85 34.81 67.8 35.69 66.44 36.31C65.08 36.91 63.46 37.21 61.58 37.21H55.19L57.35 35.02V43H52.49ZM57.35 35.56L55.19 33.25H61.31C62.81 33.25 63.93 32.93 64.67 32.29C65.41 31.65 65.78 30.76 65.78 29.62C65.78 28.46 65.41 27.56 64.67 26.92C63.93 26.28 62.81 25.96 61.31 25.96H55.19L57.35 23.65V35.56ZM88.2397 22H93.0997V43H88.2397V22ZM78.6997 43H73.8397V22H78.6997V43ZM88.5997 34.39H78.3397V30.28H88.5997V34.39ZM107.938 43.36C106.278 43.36 104.738 43.09 103.318 42.55C101.918 42.01 100.698 41.25 99.6582 40.27C98.6382 39.29 97.8382 38.14 97.2582 36.82C96.6982 35.5 96.4182 34.06 96.4182 32.5C96.4182 30.94 96.6982 29.5 97.2582 28.18C97.8382 26.86 98.6482 25.71 99.6882 24.73C100.728 23.75 101.948 22.99 103.348 22.45C104.748 21.91 106.268 21.64 107.908 21.64C109.568 21.64 111.088 21.91 112.468 22.45C113.868 22.99 115.078 23.75 116.098 24.73C117.138 25.71 117.948 26.86 118.528 28.18C119.108 29.48 119.398 30.92 119.398 32.5C119.398 34.06 119.108 35.51 118.528 36.85C117.948 38.17 117.138 39.32 116.098 40.3C115.078 41.26 113.868 42.01 112.468 42.55C111.088 43.09 109.578 43.36 107.938 43.36ZM107.908 39.22C108.848 39.22 109.708 39.06 110.488 38.74C111.288 38.42 111.988 37.96 112.588 37.36C113.188 36.76 113.648 36.05 113.968 35.23C114.308 34.41 114.478 33.5 114.478 32.5C114.478 31.5 114.308 30.59 113.968 29.77C113.648 28.95 113.188 28.24 112.588 27.64C112.008 27.04 111.318 26.58 110.518 26.26C109.718 25.94 108.848 25.78 107.908 25.78C106.968 25.78 106.098 25.94 105.298 26.26C104.518 26.58 103.828 27.04 103.228 27.64C102.628 28.24 102.158 28.95 101.818 29.77C101.498 30.59 101.338 31.5 101.338 32.5C101.338 33.48 101.498 34.39 101.818 35.23C102.158 36.05 102.618 36.76 103.198 37.36C103.798 37.96 104.498 38.42 105.298 38.74C106.098 39.06 106.968 39.22 107.908 39.22ZM126.778 43V25.96H120.058V22H138.358V25.96H131.638V43H126.778ZM150.55 43.36C148.89 43.36 147.35 43.09 145.93 42.55C144.53 42.01 143.31 41.25 142.27 40.27C141.25 39.29 140.45 38.14 139.87 36.82C139.31 35.5 139.03 34.06 139.03 32.5C139.03 30.94 139.31 29.5 139.87 28.18C140.45 26.86 141.26 25.71 142.3 24.73C143.34 23.75 144.56 22.99 145.96 22.45C147.36 21.91 148.88 21.64 150.52 21.64C152.18 21.64 153.7 21.91 155.08 22.45C156.48 22.99 157.69 23.75 158.71 24.73C159.75 25.71 160.56 26.86 161.14 28.18C161.72 29.48 162.01 30.92 162.01 32.5C162.01 34.06 161.72 35.51 161.14 36.85C160.56 38.17 159.75 39.32 158.71 40.3C157.69 41.26 156.48 42.01 155.08 42.55C153.7 43.09 152.19 43.36 150.55 43.36ZM150.52 39.22C151.46 39.22 152.32 39.06 153.1 38.74C153.9 38.42 154.6 37.96 155.2 37.36C155.8 36.76 156.26 36.05 156.58 35.23C156.92 34.41 157.09 33.5 157.09 32.5C157.09 31.5 156.92 30.59 156.58 29.77C156.26 28.95 155.8 28.24 155.2 27.64C154.62 27.04 153.93 26.58 153.13 26.26C152.33 25.94 151.46 25.78 150.52 25.78C149.58 25.78 148.71 25.94 147.91 26.26C147.13 26.58 146.44 27.04 145.84 27.64C145.24 28.24 144.77 28.95 144.43 29.77C144.11 30.59 143.95 31.5 143.95 32.5C143.95 33.48 144.11 34.39 144.43 35.23C144.77 36.05 145.23 36.76 145.81 37.36C146.41 37.96 147.11 38.42 147.91 38.74C148.71 39.06 149.58 39.22 150.52 39.22ZM172.232 43.36C170.552 43.36 168.942 43.14 167.402 42.7C165.862 42.24 164.622 41.65 163.682 40.93L165.332 37.27C166.232 37.91 167.292 38.44 168.512 38.86C169.752 39.26 171.002 39.46 172.262 39.46C173.222 39.46 173.992 39.37 174.572 39.19C175.172 38.99 175.612 38.72 175.892 38.38C176.172 38.04 176.312 37.65 176.312 37.21C176.312 36.65 176.092 36.21 175.652 35.89C175.212 35.55 174.632 35.28 173.912 35.08C173.192 34.86 172.392 34.66 171.512 34.48C170.652 34.28 169.782 34.04 168.902 33.76C168.042 33.48 167.252 33.12 166.532 32.68C165.812 32.24 165.222 31.66 164.762 30.94C164.322 30.22 164.102 29.3 164.102 28.18C164.102 26.98 164.422 25.89 165.062 24.91C165.722 23.91 166.702 23.12 168.002 22.54C169.322 21.94 170.972 21.64 172.952 21.64C174.272 21.64 175.572 21.8 176.852 22.12C178.132 22.42 179.262 22.88 180.242 23.5L178.742 27.19C177.762 26.63 176.782 26.22 175.802 25.96C174.822 25.68 173.862 25.54 172.922 25.54C171.982 25.54 171.212 25.65 170.612 25.87C170.012 26.09 169.582 26.38 169.322 26.74C169.062 27.08 168.932 27.48 168.932 27.94C168.932 28.48 169.152 28.92 169.592 29.26C170.032 29.58 170.612 29.84 171.332 30.04C172.052 30.24 172.842 30.44 173.702 30.64C174.582 30.84 175.452 31.07 176.312 31.33C177.192 31.59 177.992 31.94 178.712 32.38C179.432 32.82 180.012 33.4 180.452 34.12C180.912 34.84 181.142 35.75 181.142 36.85C181.142 38.03 180.812 39.11 180.152 40.09C179.492 41.07 178.502 41.86 177.182 42.46C175.882 43.06 174.232 43.36 172.232 43.36ZM198.533 22H203.393V43H198.533V22ZM188.993 43H184.133V22H188.993V43ZM198.893 34.39H188.633V30.28H198.893V34.39ZM218.232 43.36C216.572 43.36 215.032 43.09 213.612 42.55C212.212 42.01 210.992 41.25 209.952 40.27C208.932 39.29 208.132 38.14 207.552 36.82C206.992 35.5 206.712 34.06 206.712 32.5C206.712 30.94 206.992 29.5 207.552 28.18C208.132 26.86 208.942 25.71 209.982 24.73C211.022 23.75 212.242 22.99 213.642 22.45C215.042 21.91 216.562 21.64 218.202 21.64C219.862 21.64 221.382 21.91 222.762 22.45C224.162 22.99 225.372 23.75 226.392 24.73C227.432 25.71 228.242 26.86 228.822 28.18C229.402 29.48 229.692 30.92 229.692 32.5C229.692 34.06 229.402 35.51 228.822 36.85C228.242 38.17 227.432 39.32 226.392 40.3C225.372 41.26 224.162 42.01 222.762 42.55C221.382 43.09 219.872 43.36 218.232 43.36ZM218.202 39.22C219.142 39.22 220.002 39.06 220.782 38.74C221.582 38.42 222.282 37.96 222.882 37.36C223.482 36.76 223.942 36.05 224.262 35.23C224.602 34.41 224.772 33.5 224.772 32.5C224.772 31.5 224.602 30.59 224.262 29.77C223.942 28.95 223.482 28.24 222.882 27.64C222.302 27.04 221.612 26.58 220.812 26.26C220.012 25.94 219.142 25.78 218.202 25.78C217.262 25.78 216.392 25.94 215.592 26.26C214.812 26.58 214.122 27.04 213.522 27.64C212.922 28.24 212.452 28.95 212.112 29.77C211.792 30.59 211.632 31.5 211.632 32.5C211.632 33.48 211.792 34.39 212.112 35.23C212.452 36.05 212.912 36.76 213.492 37.36C214.092 37.96 214.792 38.42 215.592 38.74C216.392 39.06 217.262 39.22 218.202 39.22ZM233.014 43V22H242.104C243.984 22 245.604 22.31 246.964 22.93C248.324 23.53 249.374 24.4 250.114 25.54C250.854 26.68 251.224 28.04 251.224 29.62C251.224 31.18 250.854 32.53 250.114 33.67C249.374 34.81 248.324 35.69 246.964 36.31C245.604 36.91 243.984 37.21 242.104 37.21H235.714L237.874 35.02V43H233.014ZM237.874 35.56L235.714 33.25H241.834C243.334 33.25 244.454 32.93 245.194 32.29C245.934 31.65 246.304 30.76 246.304 29.62C246.304 28.46 245.934 27.56 245.194 26.92C244.454 26.28 243.334 25.96 241.834 25.96H235.714L237.874 23.65V35.56Z" fill="#452176"/>
</svg>
