<svg width="117" height="117" viewBox="0 0 117 117" fill="none" xmlns="http://www.w3.org/2000/svg">
<g clip-path="url(#clip0_564_63)">
<path d="M0 58.5C0 26.1913 26.1913 0 58.5 0V0C90.8087 0 117 26.1913 117 58.5V58.5C117 90.8087 90.8087 117 58.5 117V117C26.1913 117 0 90.8087 0 58.5V58.5Z" fill="#F7DF1E"/>
<path d="M24.6801 86.7349L33.6334 81.3164C35.361 84.3789 36.9322 86.9703 40.7014 86.9703C44.3142 86.9703 46.5925 85.5572 46.5925 80.06V42.6757H57.5873V80.2154C57.5873 91.6032 50.9119 96.7869 41.1726 96.7869C32.377 96.7869 27.2715 92.2316 24.6797 86.734M63.5593 85.5567L72.5117 80.3735C74.8686 84.2222 77.9316 87.0494 83.3502 87.0494C87.9063 87.0494 90.8112 84.7715 90.8112 81.6299C90.8112 77.8603 87.8268 76.5249 82.8004 74.3265L80.0522 73.1474C72.1195 69.7713 66.8577 65.5301 66.8577 56.5768C66.8577 48.3301 73.1405 42.0469 82.958 42.0469C89.9479 42.0469 94.9743 44.4819 98.5867 50.8434L90.0256 56.3414C88.1403 52.9644 86.0992 51.6294 82.9576 51.6294C79.7373 51.6294 77.6953 53.6715 77.6953 56.3414C77.6953 59.6398 79.7373 60.9757 84.4493 63.0178L87.1979 64.1955C96.5442 68.2014 101.806 72.285 101.806 81.4731C101.806 91.3697 94.031 96.7883 83.5855 96.7883C73.3759 96.7883 66.7787 91.919 63.5589 85.5572" fill="black"/>
</g>
<defs>
<clipPath id="clip0_564_63">
<rect width="117" height="117" fill="white"/>
</clipPath>
</defs>
</svg>
