<svg width="368" height="80" viewBox="0 0 368 80" fill="none" xmlns="http://www.w3.org/2000/svg">
<rect width="368" height="80" rx="40" fill="#452176"/>
<path d="M143.273 44.3438V49.5H131.569V44.3438H133.913V31.3506H131.569V26.1943L143.273 26.165V31.3506H141.413V35.1885H147.023V31.3506H145.163V26.165L156.853 26.1943V31.3506H154.523V44.3438H156.853V49.5H145.163V44.3438H147.023V40.1982H141.413V44.3438H143.273ZM176.005 44.2266V49.5H162.953V44.2266H165.356V31.3506H163.29L162.66 35.3643H158.544V26.1943L180.473 26.1943V35.3643H176.371L175.741 31.3506H173.603V44.2266H176.005ZM192.023 44.3438V49.5H182.179V44.3438H185.006V31.3506H182.179V26.1943H194.747L199.274 37.415L203.756 26.1943L215.475 26.1943V31.3506H212.662V44.3438H215.475V49.5H203.273V44.3438H205.162V35.6426L200.006 49.5H195.773L189.679 35.3057V44.3438H192.023ZM236.282 39.1143V49.5H217.562V44.2559H219.906V31.3506H217.562V26.1943H229.735V31.3506H227.406V44.2559H231.156L232.562 39.1143H236.282Z" fill="#E14E1D"/>
</svg>
