<svg width="231" height="130" viewBox="0 0 231 130" fill="none" xmlns="http://www.w3.org/2000/svg">
<path d="M2.7915 64.9999C7 15.5 50.8777 -0.000244343 113.126 -0.000250679C175.375 -0.000257015 228.203 12.5 228.214 64.9999C225 116 180.128 130 117.879 130C55.6303 130 10 117.5 2.7915 64.9999Z" fill="#221F57"/>
<rect x="32" width="165" height="130" fill="#221F57"/>
<path d="M116.572 87.6196H89.2533L84.8967 104.242C84.843 104.545 84.6793 104.813 84.4337 105C84.1881 105.187 83.8761 105.281 83.5515 105.266H69.7146C68.9261 105.266 68.6198 104.849 68.7963 104.014L87.7066 38.4365C87.8934 37.7537 88.0741 36.9761 88.2471 36.103C88.4471 34.5835 88.4939 33.0402 88.3868 31.4922C88.3628 31.3839 88.3652 31.2735 88.3935 31.1697C88.4219 31.066 88.4756 30.9716 88.5503 30.8943C88.625 30.8169 88.7187 30.7586 88.824 30.7239C88.9293 30.6893 89.0432 30.6793 89.1568 30.6947H107.961C108.512 30.6947 108.841 30.8849 108.948 31.2648L141.063 104.128C141.355 104.887 141.146 105.267 140.436 105.266H125.062C124.8 105.295 124.529 105.229 124.301 105.083C124.073 104.936 123.902 104.718 123.822 104.47L116.572 87.6196ZM92.4731 73.2748H111.159L110.831 72.4283L110.306 71.0878L109.933 70.1464L109.339 68.6641L108.079 65.5436L106.968 62.7771L104.083 55.5709C103.365 53.7796 102.67 51.9811 101.999 50.1759L101.46 48.7108L100.829 46.9785L99.8639 44.2936L99.6827 43.7878H99.565C99.1709 46.5205 98.6459 49.2259 97.9918 51.8956L96.63 57.3291L95.8817 60.3309L95.127 63.3698C94.9904 63.9187 94.8548 64.4617 94.7179 64.998L94.3095 66.5877L93.9012 68.1403L93.4929 69.6545L93.0845 71.1309C92.9489 71.6168 92.8128 72.0961 92.6769 72.5695L92.4731 73.2748ZM152.589 42.7629C151.387 42.8095 150.169 42.6105 149.017 42.1789C147.865 41.7473 146.804 41.0929 145.904 40.2583C145.003 39.3875 144.279 38.3659 143.772 37.2522C143.265 36.1385 142.986 34.9546 142.951 33.7687C142.823 32.5947 142.953 31.4252 143.333 30.3366C143.713 29.248 144.334 28.2646 145.155 27.4509C146.739 25.8821 148.936 25.0042 151.289 25L151.541 25.0027C154.38 25.0027 156.666 25.8181 158.401 27.4502C159.278 28.2983 159.984 29.2929 160.478 30.3771C160.972 31.4613 161.246 32.6138 161.282 33.7687C161.417 34.9594 161.304 36.1474 160.948 37.2624C160.592 38.3773 160 39.3963 159.209 40.259C158.406 41.077 157.429 41.7208 156.335 42.1523C155.242 42.5838 154.055 42.7943 152.843 42.7715L152.589 42.7629ZM148.867 104.128L144.931 49.7079C144.882 49.025 145.171 48.683 145.803 48.683H160.35C160.98 48.683 161.32 49.0244 161.37 49.7079L165.306 104.128C165.361 104.887 165.073 105.267 164.442 105.266H150.014C149.342 105.266 148.963 104.926 148.879 104.244L148.867 104.128Z" fill="#FF9A00"/>
</svg>
