<svg width="372" height="90" viewBox="0 0 372 90" fill="none" xmlns="http://www.w3.org/2000/svg">
<rect width="371.792" height="89.7441" rx="44.872" fill="#32A7FD"/>
<path d="M89.4535 54.5375C87.9136 54.5174 86.5172 54.2392 85.264 53.7029C84.0312 53.1468 83.0113 52.3634 82.2044 51.3528L85.4941 47.5553C86.0447 48.2826 86.6175 48.8401 87.2125 49.2278C87.8077 49.5956 88.4353 49.7838 89.0953 49.7924C90.8551 49.8153 91.7483 48.8069 91.7749 46.767L91.8925 37.7378L84.6331 37.6433L84.6928 33.0537L97.8317 33.2248L97.6591 46.4836C97.6234 49.2234 96.9068 51.2642 95.5092 52.6062C94.1118 53.9281 92.0933 54.5718 89.4535 54.5375ZM98.278 54.2323L107.821 33.3548L113.67 33.431L122.696 54.5503L116.516 54.4698L109.493 36.2868L111.832 36.3173L104.337 54.3112L98.278 54.2323ZM103.401 50.2187L104.988 45.859L115.247 45.9926L116.72 50.3921L103.401 50.2187ZM129.327 54.6367L120.632 33.5216L127.051 33.6052L134.374 51.8821L130.594 51.8329L138.57 33.7552L144.45 33.8318L135.177 54.7128L129.327 54.6367ZM141.823 54.7994L151.366 33.9218L157.215 33.998L166.241 55.1173L160.062 55.0369L153.038 36.8539L155.378 36.8843L147.883 54.8783L141.823 54.7994ZM146.946 50.7857L148.533 46.426L158.792 46.5596L160.265 50.9592L146.946 50.7857ZM166.227 48.7566L166.284 44.377L175.043 44.491L174.986 48.8706L166.227 48.7566ZM185.126 55.7833C183.407 55.7609 181.749 55.5293 180.155 55.0885C178.581 54.6279 177.298 54.0512 176.307 53.3582L178.314 49.004C179.246 49.6162 180.32 50.1302 181.534 50.546C182.769 50.9422 183.997 51.1482 185.217 51.164C186.037 51.1747 186.697 51.1133 187.199 50.9798C187.701 50.8264 188.064 50.6311 188.287 50.394C188.53 50.1371 188.654 49.8387 188.659 49.4987C188.665 49.0188 188.45 48.6359 188.013 48.3502C187.577 48.0645 187.01 47.8271 186.313 47.638C185.615 47.4489 184.837 47.2588 183.98 47.0676C183.142 46.8767 182.295 46.6356 181.439 46.3445C180.603 46.0535 179.837 45.6835 179.143 45.2345C178.449 44.7654 177.887 44.168 177.456 43.4424C177.026 42.6967 176.818 41.7639 176.833 40.644C176.849 39.3841 177.204 38.2486 177.897 37.2376C178.61 36.2268 179.661 35.4204 181.049 34.8184C182.437 34.2164 184.161 33.9288 186.221 33.9557C187.601 33.9736 188.948 34.1512 190.264 34.4884C191.6 34.8058 192.784 35.2712 193.816 35.8847L191.929 40.2705C190.936 39.7175 189.951 39.3047 188.975 39.032C187.999 38.7392 187.05 38.5869 186.131 38.5749C185.311 38.5642 184.65 38.6456 184.147 38.8191C183.645 38.9726 183.282 39.1878 183.059 39.465C182.835 39.7421 182.721 40.0606 182.716 40.4206C182.71 40.8805 182.915 41.2532 183.332 41.5387C183.768 41.8044 184.335 42.0318 185.033 42.2209C185.751 42.3903 186.529 42.5704 187.366 42.7613C188.224 42.9525 189.071 43.1935 189.907 43.4845C190.764 43.7556 191.539 44.1258 192.233 44.5948C192.927 45.0439 193.479 45.6412 193.89 46.3866C194.32 47.1122 194.528 48.025 194.514 49.1249C194.498 50.3448 194.133 51.4702 193.42 52.501C192.727 53.512 191.686 54.3185 190.298 54.9205C188.93 55.5228 187.206 55.8103 185.126 55.7833ZM207.308 56.0721C205.649 56.0505 204.112 55.7705 202.699 55.232C201.306 54.6738 200.096 53.898 199.069 52.9046C198.062 51.9114 197.277 50.751 196.714 49.4236C196.152 48.0762 195.881 46.6025 195.902 45.0026C195.922 43.4028 196.231 41.9467 196.828 40.6343C197.426 39.302 198.241 38.1525 199.274 37.1859C200.326 36.2195 201.556 35.4855 202.963 34.9837C204.389 34.4623 205.933 34.2123 207.593 34.234C209.533 34.2592 211.258 34.6217 212.769 35.3214C214.3 36.0214 215.567 37.018 216.57 38.3112L212.746 41.6817C212.077 40.8729 211.335 40.2532 210.52 39.8225C209.726 39.3922 208.829 39.1705 207.829 39.1574C206.969 39.1462 206.177 39.2759 205.453 39.5465C204.73 39.8171 204.105 40.219 203.578 40.7522C203.071 41.2657 202.663 41.8904 202.353 42.6264C202.063 43.3627 201.913 44.1808 201.901 45.0808C201.889 45.9807 202.019 46.8024 202.289 47.546C202.579 48.2899 202.971 48.935 203.464 49.4815C203.977 50.0082 204.592 50.4163 205.308 50.7056C206.024 50.995 206.812 51.1452 207.672 51.1564C208.672 51.1694 209.575 50.9712 210.38 50.5616C211.206 50.1523 211.964 49.5522 212.654 48.7611L216.389 52.23C215.353 53.4766 214.06 54.4399 212.511 55.1198C210.982 55.7799 209.248 56.0974 207.308 56.0721ZM218.661 55.7999L218.935 34.8017L228.534 34.9267C230.454 34.9517 232.1 35.2831 233.471 35.921C234.863 36.5592 235.931 37.4732 236.676 38.663C237.421 39.8328 237.783 41.2176 237.762 42.8175C237.741 44.3974 237.344 45.7623 236.569 46.9123C235.794 48.0423 234.702 48.9082 233.294 49.5099C231.907 50.0919 230.253 50.3704 228.333 50.3454L222.034 50.2633L224.706 47.8079L224.601 55.8772L218.661 55.7999ZM231.65 55.969L226.53 48.2517L232.86 48.3341L238.01 56.0518L231.65 55.969ZM224.698 48.4379L222.093 45.6737L228.033 45.7511C229.273 45.7672 230.196 45.5092 230.803 44.9771C231.43 44.4452 231.75 43.6993 231.762 42.7394C231.775 41.7595 231.475 40.9955 230.862 40.4475C230.269 39.8997 229.353 39.6177 228.113 39.6016L222.174 39.5242L224.849 36.8288L224.698 48.4379ZM240.536 56.0847L240.81 35.0865L246.749 35.1639L246.476 56.1621L240.536 56.0847ZM250.372 56.2128L250.645 35.2146L260.244 35.3396C262.164 35.3646 263.81 35.696 265.182 36.334C266.574 36.9721 267.642 37.8861 268.386 39.0759C269.131 40.2457 269.493 41.6305 269.472 43.2304C269.452 44.8103 269.054 46.1752 268.279 47.3252C267.504 48.4752 266.412 49.3611 265.004 49.9828C263.616 50.5848 261.962 50.8733 260.042 50.8483L253.743 50.7662L256.416 48.2208L256.311 56.2901L250.372 56.2128ZM256.408 48.8508L253.804 46.0866L259.743 46.164C260.983 46.1801 261.907 45.9221 262.514 45.39C263.141 44.8581 263.46 44.1122 263.473 43.1523C263.486 42.1724 263.186 41.4084 262.573 40.8604C261.98 40.3126 261.063 40.0306 259.823 40.0145L253.884 39.9372L256.559 37.2418L256.408 48.8508ZM275.808 56.544L276.02 40.2554L269.571 40.1714L269.632 35.4618L288.441 35.7067L288.379 40.4163L281.96 40.3327L281.748 56.6214L275.808 56.544Z" fill="#F0DB4F"/>
</svg>
