<svg width="338" height="79" viewBox="0 0 338 79" fill="none" xmlns="http://www.w3.org/2000/svg">
<rect width="338" height="79" rx="39.5" fill="#FF9A00"/>
<path d="M58.49 50V29H63.35V50H58.49ZM68.0038 50V29H72.8638V46.04H83.3938V50H68.0038ZM85.7792 50V29H90.6392V46.04H101.169V50H85.7792ZM112.65 50.36C109.67 50.36 107.34 49.53 105.66 47.87C103.98 46.21 103.14 43.84 103.14 40.76V29H108V40.58C108 42.58 108.41 44.02 109.23 44.9C110.05 45.78 111.2 46.22 112.68 46.22C114.16 46.22 115.31 45.78 116.13 44.9C116.95 44.02 117.36 42.58 117.36 40.58V29H122.16V40.76C122.16 43.84 121.32 46.21 119.64 47.87C117.96 49.53 115.63 50.36 112.65 50.36ZM133.533 50.36C131.853 50.36 130.243 50.14 128.703 49.7C127.163 49.24 125.923 48.65 124.983 47.93L126.633 44.27C127.533 44.91 128.593 45.44 129.813 45.86C131.053 46.26 132.303 46.46 133.563 46.46C134.523 46.46 135.293 46.37 135.873 46.19C136.473 45.99 136.913 45.72 137.193 45.38C137.473 45.04 137.613 44.65 137.613 44.21C137.613 43.65 137.393 43.21 136.953 42.89C136.513 42.55 135.933 42.28 135.213 42.08C134.493 41.86 133.693 41.66 132.813 41.48C131.953 41.28 131.083 41.04 130.203 40.76C129.343 40.48 128.553 40.12 127.833 39.68C127.113 39.24 126.523 38.66 126.063 37.94C125.623 37.22 125.403 36.3 125.403 35.18C125.403 33.98 125.723 32.89 126.363 31.91C127.023 30.91 128.003 30.12 129.303 29.54C130.623 28.94 132.273 28.64 134.253 28.64C135.573 28.64 136.873 28.8 138.153 29.12C139.433 29.42 140.563 29.88 141.543 30.5L140.043 34.19C139.063 33.63 138.083 33.22 137.103 32.96C136.123 32.68 135.163 32.54 134.223 32.54C133.283 32.54 132.513 32.65 131.913 32.87C131.313 33.09 130.883 33.38 130.623 33.74C130.363 34.08 130.233 34.48 130.233 34.94C130.233 35.48 130.453 35.92 130.893 36.26C131.333 36.58 131.913 36.84 132.633 37.04C133.353 37.24 134.143 37.44 135.003 37.64C135.883 37.84 136.753 38.07 137.613 38.33C138.493 38.59 139.293 38.94 140.013 39.38C140.733 39.82 141.313 40.4 141.753 41.12C142.213 41.84 142.443 42.75 142.443 43.85C142.443 45.03 142.113 46.11 141.453 47.09C140.793 48.07 139.803 48.86 138.483 49.46C137.183 50.06 135.533 50.36 133.533 50.36ZM149.491 50V32.96H142.771V29H161.071V32.96H154.351V50H149.491ZM163.356 50V29H172.446C174.326 29 175.946 29.31 177.306 29.93C178.666 30.53 179.716 31.4 180.456 32.54C181.196 33.68 181.566 35.04 181.566 36.62C181.566 38.18 181.196 39.53 180.456 40.67C179.716 41.79 178.666 42.65 177.306 43.25C175.946 43.85 174.326 44.15 172.446 44.15H166.056L168.216 42.02V50H163.356ZM176.706 50L171.456 42.38H176.646L181.956 50H176.706ZM168.216 42.56L166.056 40.28H172.176C173.676 40.28 174.796 39.96 175.536 39.32C176.276 38.66 176.646 37.76 176.646 36.62C176.646 35.46 176.276 34.56 175.536 33.92C174.796 33.28 173.676 32.96 172.176 32.96H166.056L168.216 30.65V42.56ZM182.326 50L191.686 29H196.486L205.876 50H200.776L193.096 31.46H195.016L187.306 50H182.326ZM187.006 45.5L188.296 41.81H199.096L200.416 45.5H187.006ZM211.02 50V32.96H204.3V29H222.6V32.96H215.88V50H211.02ZM224.885 50V29H229.745V50H224.885ZM244.599 50.36C242.939 50.36 241.399 50.09 239.979 49.55C238.579 49.01 237.359 48.25 236.319 47.27C235.299 46.29 234.499 45.14 233.919 43.82C233.359 42.5 233.079 41.06 233.079 39.5C233.079 37.94 233.359 36.5 233.919 35.18C234.499 33.86 235.309 32.71 236.349 31.73C237.389 30.75 238.609 29.99 240.009 29.45C241.409 28.91 242.929 28.64 244.569 28.64C246.229 28.64 247.749 28.91 249.129 29.45C250.529 29.99 251.739 30.75 252.759 31.73C253.799 32.71 254.609 33.86 255.189 35.18C255.769 36.48 256.059 37.92 256.059 39.5C256.059 41.06 255.769 42.51 255.189 43.85C254.609 45.17 253.799 46.32 252.759 47.3C251.739 48.26 250.529 49.01 249.129 49.55C247.749 50.09 246.239 50.36 244.599 50.36ZM244.569 46.22C245.509 46.22 246.369 46.06 247.149 45.74C247.949 45.42 248.649 44.96 249.249 44.36C249.849 43.76 250.309 43.05 250.629 42.23C250.969 41.41 251.139 40.5 251.139 39.5C251.139 38.5 250.969 37.59 250.629 36.77C250.309 35.95 249.849 35.24 249.249 34.64C248.669 34.04 247.979 33.58 247.179 33.26C246.379 32.94 245.509 32.78 244.569 32.78C243.629 32.78 242.759 32.94 241.959 33.26C241.179 33.58 240.489 34.04 239.889 34.64C239.289 35.24 238.819 35.95 238.479 36.77C238.159 37.59 237.999 38.5 237.999 39.5C237.999 40.48 238.159 41.39 238.479 42.23C238.819 43.05 239.279 43.76 239.859 44.36C240.459 44.96 241.159 45.42 241.959 45.74C242.759 46.06 243.629 46.22 244.569 46.22ZM259.381 50V29H263.401L275.791 44.12H273.841V29H278.641V50H274.651L262.231 34.88H264.181V50H259.381Z" fill="#221F57"/>
</svg>
