<svg width="109" height="97" viewBox="0 0 109 97" fill="none" xmlns="http://www.w3.org/2000/svg">
<g clip-path="url(#clip0_564_16)">
<path fill-rule="evenodd" clip-rule="evenodd" d="M52.0359 8.07104C28.2835 8.07104 9.98394 26.1387 11.1627 48.4263C12.3414 70.7138 32.5521 88.7815 56.3046 88.7815C80.057 88.7815 98.3566 70.7138 97.1778 48.4263C95.9991 26.1387 75.7884 8.07104 52.0359 8.07104ZM2.56117 48.4263C1.14668 21.6812 23.1062 0 51.6091 0C80.1119 0 104.365 21.6812 105.779 48.4263C107.194 75.1713 85.2343 96.8525 56.7314 96.8525C28.2286 96.8525 3.97567 75.1713 2.56117 48.4263Z" fill="black"/>
<path fill-rule="evenodd" clip-rule="evenodd" d="M46.1027 91.7511C45.6599 91.2472 45.4225 86.7585 45.3905 78.2853C40.9428 78.4298 38.1126 78.1397 36.8999 77.4151C35.0806 76.3281 33.1398 72.976 31.4498 70.6136C29.7601 68.2512 26.2672 67.8777 24.8367 67.3497C23.4062 66.8214 22.9403 64.6687 28.6458 66.2968C34.3511 67.9249 34.8597 72.3586 36.6873 73.3953C38.5147 74.432 42.7289 73.9784 44.6059 73.1479C46.4831 72.3174 46.1781 69.2252 46.4559 68.0002C46.8285 66.8567 45.2887 66.6031 45.2547 66.5938C43.3791 66.5938 33.4206 64.5833 30.2411 55.6311C27.0614 46.6791 30.2379 40.8278 31.9645 38.3125C33.1158 36.6355 32.8171 33.0617 31.0685 27.5905C36.3326 26.9553 40.5036 28.5199 43.5814 32.2846C43.5854 32.3062 47.2443 30.1803 53.2047 30.1803C59.1649 30.1803 61.3709 31.9119 63.0226 32.2846C64.6742 32.6573 65.611 25.6946 75.7897 27.5905C73.8908 31.4711 72.3852 36.3201 73.8354 38.3125C75.2859 40.3048 80.8995 46.6402 78.1324 55.6311C76.2879 61.6253 72.2318 65.2795 65.9643 66.5938C65.2492 66.8113 64.9044 67.1624 64.93 67.6467C64.9684 68.3733 65.9551 68.4526 67.5503 71.8561C68.6139 74.1251 69.0248 80.6058 68.783 91.2979C66.7639 91.7864 65.1904 92.1143 64.0623 92.2819C62.0623 92.5792 59.8824 92.7458 57.7355 92.8102C55.5885 92.8746 54.8413 92.8673 51.8544 92.6076C49.8635 92.4345 47.9462 92.149 46.1027 91.7511Z" fill="black"/>
</g>
<defs>
<clipPath id="clip0_564_16">
<rect width="103.218" height="96.9879" fill="white" transform="matrix(1 0 0.0528143 0.998604 0 0)"/>
</clipPath>
</defs>
</svg>
