<svg id="Layer_1" data-name="Layer 1" xmlns="http://www.w3.org/2000/svg" viewBox="0 0 44 57.9"><defs><style>.cls-1{fill:none;stroke:#fff;stroke-miterlimit:10;}.cls-2{fill:#fff;}.cls-3{fill:#422600;}</style></defs><title>main-blow-dandelien</title><path class="cls-1" d="M1090.1,530.5a34.9,34.9,0,0,0,4-14.8,33.9,33.9,0,0,0-4-17.6" transform="translate(-1067.9 -476)"/><path class="cls-2" d="M1090,498.6a10.4,10.4,0,0,1-6-1.8,27.3,27.3,0,0,1-4.8-4.1,47,47,0,0,1-3.8-5c-1.1-1.7-2.1-3.5-3.1-5.3a56.9,56.9,0,0,0,3.3,5.2,36.7,36.7,0,0,0,4,4.7,21.2,21.2,0,0,0,4.7,3.8,10.6,10.6,0,0,0,5.7,1.5Z" transform="translate(-1067.9 -476)"/><path class="cls-2" d="M1089.8,498.1a83.7,83.7,0,0,1-4.8-10,44.8,44.8,0,0,1-1.6-5.2,12.6,12.6,0,0,1-.4-2.7,4.2,4.2,0,0,1,.7-2.7,5,5,0,0,0-.6,2.6,21.6,21.6,0,0,0,.5,2.7,38.4,38.4,0,0,0,1.9,5.1,81.2,81.2,0,0,0,5.1,9.7Z" transform="translate(-1067.9 -476)"/><polygon class="cls-2" points="21.7 21.2 21.2 0 22.7 21.1 21.7 21.2"/><path class="cls-2" d="M1090,498.3a86.7,86.7,0,0,0,4.9-9.6,51.7,51.7,0,0,0,1.8-5.1,12.7,12.7,0,0,0,.4-2.6,4.9,4.9,0,0,0-.3-2.7,6.2,6.2,0,0,1,.5,2.7,25.1,25.1,0,0,1-.4,2.7,50.8,50.8,0,0,1-1.5,5.2,88.3,88.3,0,0,1-4.5,9.9Z" transform="translate(-1067.9 -476)"/><path class="cls-2" d="M1090.1,498.1a69.2,69.2,0,0,0,10.2-5.9,23.3,23.3,0,0,0,4.5-3.8,8.1,8.1,0,0,0,1.7-2.4,3.8,3.8,0,0,0,.4-2.8,4.2,4.2,0,0,1-.3,2.9,13.2,13.2,0,0,1-1.6,2.5,27.9,27.9,0,0,1-4.4,4,69.2,69.2,0,0,1-10.1,6.4Z" transform="translate(-1067.9 -476)"/><path class="cls-2" d="M1090.2,497.6a56,56,0,0,0,5.9,1.2,40.9,40.9,0,0,0,6.1.3,16.5,16.5,0,0,0,5.8-1.4,8.1,8.1,0,0,0,4-4.5,7.9,7.9,0,0,1-3.9,4.7,15.4,15.4,0,0,1-5.9,1.7,32.1,32.1,0,0,1-6.2-.1,40.9,40.9,0,0,1-6.1-1Z" transform="translate(-1067.9 -476)"/><path class="cls-2" d="M1090.3,498.3a32.3,32.3,0,0,1-5.8,2.4,21.5,21.5,0,0,1-6.2.8,12.4,12.4,0,0,1-6-1.5,12.9,12.9,0,0,1-4.4-4.3,12.1,12.1,0,0,0,4.6,4.1,11.7,11.7,0,0,0,5.8,1.2,20.9,20.9,0,0,0,6-1,34.3,34.3,0,0,0,5.5-2.5Z" transform="translate(-1067.9 -476)"/><ellipse class="cls-3" cx="1090.5" cy="528.6" rx="5.6" ry="3.2" transform="translate(-863.7 879.1) rotate(-68.9)"/></svg>