<svg width="46" height="45" viewBox="0 0 46 45" fill="none" xmlns="http://www.w3.org/2000/svg">
<path d="M0.500002 22.5C0.500001 10.36 10.5632 0.499999 23 0.499998C35.4368 0.499997 45.5 10.36 45.5 22.5C45.5 34.64 35.4368 44.5 23 44.5C10.5632 44.5 0.500003 34.64 0.500002 22.5Z" stroke="white"/>
<g clip-path="url(#clip0_501_14834)">
<path d="M18.7908 14.1445C18.6397 14.1445 18.485 14.2043 18.3689 14.3203C18.1369 14.5523 18.1369 14.932 18.3689 15.1641L26.3107 23.1059L18.485 30.9316C18.2529 31.1637 18.2529 31.5434 18.485 31.7754C18.717 32.0074 19.0967 32.0074 19.3287 31.7754L27.5799 23.5277C27.8119 23.2957 27.8119 22.916 27.5799 22.684L19.2162 14.3203C19.0967 14.2008 18.9455 14.1445 18.7908 14.1445Z" fill="white"/>
</g>
<defs>
<clipPath id="clip0_501_14834">
<rect width="18" height="18" fill="white" transform="translate(32 14) rotate(90)"/>
</clipPath>
</defs>
</svg>
