<svg width="440" height="613" viewBox="0 0 440 613" fill="none" xmlns="http://www.w3.org/2000/svg">
<path d="M0.441882 586C0.471882 591.23 0.571882 583.18 0.501882 589.42C0.441882 588.71 0.401882 587.7 0.441882 586Z" fill="white"/>
<path d="M436.391 572.04C436.011 555.19 436.391 532.99 436.151 514.53C436.131 512.37 436.361 515.09 436.311 510.21C436.011 492.32 436.191 464.13 436.421 442.34L436.481 443.66C436.521 439.51 436.331 434.44 436.351 430.04C436.391 430 436.411 431.45 436.461 430.43C436.341 429.32 436.411 422.48 436.321 420.61C436.371 418.87 436.461 419.04 436.511 416.8L436.381 414.28C436.061 407.28 436.401 397.28 436.241 387.73C436.271 388.19 436.301 389.13 436.331 388.37C436.141 373.04 436.171 353.86 436.101 336.71C436.151 337.39 436.231 338.03 436.291 337.02C436.151 336.18 436.111 330.88 436.081 326.29C436.231 324.22 435.951 318.41 436.031 313.02L436.061 313.48C435.911 309.5 436.151 307.57 435.971 304.34L436.081 301.81C435.871 300.06 436.191 296.05 436.081 292.76L436.041 292.87C435.991 289.77 436.091 288.15 436.061 285.27L436.081 285C436.031 278.26 436.141 274.34 435.981 274.5C436.111 272.14 436.041 281.03 436.221 277.32C436.181 266.23 436.131 254.97 436.091 243.69C436.091 238.05 436.081 232.41 436.081 226.78C436.081 223.97 436.081 221.15 436.081 218.35C436.011 215.55 435.941 212.75 435.871 209.96C435.861 208.69 435.881 207.65 435.851 206.86C435.811 206.07 435.791 205.52 435.801 205.24C435.711 204.13 435.531 202.04 435.361 199.97C435.181 197.9 435.041 195.86 434.831 194.86C434.931 195.6 434.731 193.42 434.591 192.25C434.361 190.23 434.181 189.14 433.991 187.99C433.781 186.85 433.661 185.65 433.271 183.45C433.641 185.19 433.761 185.78 433.741 185.18C433.341 183.32 432.931 181.13 432.511 178.86C432.091 176.59 431.701 174.23 431.121 172.05C431.301 172.72 431.561 173.78 431.571 173.6C430.951 171.22 430.451 169.03 429.981 166.92C429.741 165.86 429.521 164.82 429.271 163.79C428.971 162.77 428.671 161.75 428.371 160.72L428.901 162.25C427.111 155.54 428.151 160.33 426.581 154.54C427.001 155.92 426.901 155.42 427.001 155.66C425.261 150.34 422.321 141.78 420.111 136.65C420.241 136.96 420.241 136.87 420.241 136.87C419.171 134.02 417.861 131.2 416.551 128.3C415.891 126.85 415.221 125.39 414.551 123.9C413.801 122.45 413.031 120.99 412.261 119.51C411.181 117.33 412.831 120.11 409.851 114.41C409.801 114.7 404.341 104.98 406.051 108.37C404.751 105.95 402.821 102.97 401.041 100.17C400.141 98.7799 399.311 97.3999 398.501 96.2499C397.671 95.0999 396.951 94.1099 396.421 93.3599C397.911 95.3299 395.051 91.0499 397.711 94.7599L395.801 91.8799C396.161 92.2499 397.841 94.7899 397.281 93.8499C396.611 92.9199 395.291 91.0999 394.001 89.2999C393.681 88.8499 393.351 88.4099 393.041 87.9699C392.711 87.5499 392.391 87.1499 392.101 86.7799C391.521 86.0299 391.021 85.3999 390.711 84.9999C389.351 83.3799 388.041 81.8199 386.521 79.9999C384.931 78.2499 383.111 76.2599 380.861 73.6699C383.031 76.0599 379.811 72.1399 381.271 73.7799L379.631 72.0299L377.911 70.3499L374.481 67.0099C372.891 65.3699 374.261 66.5299 371.911 64.2099C372.001 64.3599 370.941 63.3899 370.181 62.7299C369.561 62.1399 363.361 56.2299 362.591 55.4899C361.881 54.7799 365.431 57.8999 363.561 56.1899C360.351 53.4499 360.211 53.3299 357.001 50.5899L356.961 50.5199C354.791 48.7699 350.461 45.4999 352.781 47.4499C354.301 48.6499 352.271 46.9099 354.491 48.7199C353.691 48.1599 352.321 47.1199 350.731 45.9099C349.931 45.3099 349.101 44.6299 348.231 43.9899C347.351 43.3599 346.451 42.7299 345.591 42.1199C346.781 42.9299 346.671 42.7899 347.171 43.0799C344.831 41.4799 342.421 39.8299 339.951 38.1399C337.411 36.5499 334.801 34.9099 332.121 33.2299C331.991 33.2499 334.191 34.3699 334.951 34.9099C328.211 30.3799 320.451 26.5499 314.511 23.3699C315.501 23.8599 314.991 23.7499 314.931 23.6999C313.201 22.7999 312.381 22.3499 311.691 22.0299C311.011 21.6899 310.481 21.4299 309.311 20.9299C309.111 20.7599 306.391 19.6299 303.991 18.5799C302.741 18.0699 303.381 18.2699 305.461 19.1999C303.821 18.3999 299.541 16.8099 294.731 14.9399C293.541 14.4499 292.281 14.0199 291.011 13.6099C289.751 13.1799 288.481 12.7599 287.251 12.3399C286.011 11.9199 284.811 11.4999 283.661 11.1099C282.511 10.7099 281.401 10.4299 280.391 10.1199C280.531 10.2099 275.361 8.87991 273.501 8.33991L274.261 8.43991C273.841 8.30991 273.241 8.10991 272.571 7.93991C271.891 7.77991 271.141 7.60991 270.441 7.43991C269.031 7.10991 267.811 6.82991 267.661 6.73991C265.621 6.34991 269.521 7.18991 273.221 8.04991C276.891 9.05991 280.381 10.0099 277.671 9.29991C276.991 9.05991 275.101 8.56991 273.531 8.15991C271.961 7.74991 270.691 7.54991 271.301 7.58991C269.401 7.16991 267.531 6.75991 265.671 6.34991C263.821 5.93991 262.001 5.49991 260.171 5.15991C261.231 5.36991 263.311 5.55991 260.211 5.01991C254.761 4.06991 258.651 4.79991 254.231 4.04991L251.451 3.60991C251.251 3.69991 246.541 2.96991 248.571 3.34991C247.911 3.16991 240.591 2.38991 241.171 2.27991L241.951 2.22991C240.761 2.05991 239.781 2.03991 238.871 2.01991C237.951 1.98991 237.101 1.96991 236.161 1.93991C235.851 1.89991 235.221 1.82991 235.351 1.80991C235.151 1.90991 233.731 1.78991 232.001 1.64991C231.141 1.58991 230.201 1.47991 229.291 1.44991C228.391 1.42991 227.521 1.42991 226.811 1.44991C224.301 1.34991 221.121 1.25991 218.261 1.18991C215.411 1.24991 212.881 1.29991 211.701 1.25991C210.741 1.29991 209.801 1.33991 208.861 1.37991C207.921 1.40991 206.981 1.45991 206.031 1.55991C204.131 1.72991 202.151 1.88991 199.961 2.02991C200.831 1.93991 202.031 1.84991 202.271 1.77991C199.511 1.91991 198.841 2.02991 196.321 2.25991C196.881 2.14991 190.831 2.82991 187.771 3.12991C183.971 3.66991 185.301 3.65991 184.931 3.77991C181.451 4.20991 174.281 5.69991 170.001 6.62991C171.281 6.29991 175.431 5.26991 172.311 5.92991C170.581 6.21991 168.861 6.65991 166.891 7.16991C165.911 7.43991 164.851 7.67991 163.711 7.99991C162.581 8.33991 161.341 8.68991 159.981 9.05991L161.361 8.85991C158.911 9.43991 153.391 11.2299 153.891 10.8999C152.121 11.5699 147.561 12.9799 148.211 12.9399C143.751 14.2499 138.561 16.4699 133.731 18.3599C131.361 19.4199 129.091 20.4299 127.091 21.3299C126.081 21.7599 125.141 22.1699 124.291 22.5399C123.451 22.9399 122.701 23.2899 122.051 23.5799C120.881 24.2099 117.911 25.6999 118.561 25.4699C120.571 24.5499 121.271 23.9999 122.041 23.6899C120.981 24.2399 120.771 24.3999 120.671 24.4799C118.081 25.7599 116.061 26.7799 118.421 25.4099C116.981 26.1199 115.901 26.6799 114.971 27.1699C114.061 27.6999 113.321 28.1799 112.531 28.6799C110.951 29.6899 109.171 30.7899 105.631 32.8199C105.901 32.5599 105.371 32.8699 103.361 34.1699L99.6109 36.7199C97.3809 38.1299 96.7309 38.5099 96.6209 38.5299C96.5009 38.5499 96.9109 38.1799 96.8209 38.1699C94.5309 39.8199 91.7109 41.8199 90.7209 42.6399C89.7709 43.2699 88.7809 43.8599 87.8509 44.5299C89.8809 43.0799 86.0709 46.0299 85.0409 46.8699L86.0709 46.0199C85.6309 46.2999 83.0809 48.3399 81.7909 49.3699C82.1409 49.1899 84.7809 47.1599 86.2309 46.0499C85.1109 46.9699 83.3809 48.3799 81.9009 49.5899C82.1209 49.3499 81.1809 50.0299 80.0109 50.9799C78.8709 51.9699 77.4509 53.1899 76.6009 53.9199C74.6409 55.5899 74.4809 55.8999 73.9109 56.3899C73.8609 56.3899 73.0709 57.0699 72.4709 57.5899C71.8909 58.1299 71.5009 58.4899 72.2009 57.7699C72.8309 57.1599 73.7509 56.4999 74.8109 55.4999C74.1509 56.0399 73.8409 56.2499 73.3709 56.6299C72.9009 56.9999 72.2609 57.5299 71.0209 58.7899C69.1409 60.6599 71.6809 58.4999 67.9809 61.9099C68.9209 60.9699 69.0609 60.7699 69.7709 60.0399L66.3209 63.2499L66.2509 63.4699C65.7709 63.8899 66.0809 63.5799 65.8609 63.7699C65.6309 64.0399 65.1809 64.4599 64.6609 65.0199C64.1409 65.5699 63.5309 66.2199 62.9309 66.8599C61.7309 68.1399 60.5509 69.3899 60.2309 69.8199C59.4009 70.6699 58.5309 71.5699 57.6709 72.4599C56.8509 73.3799 56.0309 74.2999 55.2809 75.1399L55.5609 74.7999C54.6309 75.8299 53.5709 77.0399 52.5509 78.2299C51.5309 79.4099 50.5709 80.5699 49.9009 81.5299L49.9609 81.4199C49.0209 82.5999 46.8209 85.4299 45.7009 86.9599C44.4809 88.4299 44.2109 88.6399 43.9309 88.8999C43.6509 89.1599 43.3709 89.4699 42.2009 91.2399C39.9509 94.4099 38.8409 96.3199 39.8009 95.0899C39.2909 95.7999 38.7609 96.5099 38.2609 97.2499C37.7809 98.0099 37.2909 98.7699 36.7909 99.5399C35.8109 101.08 34.8209 102.64 33.8409 104.18C32.8309 105.7 31.9609 107.3 31.0709 108.82C30.1909 110.34 29.3209 111.81 28.4709 113.19C28.0209 114.09 28.3309 113.53 27.3609 115.36C22.4609 124.37 18.0409 134.87 14.9909 142.43C16.0409 139.65 14.9609 142.2 14.8809 142.24C14.4509 143.39 14.2009 144.08 14.0109 144.59C13.8209 145.1 13.7009 145.42 13.6409 145.87C13.8309 145.67 13.7509 145.91 14.7709 143.21C13.7909 146.1 12.5609 149.75 11.4409 153.07C10.4409 156.43 9.53092 159.47 9.04092 161.09C9.55092 159.47 9.22092 160.74 8.88092 162.03C8.87092 161.8 8.54092 162.76 8.12092 164.2C7.76092 165.65 7.33092 167.59 6.97092 169.25L6.96092 169.74L6.36092 171.88C6.23092 172.52 6.20092 172.89 6.09092 173.5C5.97092 174.11 5.80092 174.97 5.48092 176.63C5.41092 176.79 5.34092 176.98 5.20092 177.59C4.93092 179.33 4.60092 181.43 4.26092 183.57C3.86092 185.69 3.70092 187.89 3.39092 189.78L2.85092 192.87C2.66092 194.49 2.40092 197.23 2.80092 194.38C2.54092 195.99 2.43092 197.48 2.32092 198.82C2.20092 200.16 2.10092 201.36 2.00092 202.42C1.81092 204.54 1.66092 206.1 1.52092 207.13C1.50092 209.94 1.48092 213.07 1.46092 216.39C1.40092 219.7 1.50092 223.23 1.50092 226.8C1.51092 233.94 1.52092 241.32 1.52092 247.88L1.45092 247.49C1.38092 251.01 1.58092 249.32 1.53092 251.78C1.46092 250.64 1.38092 254.46 1.29092 251.7C1.21092 256.74 1.42092 258.19 1.45092 261.47C1.55092 261.97 1.39092 258.83 1.51092 259.47C1.54092 260.03 1.44092 266.44 1.58092 267.23C1.52092 268.49 1.42092 267.51 1.36092 266.83L1.43092 269.91C1.26092 273.68 1.13092 261.33 0.920924 265.28L0.940924 268.12C0.790923 270.83 0.770924 260.61 0.720924 267.73C0.790924 270.82 1.00092 273.47 1.07092 270.71C1.11092 277.14 1.42092 273.69 1.40092 280.61C1.31092 282.5 1.38092 275.07 1.26092 276.4C1.14092 279.66 1.33092 282.94 1.28092 285.84C1.33092 282.62 1.48092 285.34 1.51092 287.43C1.44092 290.95 1.37092 285.15 1.36092 290.13C1.44092 290.95 1.51092 295.54 1.57092 291.57C1.76092 293.37 1.52092 296.76 1.66092 299.47C1.53092 301.1 1.35092 294.34 1.28092 299.81C1.41092 298.94 1.46092 306.57 1.65092 303.67C1.61092 305.82 1.51092 306.04 1.43092 304.48C1.35092 307.55 1.67092 311.92 1.41092 312.93L1.56092 314C1.52092 314.96 1.47092 316.33 1.41092 317.9C1.41092 320.61 1.59092 326.61 1.39092 326.36C1.41092 327.23 1.40092 333.4 1.54092 331.02C1.62092 327.18 1.44092 326.61 1.63092 324.48C1.48092 327.19 1.65092 330.01 1.70092 332.23L1.62092 332.59C1.65092 333.91 1.63092 336.95 1.72092 337.77C1.68092 336.76 1.62092 337.28 1.60092 338.34L1.72092 339.72C1.78092 345.09 1.51092 340.98 1.55092 346.2L1.46092 342.23C1.48092 343.1 1.37092 344.88 1.41092 347.37C1.50092 348.35 1.65092 350.16 1.73092 351C1.78092 353.94 1.61092 352.32 1.72092 355.21L1.59092 351.42C1.55092 350.85 1.41092 353.98 1.42092 357.91C1.46092 360.42 1.61092 364.32 1.67092 360.35C1.67092 362.33 1.61092 365.09 1.53092 363.52C1.57092 367.99 1.64092 362.94 1.71092 366.79C1.66092 368.37 1.52092 373.27 1.43092 376.24L1.25092 372.22V374.9C1.11092 371.43 1.14092 376.65 0.990924 374.7C0.970924 376.52 1.02092 378.74 1.06092 380.5C1.30092 375.16 1.39092 386.49 1.61092 384.94C1.67092 392.26 1.07092 389.51 1.42092 397.15C1.48092 395.9 1.65092 399.5 1.58092 394.89C1.56092 399.44 1.80092 397.98 1.71092 403.35C1.62092 399.37 1.49092 407.62 1.35092 401.87C1.42092 402.26 1.41092 398.67 1.38092 397.78C1.30092 399.66 1.16092 397.39 1.16092 402.05C1.18092 404.89 1.19092 408.79 1.30092 408.23C1.43092 408.11 1.29092 403.88 1.41092 405.71C1.45092 411.38 1.26092 412.32 1.49092 414.67C1.47092 411.09 1.60092 410.2 1.69092 410.26L1.74092 414.42L1.66092 413.61C1.60092 420.28 1.81092 415.58 1.79092 422.05L1.62092 425.08C1.48092 423.54 1.68092 415.68 1.45092 416.83C1.44092 421.03 1.56092 422.43 1.50092 426.39C1.49092 425.51 1.47092 424.3 1.45092 423.43C1.44092 424.94 1.13092 426.44 1.31092 432.43C1.38092 435.52 1.39092 433.25 1.48092 433.32C1.55092 440.06 1.57092 442.08 1.61092 446.43C1.44092 445.54 1.59092 454.11 1.42092 449.31C1.52092 447.1 1.51092 437.34 1.35092 434.95C1.15092 437.41 1.38092 429.65 1.17092 428.2C1.17092 433.61 0.970923 433.35 0.840923 434.22C0.830923 435.72 0.890924 437.18 0.910924 438.07C1.03092 438.7 1.03092 436.74 1.16092 436.63C1.13092 442.67 1.20092 448.48 1.31092 451.81C1.25092 453.83 1.13092 453.19 1.12092 450.8C1.16092 457.98 1.14092 465.66 1.10092 472.48C1.30092 468.07 1.15092 480.09 1.31092 477.08C1.35092 473.42 1.50092 470.28 1.59092 472.3C1.58092 474.59 1.50092 472.23 1.46092 473.18C1.57092 476.09 1.29092 477.7 1.46092 480.56C1.40092 474 1.22092 479.28 1.06092 478.08C1.15092 482.81 0.950924 477.88 0.950924 482.55C1.04092 487.27 1.11092 493.06 1.14092 498.3C0.990924 504.88 1.14092 514.97 1.14092 520.85C1.06092 523.92 0.880924 521.84 0.850924 525.18C0.850924 529.09 1.04092 522.27 0.960923 528.07L0.920924 527.51C0.960924 529.26 0.800923 538.14 1.05092 539.86L0.860924 538.07C0.840924 539.15 0.890924 540.16 0.910924 541.05C0.850924 541.09 0.790924 542.35 0.750924 540.59C0.620924 544.17 0.770923 548.11 0.780923 551.99L0.890924 549.49C0.980924 556.16 0.870924 560.61 0.910924 567.05L0.800924 566.86L0.870924 570.69C0.760924 569.76 0.690923 573.27 0.780923 575.3L0.510924 565.34C0.580923 562.57 0.640924 568.36 0.750924 566.63C0.850924 565.16 0.820924 559.19 0.710923 558.23C0.700924 560.51 0.720923 560.63 0.760924 562.39C0.610924 563.14 0.610924 559.68 0.510924 557.97C0.520923 559.16 0.470923 560.87 0.520923 561.12C0.440924 558.78 0.430924 556.4 0.430924 552.49C0.490924 555.14 0.530923 551.05 0.570924 552.05C0.430924 551.74 0.390924 548 0.430924 543.17C0.590924 539.72 0.330924 534.09 0.370924 528.49C0.510924 530.76 0.620924 533.66 0.670924 537.07C0.700924 533.55 0.700924 533.16 0.740924 529.63C0.640924 527.93 0.480924 526.71 0.420924 522.12L0.520923 521.87C0.470923 517.71 0.320924 517.71 0.350924 512.41C0.370924 503.34 0.400924 494.01 0.410924 487.09L0.510924 486.83C0.290924 482.98 0.430924 474 0.330924 468.82C0.430924 460 0.230924 449.66 0.410924 445.14C0.330923 429.58 0.260924 415.97 0.290924 399.85L0.440924 402.56C0.330923 399.67 0.520923 400.68 0.500924 397.85C0.380924 401.1 0.350924 393.92 0.260924 391.92C0.370924 384.74 0.250924 375.52 0.150924 369.16L0.250924 368.91C0.0609235 362.48 0.230924 354.8 0.260924 346.78C0.300923 345.86 0.400923 344.41 0.390924 342.02C0.230924 337.67 0.240924 335.4 0.140924 329.02C0.140924 324.36 0.180924 316.81 0.240924 312.08C0.000923514 294.58 0.150924 276.69 0.0109235 258.49L0.130924 257.17C0.000923514 248.35 -0.00907648 238.51 0.000923516 228.99C0.000923516 226.61 0.0109235 224.25 0.0109235 221.93C0.0109235 220.77 0.0109235 219.62 0.0109235 218.49C0.0409235 217.35 0.0709235 216.22 0.0909235 215.11C0.140924 212.89 0.190924 210.73 0.240924 208.65C0.250924 208.13 0.260924 207.62 0.270924 207.11C0.310924 206.6 0.340924 206.1 0.380924 205.61C0.450924 204.62 0.520923 203.65 0.580923 202.71L0.670924 204.18C0.880924 201.82 1.07092 199.13 1.18092 197.18C1.28092 195.22 1.44092 194.02 1.27092 194.61C1.60092 192.26 1.95092 189.31 2.28092 186.59C2.42092 185.22 2.67092 183.93 2.89092 182.78C3.10092 181.63 3.30092 180.64 3.48092 179.91C3.93092 177.52 4.16092 176.06 4.38092 174.69C4.63092 173.33 4.90092 172.08 5.33092 170.11C5.89092 167.74 6.37092 165.75 6.79092 163.95C7.30092 162.17 7.75092 160.58 8.20092 159.01C8.64092 157.44 9.08092 155.88 9.56092 154.17C10.0509 152.46 10.7209 150.63 11.4309 148.45L10.6909 150.6C10.4109 151.57 10.4609 151.68 11.2109 149.52C11.7409 147.9 12.7209 144.91 13.5009 142.76C14.3309 140.63 14.8309 139.27 14.0909 140.82C17.5209 131.65 23.0309 119.79 27.8609 111.57C27.4009 112.24 28.5809 110.15 29.0509 109.25C33.2609 101.75 38.5109 94.3899 42.4409 88.7699C43.2609 87.6699 41.2709 90.6099 43.3009 87.7699C44.5509 86.1199 43.2609 87.6799 44.8009 85.6499C53.1509 74.4999 63.1509 64.2299 72.5409 55.7699C80.8309 48.1699 90.0409 41.2299 99.5609 34.9999C100.761 34.2299 101.951 33.4699 103.151 32.6999L104.941 31.5499C105.541 31.1799 106.161 30.8399 106.771 30.4899C109.221 29.0799 111.661 27.6799 114.081 26.2899C119.051 23.7399 123.911 21.1399 128.871 19.0099L128.671 19.1599C130.301 18.3899 132.071 17.5299 133.931 16.7599C135.811 16.0299 137.741 15.2899 139.631 14.5599C143.381 13.0299 147.091 11.9199 149.771 10.8399C150.581 10.5799 152.131 10.0699 153.331 9.67991C154.541 9.33991 155.401 9.11991 154.801 9.32991C156.171 8.90991 157.831 8.42991 159.671 7.90991C161.511 7.41991 163.511 6.76991 165.641 6.33991C169.881 5.41991 174.401 4.25991 178.501 3.54991C177.751 3.67991 177.321 3.76991 176.461 3.93991C178.531 3.57991 180.531 3.23991 182.521 2.89991C183.511 2.72991 184.491 2.52991 185.481 2.38991C186.471 2.25991 187.461 2.12991 188.451 1.99991C190.441 1.73991 192.441 1.48991 194.491 1.21991C195.001 1.15991 195.521 1.08991 196.041 1.02991C196.561 0.98991 197.091 0.94991 197.621 0.90991C198.681 0.83991 199.771 0.75991 200.871 0.68991C199.981 0.77991 198.351 0.91991 198.091 0.98991C201.501 0.83991 206.151 0.12991 208.041 0.29991C210.001 0.24991 209.431 0.14991 208.221 0.17991C227.581 -0.53009 248.401 0.869911 268.061 5.52991C271.581 6.37991 273.391 6.81991 274.271 7.14991C275.161 7.44991 275.171 7.48991 275.081 7.49991C274.911 7.50991 274.381 7.37991 279.891 8.85991C280.771 9.15991 280.561 8.95991 280.701 9.04991C281.761 9.33991 282.711 9.59991 283.561 9.87991C284.401 10.1999 285.171 10.4799 285.891 10.7499C287.341 11.2999 288.631 11.7899 290.101 12.2199C288.951 11.6799 292.061 12.7999 292.171 12.7399C293.221 13.0899 294.141 13.4599 294.981 13.8099C295.821 14.1599 296.581 14.4699 297.281 14.7599C298.681 15.3399 299.861 15.8199 300.971 16.2799C303.231 17.1499 305.201 18.0899 308.401 19.4799L307.891 19.3299C309.771 20.1399 311.741 20.9399 313.671 21.8599C315.591 22.8199 317.521 23.7899 319.421 24.7499C320.371 25.2299 321.311 25.6999 322.241 26.1699C323.161 26.6499 324.031 27.1699 324.911 27.6399C326.651 28.6099 328.301 29.5099 329.831 30.3199C339.511 36.1099 348.691 42.5099 357.301 49.5099C365.831 56.5999 373.811 64.2299 381.201 72.3499C395.851 88.7099 408.111 107.06 417.271 127.09L418.951 130.81C419.501 132.05 420.091 133.28 420.561 134.55C421.551 137.08 422.551 139.6 423.541 142.12C424.511 144.65 425.301 147.24 426.191 149.79C426.621 151.07 427.071 152.35 427.471 153.64L428.581 157.54L429.691 161.44C430.071 162.74 430.441 164.04 430.721 165.36L432.541 173.25C433.121 175.89 433.521 178.56 434.021 181.21L434.731 185.2L435.241 189.22L435.751 193.24C435.911 194.58 436.131 195.92 436.201 197.27C436.411 199.97 436.611 202.67 436.821 205.37C436.871 206.05 436.941 206.72 436.961 207.4L437.011 209.43L437.111 213.5C437.181 216.22 437.261 218.94 437.231 221.64C437.211 232.48 437.191 243.38 437.171 254.38C436.971 264.69 436.981 265.46 437.061 276.78C437.031 276.32 437.021 275.61 436.991 276.37C437.151 276.94 437.011 284.34 437.161 285.42C437.171 301.69 437.171 316.67 437.181 333.4C437.161 330.75 437.031 329.43 437.041 332.57L437.141 335.86L437.091 336.39C437.111 338.54 437.191 340.89 437.251 338.67C437.391 380.71 437.061 422.06 437.101 463.24C437.031 473.02 437.091 486.93 437.131 497.56C436.911 529.05 436.731 557.43 436.891 589.42C436.911 589.42 436.481 585.24 436.391 572.04Z" fill="white"/>
<path d="M0.431641 579.7C0.511641 578.58 0.561641 574.92 0.671641 577.84C0.591641 578.2 0.501641 580.09 0.431641 579.7Z" fill="white"/>
<path d="M1.27026 481.929C1.25026 481.799 1.30026 480.539 1.32026 480.229C1.33026 481.439 1.40026 482.559 1.35026 483.519C1.34026 482.299 1.31026 482.489 1.27026 481.929Z" fill="white"/>
<path d="M1.32031 456.93C1.39031 457.3 1.45031 462.65 1.46031 465.81L1.32031 456.93Z" fill="white"/>
<path d="M1.62109 433.64C1.68109 431.63 1.72109 432.18 1.71109 434.89C1.68109 435.09 1.66109 434.19 1.62109 433.64Z" fill="white"/>
<path d="M1.45117 431.98C1.45117 430.04 1.49117 429.08 1.53117 428.14C1.48117 428.22 1.58117 432.63 1.45117 431.98Z" fill="white"/>
<path d="M1.67161 381.419C1.66161 380.199 1.60161 377.569 1.68161 376.439C1.62161 377.709 1.77161 382.349 1.67161 381.419Z" fill="white"/>
<path d="M1.56055 357.92C1.56055 357.16 1.58055 356.85 1.56055 355.97C1.59055 354.58 1.65055 356.05 1.65055 357.23L1.56055 357.92Z" fill="white"/>
<path d="M165.35 7.75977C164.53 7.94977 163.71 8.17977 162.91 8.42977L163.25 8.25977C163.94 8.05977 164.64 7.89977 165.35 7.75977Z" fill="white"/>
<path d="M343.551 40.8799C345.641 42.3099 344.951 41.9599 345.281 42.2099C343.411 40.8899 346.021 42.6199 343.551 40.8799Z" fill="white"/>
<path d="M410.161 115.47L409.811 114.79L410.061 114.95L410.161 115.47Z" fill="white"/>
<path d="M437.951 590.49C438.471 589.8 438.541 589.46 438.551 589.41C438.551 589.35 438.481 589.56 438.381 589.72C438.271 589.88 438.181 590.02 438.251 589.91C438.271 589.85 438.391 589.75 438.471 589.5C438.521 589.38 438.571 589.23 438.641 589.05C438.681 588.86 438.701 588.64 438.741 588.38C438.761 588.85 438.701 589.64 437.951 590.49Z" fill="white"/>
<path d="M430.331 581.94C425.311 580.31 419.371 578.89 413.271 577.65C407.171 576.42 400.901 575.4 395.171 574.71C393.831 574.54 395.551 574.55 392.521 574.19C381.411 572.95 363.911 571 350.351 569.74L351.181 569.75C348.601 569.5 345.421 569.46 342.691 569.24C342.671 569.2 343.571 569.25 342.941 569.15C342.241 569.21 337.981 568.86 336.811 568.87C335.731 568.75 335.841 568.67 334.441 568.52L332.861 568.55C328.481 568.59 322.261 567.88 316.301 567.74C316.591 567.72 317.181 567.73 316.711 567.68C307.141 567.37 295.171 566.83 284.461 566.56C284.891 566.53 285.291 566.45 284.661 566.38C284.131 566.51 280.821 566.43 277.951 566.38C276.661 566.2 273.031 566.37 269.661 566.21L269.951 566.18C267.461 566.27 266.261 566.01 264.241 566.14L262.671 565.99C261.571 566.17 259.071 565.81 257.021 565.88L257.091 565.92C255.151 565.94 254.141 565.81 252.351 565.82L252.181 565.79C247.971 565.78 245.521 565.64 245.621 565.8C244.151 565.65 249.701 565.79 247.391 565.58C233.541 565.56 219.261 565.49 205.311 565.58C203.731 565.53 202.721 565.51 202.361 565.46C200.971 565.51 197.111 565.53 195.851 565.64C196.321 565.63 194.951 565.57 194.211 565.57C191.671 565.54 191.441 565.78 188.661 565.75C189.771 565.69 190.141 565.63 189.771 565.58C187.391 565.74 184.221 565.77 181.411 565.86C181.851 565.83 182.521 565.8 182.421 565.75C179.351 565.95 176.821 565.83 174.131 565.98L175.141 565.86C170.801 565.85 173.871 566.08 170.121 566.1C171.021 566.05 170.701 566.02 170.861 565.98C167.371 566.23 161.721 566.33 158.231 566.49C158.441 566.47 158.381 566.45 158.381 566.45C154.581 566.59 150.611 566.66 146.441 566.9C144.921 566.92 146.931 566.65 142.911 566.84C143.061 567.02 136.091 567.19 138.471 567.31C135.041 567.42 129.601 567.6 127.321 567.78C128.861 567.63 125.641 567.64 128.491 567.48L126.331 567.47C126.651 567.38 128.551 567.39 127.861 567.32C126.431 567.39 122.271 567.68 120.991 567.72C118.351 567.98 115.931 568.32 111.651 568.6C113.661 568.41 110.491 568.46 111.861 568.35L105.901 569.07C104.481 569.17 105.581 568.94 103.521 569.13C103.631 569.17 102.741 569.26 102.111 569.34C101.571 569.35 96.1908 569.79 95.5608 569.66C94.9308 569.63 97.8808 569.45 96.3008 569.5C93.6708 569.69 93.5608 569.76 90.9308 569.97L90.8808 569.95C89.1408 570.05 85.7708 570.43 87.6608 570.38C88.8708 570.29 87.1908 570.31 88.9808 570.22C87.7708 570.42 84.7108 570.69 82.0908 570.92C82.9808 570.81 82.8708 570.78 83.2308 570.69C79.7108 571.13 75.9708 571.51 72.0408 571.94C71.9908 572.03 73.4908 571.64 74.0808 571.64C69.0208 571.99 63.6808 572.84 59.4608 573.14C60.1508 573.05 59.8508 573.22 59.8008 573.2C57.3708 573.46 57.4708 573.33 55.8908 573.56C55.7308 573.5 53.9108 573.82 52.2908 574.04C51.4608 574.2 51.8608 574.06 53.2808 573.87C51.0208 574.19 41.9908 575.49 36.7708 576.24C36.8808 576.27 33.6008 576.93 32.4108 577.14L32.8608 576.95C31.7608 577.07 28.8708 577.67 28.6508 577.62C27.3908 577.93 29.8308 577.43 32.1708 576.99C34.5108 576.55 36.7408 576.16 35.0208 576.49C34.1108 576.54 30.2508 577.49 30.9608 577.21C28.5608 577.64 26.2708 578.21 23.9808 578.58C24.6408 578.46 25.8808 578.02 23.9608 578.43C20.5808 579.17 23.0108 578.69 20.2808 579.33L18.5808 579.78C18.4908 579.9 15.5908 580.53 16.8608 580.33C16.4108 580.31 12.0508 581.73 12.3508 581.47L12.7708 581.19C11.3508 581.64 10.4908 582.08 9.42077 582.53C9.23077 582.58 8.86077 582.7 8.92077 582.65C8.78077 582.93 5.59077 583.91 4.24077 585.01C3.58077 585.38 2.89077 585.88 2.29077 586.46C1.70077 587.05 1.29077 587.79 1.35077 588.47C1.39077 589.16 1.80077 589.8 2.23077 590.27C2.45077 590.51 2.68077 590.71 2.86077 590.9C3.07077 591.07 3.24077 591.22 3.37077 591.34C5.32077 592.6 7.38077 593.38 9.92077 594.35C9.40077 594.2 8.70077 593.93 8.54077 593.92C10.1208 594.59 10.5408 594.66 12.0408 595.11C11.6908 595.06 15.2908 596.24 17.1408 596.77C19.4808 597.29 18.7108 596.96 18.9608 596.95C21.0308 597.69 25.5808 598.29 28.2308 598.98C27.4108 598.87 24.7808 598.41 26.7208 598.86C28.8308 599.49 31.0908 599.53 34.5608 600.21L33.7308 599.89C35.2608 600.27 38.8808 600.62 38.4908 600.74C39.6708 600.86 42.6008 601.42 42.2408 601.18C47.9608 602.18 56.2408 602.94 59.7508 603.64C60.5808 603.71 62.6408 603.96 62.2308 603.82C60.8708 603.58 60.3008 603.68 59.8008 603.55C60.5408 603.63 60.7108 603.6 60.7908 603.58C62.5808 603.82 63.9908 603.98 62.2808 603.94C66.2608 604.48 66.4308 604.08 71.5108 604.65C71.2708 604.7 71.6608 604.77 73.1508 604.9L75.9908 605.04C79.2808 605.37 77.8408 605.37 77.9108 605.51C79.6708 605.65 81.8308 605.84 82.6308 605.81L84.7508 606.15C83.2008 605.91 86.2008 606.19 87.0408 606.23L86.2108 606.19C86.5308 606.27 88.5708 606.4 89.6008 606.46C89.3708 606.37 87.2908 606.17 86.1608 606.06C87.0708 606.08 88.4608 606.21 89.6608 606.23C89.2608 606.32 92.5208 606.54 93.9208 606.65C95.5308 606.79 95.7408 606.67 96.2108 606.71C96.2508 606.78 98.8308 606.91 97.5708 606.91C97.0208 606.89 96.3208 606.76 95.4108 606.75C96.4708 606.87 96.3408 606.98 98.5408 607.05C100.201 607.1 98.1308 606.78 101.271 607.07C100.441 607.04 100.291 607.08 99.6508 607.08L102.591 607.34L102.721 607.24C103.111 607.29 102.841 607.29 103.021 607.31C103.901 607.25 107.511 607.57 108.191 607.47C109.681 607.55 111.311 607.74 112.731 607.83L112.461 607.82C114.191 607.99 116.501 608.08 117.961 608.08L117.881 608.1C118.831 608.16 121.061 608.27 122.251 608.26C124.641 608.47 123.031 608.72 125.691 608.72C128.121 608.84 129.511 608.7 128.531 608.58C132.891 608.86 137.851 608.9 141.891 609.23C142.521 609.21 142.121 609.17 143.421 609.19C149.831 609.49 156.961 609.54 162.061 609.9C160.201 609.89 161.931 610.01 161.971 610.07C163.511 610.01 163.811 610.23 164.371 610.07C164.221 609.97 164.371 609.92 162.571 609.83C166.401 609.89 172.211 610.03 174.331 610.17C173.271 610.1 174.091 610.09 174.931 610.08C174.651 610.24 177.471 610.32 179.611 610.3L179.911 610.21L181.301 610.34C182.121 610.32 182.211 610.15 184.331 610.28C184.441 610.32 184.561 610.36 184.951 610.39C187.161 610.35 190.271 610.26 192.671 610.37L194.631 610.54C195.651 610.54 197.381 610.47 195.581 610.41C199.671 610.54 202.301 610.57 203.601 610.71C210.651 610.47 220.871 610.48 229.061 610.46L228.821 610.53C231.021 610.59 229.961 610.4 231.501 610.44C230.791 610.51 233.181 610.58 231.451 610.68C234.601 610.74 235.501 610.53 237.551 610.48C237.861 610.38 235.901 610.56 236.301 610.43C236.651 610.39 240.651 610.46 241.141 610.31C241.931 610.36 241.321 610.47 240.891 610.54L242.811 610.45C245.161 610.6 237.451 610.81 239.921 610.99L241.701 610.95C243.391 611.09 237.011 611.17 241.461 611.18C243.391 611.09 245.041 610.86 243.321 610.81C247.341 610.72 245.181 610.45 249.501 610.4C250.681 610.47 246.041 610.47 246.871 610.58C248.911 610.67 250.961 610.46 252.761 610.47C250.751 610.44 252.451 610.27 253.751 610.23C255.951 610.26 252.331 610.39 255.441 610.35C255.951 610.26 258.811 610.14 256.341 610.13C257.461 609.92 259.581 610.12 261.271 609.94C262.291 610.05 258.071 610.31 261.491 610.31C260.951 610.19 265.711 610.05 263.891 609.89C265.231 609.9 265.371 609.99 264.401 610.1C266.321 610.13 269.041 609.76 269.681 610L270.331 609.85C270.931 609.87 271.791 609.9 272.771 609.93C274.461 609.89 278.201 609.6 278.051 609.81C278.591 609.78 282.441 609.67 280.951 609.57C278.551 609.56 278.201 609.75 276.861 609.6C278.551 609.71 280.311 609.48 281.691 609.39L281.921 609.46C282.741 609.4 284.641 609.36 285.151 609.26C284.521 609.33 284.851 609.37 285.511 609.36L286.371 609.21C289.721 609.04 287.161 609.39 290.421 609.24L287.951 609.42C288.491 609.38 289.601 609.46 291.161 609.36C291.761 609.23 292.891 609.06 293.411 608.96C295.241 608.84 294.241 609.05 296.041 608.87L293.681 609.09C293.321 609.14 295.281 609.21 297.731 609.11C299.291 609.01 301.721 608.76 299.241 608.8C300.471 608.75 302.201 608.74 301.221 608.86C304.001 608.7 300.851 608.76 303.251 608.59C304.241 608.62 307.301 608.58 309.151 608.6L306.651 608.89L308.321 608.81C306.161 609.05 309.421 608.87 308.211 609.08C309.351 609.05 310.731 608.93 311.831 608.84C308.491 608.76 315.551 608.33 314.571 608.15C319.131 607.85 317.451 608.54 322.191 607.94C321.411 607.93 323.641 607.63 320.771 607.86C323.611 607.73 322.691 607.54 326.041 607.43C323.561 607.67 328.711 607.5 325.141 607.84C325.381 607.75 323.141 607.9 322.591 607.95C323.771 607.97 322.361 608.19 325.271 608.02C327.041 607.9 329.471 607.75 329.111 607.65C329.031 607.53 326.401 607.82 327.531 607.63C331.061 607.37 331.661 607.52 333.111 607.21C330.881 607.37 330.321 607.27 330.351 607.18L332.941 606.97L332.441 607.08C336.601 606.87 333.661 606.85 337.691 606.61L339.591 606.65C338.641 606.86 333.731 606.98 334.461 607.16C337.081 607 337.941 606.82 340.411 606.71C339.861 606.76 339.111 606.83 338.571 606.88C339.511 606.82 340.471 607.07 344.181 606.62C346.101 606.41 344.681 606.5 344.721 606.41C348.921 606.07 350.161 605.89 352.871 605.65C352.331 605.87 357.651 605.27 354.681 605.7C353.301 605.72 347.231 606.2 345.751 606.47C347.291 606.56 342.451 606.68 341.561 606.95C344.931 606.71 344.781 606.92 345.341 607.01C346.281 606.95 347.181 606.83 347.731 606.76C348.121 606.61 346.891 606.7 346.811 606.58C350.571 606.33 354.191 605.97 356.241 605.68C357.501 605.63 357.111 605.79 355.631 605.93C360.101 605.53 364.871 605.11 369.111 604.73C366.351 604.8 373.831 604.21 371.951 604.23C369.681 604.42 367.711 604.46 368.951 604.25C370.371 604.12 368.911 604.34 369.511 604.33C371.311 604.05 372.341 604.22 374.091 603.87C370.031 604.35 373.321 604.19 372.591 604.43C375.521 604.04 372.481 604.56 375.381 604.25C378.311 603.86 381.891 603.39 385.131 602.96C389.231 602.62 395.451 601.64 399.081 601.08C400.991 600.87 399.731 601.25 401.801 600.95C404.211 600.56 399.981 601.05 403.571 600.56L403.231 600.65C404.301 600.45 409.801 599.67 410.801 599.2L409.741 599.59C410.411 599.48 411.011 599.32 411.561 599.2C411.601 599.26 412.381 599.17 411.311 599.41C413.531 599.12 415.911 598.49 418.281 597.94L416.731 598.17C420.771 597.19 423.501 596.64 427.331 595.42L427.251 595.56C428.001 595.29 428.751 595.04 429.491 594.74C428.981 595.04 431.081 594.38 432.201 593.79C430.331 594.68 428.381 595.43 426.421 596.12C424.741 596.56 428.191 595.45 427.121 595.66C426.221 595.86 422.641 596.88 422.081 597.11C423.471 596.77 423.531 596.72 424.581 596.39C425.081 596.41 422.991 596.99 421.971 597.34C422.691 597.15 423.741 596.93 423.881 596.83C422.481 597.28 421.051 597.67 418.661 598.22C420.261 597.8 417.761 598.32 418.361 598.14C418.201 598.31 415.931 598.88 412.951 599.42C410.801 599.68 407.391 600.57 403.921 601.09C405.301 600.72 407.071 600.32 409.161 599.88C406.991 600.2 406.751 600.31 404.571 600.61C403.541 600.88 402.811 601.17 399.991 601.66L399.821 601.58C397.261 602.02 397.281 602.17 394.001 602.6C388.381 603.33 382.591 604.02 378.291 604.47L378.121 604.39C375.751 604.87 370.151 605.31 366.941 605.71C361.441 606.14 355.021 606.87 352.191 606.92C342.501 607.77 334.021 608.41 323.961 608.95L325.641 608.7C323.841 608.91 324.471 608.69 322.701 608.8C324.741 608.81 320.261 609.09 319.011 609.25C314.531 609.38 308.781 609.78 304.811 610.06L304.651 609.97C300.641 610.33 295.841 610.37 290.841 610.52C290.261 610.5 289.351 610.44 287.861 610.5C285.151 610.76 283.731 610.79 279.751 611.02C276.841 611.11 272.121 611.19 269.161 611.2C258.221 611.69 247.041 611.73 235.671 611.95L234.851 611.84C223.821 612.18 210.261 611.93 200.841 611.96L201.751 611.76C198.801 611.67 195.021 611.75 195.771 611.9C192.811 611.81 188.381 611.9 186.511 611.71C183.491 611.62 182.811 611.74 180.291 611.72C174.241 611.52 171.991 611.49 166.281 611.38L167.691 611.43C168.321 611.4 168.381 611.32 166.951 611.27C164.821 611.28 159.121 611 161.241 611.3C155.151 610.99 147.021 610.96 141.111 610.53C141.611 610.62 140.121 610.57 139.481 610.59C134.141 610.37 128.531 609.97 124.261 609.87C123.411 609.79 125.621 609.83 123.451 609.71C122.161 609.67 123.411 609.79 121.831 609.75C113.171 609.42 104.321 608.62 96.4608 608.09C82.4808 607.22 67.9208 605.86 54.5808 604.27L54.7408 604.24C50.2508 603.9 44.3008 602.72 40.7108 602.46C39.6608 602.26 36.6908 601.82 37.4908 601.85C33.9208 601.43 27.6108 600.1 22.5008 599.15C22.9708 599.25 23.2308 599.3 23.7808 599.39C18.6808 598.19 14.1208 597.28 8.89077 595.32C9.43077 595.49 10.4108 595.82 10.5808 595.82C8.57077 595.09 5.71077 594.2 4.76077 593.4C3.66077 592.8 3.91077 593.07 4.60077 593.44C3.25077 592.68 1.85077 591.85 0.800769 590.41C0.280769 589.71 -0.0492309 588.67 0.170769 587.7C0.380769 586.73 0.950769 586 1.54077 585.39C2.77077 584.21 4.20077 583.43 5.64077 582.73C7.09077 582.04 8.57077 581.45 10.0808 580.93C16.1108 578.87 22.3608 577.49 28.5408 576.29C37.4508 574.84 29.1508 576.56 36.1408 575.2C36.7208 575.15 36.5408 575.04 36.6508 575.08C39.3608 574.58 40.9208 574.69 42.8008 574.29C42.0008 574.26 44.0508 574.03 44.0908 573.93C49.5608 573.27 50.6808 573.28 54.9808 572.64L54.6608 572.75C59.6908 571.93 65.5808 571.42 69.8308 570.75C97.8008 567.99 124.701 566.42 152.071 565.43C179.131 564.56 205.641 564.12 233.131 564.42C239.571 564.67 240.051 564.67 247.131 564.67C246.851 564.7 246.401 564.7 246.871 564.74C247.231 564.58 251.851 564.8 252.531 564.65C262.691 564.85 272.061 565.01 282.511 565.34C280.861 565.31 280.021 565.41 281.991 565.46L284.051 565.42L284.381 565.48C285.721 565.5 287.191 565.47 285.811 565.37C312.081 566.11 337.881 567.82 363.521 570.1C369.601 570.72 378.271 571.54 384.871 572.31C394.641 573.6 403.901 575.02 413.131 576.88C417.741 577.82 422.351 578.86 426.961 580.26C429.261 580.97 431.571 581.75 433.821 582.82C434.951 583.35 436.061 583.95 437.101 584.77C437.621 585.17 438.111 585.65 438.541 586.22C438.951 586.81 439.271 587.54 439.301 588.35C439.301 588.35 439.251 588.14 439.151 587.68C439.081 587.46 438.951 587.2 438.791 586.88C438.591 586.6 438.371 586.25 438.041 585.94C436.691 584.65 434.231 583.33 430.331 581.94Z" fill="white"/>
<path d="M434.77 592.961C434.12 593.261 432.01 594.171 433.62 593.291C433.87 593.271 434.95 592.781 434.77 592.961Z" fill="white"/>
<path d="M374.912 604.01C374.832 604.04 374.042 604.07 373.852 604.07C374.602 603.99 375.292 603.84 375.892 603.82C375.142 603.91 375.262 603.94 374.912 604.01Z" fill="white"/>
<path d="M359.381 605.451C359.611 605.351 362.931 605.011 364.891 604.811L359.381 605.451Z" fill="white"/>
<path d="M344.861 606.31C343.601 606.34 343.951 606.28 345.631 606.16C345.761 606.19 345.201 606.25 344.861 606.31Z" fill="white"/>
<path d="M343.841 606.55C342.631 606.64 342.031 606.64 341.441 606.64C341.501 606.71 344.231 606.4 343.841 606.55Z" fill="white"/>
<path d="M312.321 608.241C311.561 608.281 309.921 608.431 309.211 608.381C310.011 608.401 312.901 608.111 312.321 608.241Z" fill="white"/>
<path d="M297.671 609C297.201 609.01 297.001 609.01 296.451 609.05C295.581 609.05 296.491 608.96 297.231 608.93L297.671 609Z" fill="white"/>
<path d="M31.1211 599.51L32.6911 599.75L32.4411 599.78L31.1211 599.51Z" fill="white"/>
<path d="M80.5898 571.19C82.1598 571.01 81.6998 571.17 81.9598 571.15C80.5398 571.28 82.4798 571.02 80.5898 571.19Z" fill="white"/>
<path d="M143.57 567.021L143.09 567.041L143.25 566.891L143.57 567.021Z" fill="white"/>
</svg>
