<svg width="438" height="590" viewBox="0 0 438 590" fill="none" xmlns="http://www.w3.org/2000/svg">
<path d="M436.393 572.034C436.013 555.184 436.393 532.984 436.153 514.524C436.133 512.364 436.363 515.084 436.313 510.204C436.013 492.314 436.193 464.124 436.423 442.334L436.483 443.654C436.523 439.504 436.333 434.434 436.353 430.034C436.393 429.994 436.413 431.444 436.463 430.424C436.343 429.314 436.413 422.474 436.323 420.604C436.373 418.864 436.463 419.034 436.513 416.794L436.383 414.274C436.063 407.274 436.403 397.274 436.243 387.724C436.273 388.184 436.303 389.124 436.333 388.364C436.143 373.034 436.173 353.854 436.103 336.704C436.153 337.384 436.233 338.024 436.293 337.014C436.153 336.174 436.113 330.874 436.083 326.284C436.233 324.214 435.953 318.404 436.033 313.014L436.063 313.474C435.913 309.494 436.153 307.564 435.973 304.334L436.083 301.804C435.873 300.054 436.193 296.044 436.083 292.754L436.043 292.864C435.993 289.764 436.093 288.144 436.063 285.264L436.083 284.994C436.033 278.254 436.143 274.334 435.983 274.494C436.113 272.134 436.043 281.024 436.223 277.314C436.183 266.224 436.133 254.964 436.093 243.684C436.093 238.044 436.083 232.404 436.083 226.774C436.083 223.964 436.083 221.144 436.083 218.344C436.013 215.544 435.943 212.744 435.873 209.954C435.863 208.684 435.883 207.644 435.853 206.854C435.813 206.064 435.793 205.514 435.803 205.234C435.713 204.124 435.533 202.034 435.363 199.964C435.183 197.894 435.043 195.854 434.833 194.854C434.933 195.594 434.733 193.414 434.593 192.244C434.363 190.224 434.183 189.134 433.993 187.984C433.783 186.844 433.663 185.644 433.273 183.444C433.643 185.184 433.763 185.774 433.743 185.174C433.343 183.314 432.933 181.124 432.513 178.854C432.093 176.584 431.703 174.224 431.123 172.044C431.303 172.714 431.563 173.774 431.573 173.594C430.953 171.214 430.453 169.024 429.983 166.914C429.743 165.854 429.523 164.814 429.273 163.784C428.973 162.764 428.673 161.744 428.373 160.714L428.903 162.244C427.113 155.534 428.153 160.324 426.583 154.534C427.003 155.914 426.903 155.414 427.003 155.654C425.263 150.334 422.323 141.774 420.113 136.644C420.243 136.954 420.243 136.864 420.243 136.864C419.173 134.014 417.863 131.194 416.553 128.294C415.893 126.844 415.223 125.384 414.553 123.894C413.803 122.444 413.033 120.984 412.263 119.504C411.183 117.324 412.833 120.104 409.853 114.404C409.803 114.694 404.343 104.974 406.053 108.364C404.753 105.944 402.823 102.964 401.043 100.164C400.143 98.774 399.313 97.3941 398.503 96.244C397.673 95.094 396.953 94.104 396.423 93.354C397.913 95.3241 395.053 91.0441 397.713 94.7541L395.803 91.874C396.163 92.244 397.843 94.784 397.283 93.844C396.613 92.914 395.293 91.0941 394.003 89.2941C393.683 88.8441 393.353 88.4041 393.043 87.9641C392.713 87.5441 392.393 87.1441 392.103 86.774C391.523 86.024 391.023 85.3941 390.713 84.994C389.353 83.374 388.043 81.814 386.523 79.994C384.933 78.244 383.113 76.254 380.863 73.664C383.033 76.054 379.813 72.134 381.273 73.774L379.633 72.024L377.913 70.344L374.483 67.0041C372.893 65.3641 374.263 66.524 371.913 64.204C372.003 64.354 370.943 63.384 370.183 62.724C369.563 62.134 363.363 56.2241 362.593 55.4841C361.883 54.7741 365.433 57.894 363.563 56.184C360.353 53.444 360.213 53.3241 357.003 50.584L356.963 50.514C354.793 48.764 350.463 45.494 352.783 47.444C354.303 48.6441 352.273 46.904 354.493 48.7141C353.693 48.154 352.323 47.114 350.733 45.904C349.933 45.3041 349.103 44.6241 348.233 43.9841C347.353 43.354 346.453 42.724 345.593 42.114C346.783 42.924 346.673 42.784 347.173 43.0741C344.833 41.4741 342.423 39.824 339.953 38.134C337.413 36.544 334.803 34.904 332.123 33.224C331.993 33.244 334.193 34.364 334.953 34.904C328.213 30.374 320.453 26.5441 314.513 23.3641C315.503 23.8541 314.993 23.7441 314.933 23.6941C313.203 22.7941 312.383 22.3441 311.693 22.0241C311.013 21.6841 310.483 21.4241 309.313 20.9241C309.113 20.7541 306.393 19.6241 303.993 18.5741C302.743 18.0641 303.383 18.2641 305.463 19.1941C303.823 18.3941 299.543 16.8041 294.733 14.9341C293.543 14.4441 292.283 14.0141 291.013 13.6041C289.753 13.1741 288.483 12.7541 287.253 12.3341C286.013 11.9141 284.813 11.4941 283.663 11.1041C282.513 10.7041 281.403 10.4241 280.393 10.1141C280.533 10.2041 275.363 8.87405 273.503 8.33405L274.263 8.43405C273.843 8.30405 273.243 8.10405 272.573 7.93405C271.893 7.77405 271.143 7.60405 270.443 7.43405C269.033 7.10405 267.813 6.82405 267.663 6.73405C265.623 6.34405 269.523 7.18405 273.223 8.04405C276.893 9.05405 280.383 10.0041 277.673 9.29405C276.993 9.05405 275.103 8.56405 273.533 8.15405C271.963 7.74405 270.693 7.54405 271.303 7.58405C269.403 7.16405 267.533 6.75405 265.673 6.34405C263.823 5.93405 262.003 5.49405 260.173 5.15405C261.233 5.36405 263.313 5.55405 260.213 5.01405C254.763 4.06405 258.653 4.79405 254.233 4.04405L251.453 3.60405C251.253 3.69405 246.543 2.96405 248.573 3.34405C247.913 3.16405 240.593 2.38405 241.173 2.27405L241.953 2.22405C240.763 2.05405 239.783 2.03405 238.873 2.01405C237.953 1.98405 237.103 1.96405 236.163 1.93405C235.853 1.89405 235.223 1.82405 235.353 1.80405C235.153 1.90405 233.733 1.78405 232.003 1.64405C231.143 1.58405 230.203 1.47405 229.293 1.44405C228.393 1.42405 227.523 1.42405 226.813 1.44405C224.303 1.34405 221.123 1.25405 218.263 1.18405C215.413 1.24405 212.883 1.29405 211.703 1.25405C210.743 1.29405 209.803 1.33405 208.863 1.37405C207.923 1.40405 206.983 1.45405 206.033 1.55405C204.133 1.72405 202.153 1.88405 199.963 2.02405C200.833 1.93405 202.033 1.84405 202.273 1.77405C199.513 1.91405 198.843 2.02405 196.323 2.25405C196.883 2.14405 190.833 2.82405 187.773 3.12405C183.973 3.66405 185.303 3.65405 184.933 3.77405C181.453 4.20405 174.283 5.69405 170.003 6.62405C171.283 6.29405 175.433 5.26405 172.313 5.92405C170.583 6.21405 168.863 6.65405 166.893 7.16405C165.913 7.43405 164.853 7.67405 163.713 7.99405C162.583 8.33405 161.343 8.68405 159.983 9.05405L161.363 8.85405C158.913 9.43405 153.393 11.2241 153.893 10.8941C152.123 11.5641 147.563 12.9741 148.213 12.9341C143.753 14.2441 138.563 16.4641 133.733 18.3541C131.363 19.4141 129.093 20.4241 127.093 21.3241C126.083 21.7541 125.143 22.1641 124.293 22.5341C123.453 22.9341 122.703 23.284 122.053 23.5741C120.883 24.2041 117.913 25.694 118.563 25.4641C120.573 24.5441 121.273 23.9941 122.043 23.6841C120.983 24.2341 120.773 24.3941 120.673 24.4741C118.083 25.7541 116.063 26.7741 118.423 25.4041C116.983 26.114 115.903 26.6741 114.973 27.1641C114.063 27.6941 113.323 28.1741 112.533 28.6741C110.953 29.6841 109.173 30.784 105.633 32.814C105.903 32.5541 105.373 32.864 103.363 34.164L99.6129 36.7141C97.3829 38.1241 96.7329 38.504 96.6229 38.524C96.5029 38.544 96.9129 38.174 96.8229 38.164C94.5329 39.814 91.7129 41.814 90.7229 42.634C89.7729 43.264 88.7829 43.854 87.8529 44.524C89.8829 43.074 86.0729 46.024 85.0429 46.864L86.0729 46.014C85.6329 46.294 83.0829 48.334 81.7929 49.364C82.1429 49.184 84.7829 47.154 86.2329 46.044C85.1129 46.964 83.3829 48.3741 81.9029 49.584C82.1229 49.344 81.1829 50.024 80.0129 50.974C78.8729 51.9641 77.4529 53.184 76.6029 53.914C74.6429 55.584 74.4829 55.894 73.9129 56.384C73.8629 56.384 73.0729 57.064 72.4729 57.584C71.8929 58.1241 71.5029 58.4841 72.2029 57.764C72.8329 57.154 73.7529 56.494 74.8129 55.494C74.1529 56.034 73.8429 56.244 73.3729 56.6241C72.9029 56.994 72.2629 57.5241 71.0229 58.784C69.1429 60.654 71.6829 58.494 67.9829 61.904C68.9229 60.9641 69.0629 60.764 69.7729 60.034L66.3229 63.244L66.2529 63.4641C65.7729 63.884 66.0829 63.5741 65.8629 63.764C65.6329 64.034 65.1829 64.454 64.6629 65.014C64.1429 65.564 63.5329 66.2141 62.9329 66.854C61.7329 68.134 60.5529 69.384 60.2329 69.814C59.4029 70.664 58.5329 71.564 57.6729 72.454C56.8529 73.374 56.0329 74.2941 55.2829 75.134L55.5629 74.7941C54.6329 75.8241 53.5729 77.034 52.5529 78.2241C51.5329 79.4041 50.5729 80.564 49.9029 81.524L49.9629 81.414C49.0229 82.594 46.8229 85.424 45.7029 86.954C44.4829 88.424 44.2129 88.634 43.9329 88.8941C43.6529 89.1541 43.3729 89.4641 42.2029 91.234C39.9529 94.404 38.8429 96.314 39.8029 95.084C39.2929 95.794 38.7629 96.5041 38.2629 97.244C37.7829 98.0041 37.2929 98.7641 36.7929 99.534C35.8129 101.074 34.8229 102.634 33.8429 104.174C32.8329 105.694 31.9629 107.294 31.0729 108.814C30.1929 110.334 29.3229 111.804 28.4729 113.184C28.0229 114.084 28.3329 113.524 27.3629 115.354C22.4629 124.364 18.0429 134.864 14.9929 142.424C16.0429 139.644 14.9629 142.194 14.8829 142.234C14.4529 143.384 14.2029 144.074 14.0129 144.584C13.8229 145.094 13.7029 145.414 13.6429 145.864C13.8329 145.664 13.7529 145.904 14.7729 143.204C13.7929 146.094 12.5629 149.744 11.4429 153.064C10.4429 156.424 9.53288 159.464 9.04288 161.084C9.55288 159.464 9.22288 160.734 8.88288 162.024C8.87288 161.794 8.54288 162.754 8.12288 164.194C7.76288 165.644 7.33288 167.584 6.97288 169.244L6.96288 169.734L6.36288 171.874C6.23288 172.514 6.20288 172.884 6.09288 173.494C5.97288 174.104 5.80288 174.964 5.48288 176.624C5.41288 176.784 5.34288 176.974 5.20288 177.584C4.93288 179.324 4.60288 181.424 4.26288 183.564C3.86288 185.684 3.70288 187.884 3.39288 189.774L2.85288 192.864C2.66288 194.484 2.40288 197.224 2.80288 194.374C2.54288 195.984 2.43288 197.474 2.32288 198.814C2.20288 200.154 2.10288 201.354 2.00288 202.414C1.81288 204.534 1.66288 206.094 1.52288 207.124C1.50288 209.934 1.48288 213.064 1.46288 216.384C1.40288 219.694 1.50288 223.224 1.50288 226.794C1.51288 233.934 1.52288 241.314 1.52288 247.874L1.45288 247.484C1.38288 251.004 1.58288 249.314 1.53288 251.774C1.46288 250.634 1.38288 254.454 1.29288 251.694C1.21288 256.734 1.42288 258.184 1.45288 261.464C1.55288 261.964 1.39288 258.824 1.51288 259.464C1.54288 260.024 1.44288 266.434 1.58288 267.224C1.52288 268.484 1.42288 267.504 1.36288 266.824L1.43288 269.904C1.26288 273.674 1.13288 261.324 0.922877 265.274L0.942877 268.114C0.792877 270.824 0.772877 260.604 0.722877 267.724C0.792877 270.814 1.00288 273.464 1.07288 270.704C1.11288 277.134 1.42288 273.684 1.40288 280.604C1.31288 282.494 1.38288 275.064 1.26288 276.394C1.14288 279.654 1.33288 282.934 1.28288 285.834C1.33288 282.614 1.48288 285.334 1.51288 287.424C1.44288 290.944 1.37288 285.144 1.36288 290.124C1.44288 290.944 1.51288 295.534 1.57288 291.564C1.76288 293.364 1.52288 296.754 1.66288 299.464C1.53288 301.094 1.35288 294.334 1.28288 299.804C1.41288 298.934 1.46288 306.564 1.65288 303.664C1.61288 305.814 1.51288 306.034 1.43288 304.474C1.35288 307.544 1.67288 311.914 1.41288 312.924L1.56288 313.994C1.52288 314.954 1.47288 316.324 1.41288 317.894C1.41288 320.604 1.59288 326.604 1.39288 326.354C1.41288 327.224 1.40288 333.394 1.54288 331.014C1.62288 327.174 1.44288 326.604 1.63288 324.474C1.48288 327.184 1.65288 330.004 1.70288 332.224L1.62288 332.584C1.65288 333.904 1.63288 336.944 1.72288 337.764C1.68288 336.754 1.62288 337.274 1.60288 338.334L1.72288 339.714C1.78288 345.084 1.51288 340.974 1.55288 346.194L1.46288 342.224C1.48288 343.094 1.37288 344.874 1.41288 347.364C1.50288 348.344 1.65288 350.154 1.73288 350.994C1.78288 353.934 1.61288 352.314 1.72288 355.204L1.59288 351.414C1.55288 350.844 1.41288 353.974 1.42288 357.904C1.46288 360.414 1.61288 364.314 1.67288 360.344C1.67288 362.324 1.61288 365.084 1.53288 363.514C1.57288 367.984 1.64288 362.934 1.71288 366.784C1.66288 368.364 1.52288 373.264 1.43288 376.234L1.25288 372.214V374.894C1.11288 371.424 1.14288 376.644 0.992877 374.694C0.972877 376.514 1.02288 378.734 1.06288 380.494C1.30288 375.154 1.39288 386.484 1.61288 384.934C1.67288 392.254 1.07288 389.504 1.42288 397.144C1.48288 395.894 1.65288 399.494 1.58288 394.884C1.56288 399.434 1.80288 397.974 1.71288 403.344C1.62288 399.364 1.49288 407.614 1.35288 401.864C1.42288 402.254 1.41288 398.664 1.38288 397.774C1.30288 399.654 1.16288 397.384 1.16288 402.044C1.18288 404.884 1.19288 408.784 1.30288 408.224C1.43288 408.104 1.29288 403.874 1.41288 405.704C1.45288 411.374 1.26288 412.314 1.49288 414.664C1.47288 411.084 1.60288 410.194 1.69288 410.254L1.74288 414.414L1.66288 413.604C1.60288 420.274 1.81288 415.574 1.79288 422.044L1.62288 425.074C1.48288 423.534 1.68288 415.674 1.45288 416.824C1.44288 421.024 1.56288 422.424 1.50288 426.384C1.49288 425.504 1.47288 424.294 1.45288 423.424C1.44288 424.934 1.13288 426.434 1.31288 432.424C1.38288 435.514 1.39288 433.244 1.48288 433.314C1.55288 440.054 1.57288 442.074 1.61288 446.424C1.44288 445.534 1.59288 454.104 1.42288 449.304C1.52288 447.094 1.51288 437.334 1.35288 434.944C1.15288 437.404 1.38288 429.644 1.17288 428.194C1.17288 433.604 0.972877 433.344 0.842877 434.214C0.832877 435.714 0.892877 437.174 0.912877 438.064C1.03288 438.694 1.03288 436.734 1.16288 436.624C1.13288 442.664 1.20288 448.474 1.31288 451.804C1.25288 453.824 1.13288 453.184 1.12288 450.794C1.16288 457.974 1.14288 465.654 1.10288 472.474C1.30288 468.064 1.15288 480.084 1.31288 477.074C1.35288 473.414 1.50288 470.274 1.59288 472.294C1.58288 474.584 1.50288 472.224 1.46288 473.174C1.57288 476.084 1.29288 477.694 1.46288 480.554C1.40288 473.994 1.22288 479.274 1.06288 478.074C1.15288 482.804 0.952877 477.874 0.952877 482.544C1.04288 487.264 1.11288 493.054 1.14288 498.294C0.992877 504.874 1.14288 514.964 1.14288 520.844C1.06288 523.914 0.882877 521.834 0.852877 525.174C0.852877 529.084 1.04288 522.264 0.962877 528.064L0.922877 527.504C0.962877 529.254 0.802877 538.134 1.05288 539.854L0.862877 538.064C0.842877 539.144 0.892877 540.154 0.912877 541.044C0.852877 541.084 0.792877 542.344 0.752877 540.584C0.622877 544.164 0.772877 548.104 0.782877 551.984L0.892877 549.484C0.982877 556.154 0.872877 560.604 0.912877 567.044L0.802877 566.854L0.872877 570.684C0.762877 569.754 0.692877 573.264 0.782877 575.294L0.512877 565.334C0.582877 562.564 0.642877 568.354 0.752877 566.624C0.852877 565.154 0.822877 559.184 0.712877 558.224C0.702877 560.504 0.722877 560.624 0.762877 562.384C0.612877 563.134 0.612877 559.674 0.512877 557.964C0.522877 559.154 0.472877 560.864 0.522877 561.114C0.442877 558.774 0.432877 556.394 0.432877 552.484C0.492877 555.134 0.532877 551.044 0.572877 552.044C0.432877 551.734 0.392877 547.994 0.432877 543.164C0.592877 539.714 0.332877 534.084 0.372877 528.484C0.512877 530.754 0.622877 533.654 0.672877 537.064C0.702877 533.544 0.702877 533.154 0.742877 529.624C0.642877 527.924 0.482877 526.704 0.422877 522.114L0.522877 521.864C0.472877 517.704 0.322877 517.704 0.352877 512.404C0.372877 503.334 0.402877 494.004 0.412877 487.084L0.512877 486.824C0.292877 482.974 0.432877 473.994 0.332877 468.814C0.432877 459.994 0.232877 449.654 0.412877 445.134C0.332877 429.574 0.262877 415.964 0.292877 399.844L0.442877 402.554C0.332877 399.664 0.522877 400.674 0.502877 397.844C0.382877 401.094 0.352877 393.914 0.262877 391.914C0.372877 384.734 0.252877 375.514 0.152877 369.154L0.252877 368.904C0.0628766 362.474 0.232877 354.794 0.262877 346.774C0.302877 345.854 0.402877 344.404 0.392877 342.014C0.232877 337.664 0.242877 335.394 0.142877 329.014C0.142877 324.354 0.182877 316.804 0.242877 312.074C0.00287664 294.574 0.152877 276.684 0.0128766 258.484L0.132877 257.164C0.00287664 248.344 -0.00712336 238.504 0.00287664 228.984C0.00287664 226.604 0.0128766 224.244 0.0128766 221.924C0.0128766 220.764 0.0128766 219.614 0.0128766 218.484C0.0428766 217.344 0.0728766 216.214 0.0928766 215.104C0.142877 212.884 0.192877 210.724 0.242877 208.644C0.252877 208.124 0.262877 207.614 0.272877 207.104C0.312877 206.594 0.342877 206.094 0.382877 205.604C0.452877 204.614 0.522877 203.644 0.582877 202.704L0.672877 204.174C0.882877 201.814 1.07288 199.124 1.18288 197.174C1.28288 195.214 1.44288 194.014 1.27288 194.604C1.60288 192.254 1.95288 189.304 2.28288 186.584C2.42288 185.214 2.67288 183.924 2.89288 182.774C3.10288 181.624 3.30288 180.634 3.48288 179.904C3.93288 177.514 4.16288 176.054 4.38288 174.684C4.63288 173.324 4.90288 172.074 5.33288 170.104C5.89288 167.734 6.37288 165.744 6.79288 163.944C7.30288 162.164 7.75288 160.574 8.20288 159.004C8.64288 157.434 9.08288 155.874 9.56288 154.164C10.0529 152.454 10.7229 150.624 11.4329 148.444L10.6929 150.594C10.4129 151.564 10.4629 151.674 11.2129 149.514C11.7429 147.894 12.7229 144.904 13.5029 142.754C14.3329 140.624 14.8329 139.264 14.0929 140.814C17.5229 131.644 23.0329 119.784 27.8629 111.564C27.4029 112.234 28.5829 110.144 29.0529 109.244C33.2629 101.744 38.5129 94.384 42.4429 88.764C43.2629 87.664 41.2729 90.604 43.3029 87.764C44.5529 86.114 43.2629 87.674 44.8029 85.6441C53.1529 74.494 63.1529 64.2241 72.5429 55.764C80.8329 48.1641 90.0429 41.224 99.5629 34.994C100.763 34.224 101.953 33.4641 103.153 32.694L104.943 31.5441C105.543 31.174 106.163 30.8341 106.773 30.4841C109.223 29.0741 111.663 27.6741 114.083 26.2841C119.053 23.7341 123.913 21.1341 128.873 19.0041L128.673 19.1541C130.303 18.3841 132.073 17.5241 133.933 16.7541C135.813 16.0241 137.743 15.2841 139.633 14.5541C143.383 13.0241 147.093 11.9141 149.773 10.8341C150.583 10.5741 152.133 10.0641 153.333 9.67405C154.543 9.33405 155.403 9.11405 154.803 9.32405C156.173 8.90405 157.833 8.42405 159.673 7.90405C161.513 7.41405 163.513 6.76405 165.643 6.33405C169.883 5.41405 174.403 4.25405 178.503 3.54405C177.753 3.67405 177.323 3.76405 176.463 3.93405C178.533 3.57405 180.533 3.23405 182.523 2.89405C183.513 2.72405 184.493 2.52405 185.483 2.38405C186.473 2.25405 187.463 2.12405 188.453 1.99405C190.443 1.73405 192.443 1.48405 194.493 1.21405C195.003 1.15405 195.523 1.08405 196.043 1.02405C196.563 0.984051 197.093 0.944051 197.623 0.904051C198.683 0.834051 199.773 0.754051 200.873 0.684051C199.983 0.774051 198.353 0.914051 198.093 0.984051C201.503 0.834051 206.153 0.124051 208.043 0.294051C210.003 0.244051 209.433 0.144051 208.223 0.174051C227.583 -0.535949 248.403 0.864051 268.063 5.52405C271.583 6.37405 273.393 6.81405 274.273 7.14405C275.163 7.44405 275.173 7.48405 275.083 7.49405C274.913 7.50405 274.383 7.37405 279.893 8.85405C280.773 9.15405 280.563 8.95405 280.703 9.04405C281.763 9.33405 282.713 9.59405 283.563 9.87405C284.403 10.1941 285.173 10.4741 285.893 10.7441C287.343 11.2941 288.633 11.7841 290.103 12.2141C288.953 11.6741 292.063 12.7941 292.173 12.7341C293.223 13.0841 294.143 13.4541 294.983 13.8041C295.823 14.1541 296.583 14.4641 297.283 14.7541C298.683 15.3341 299.863 15.8141 300.973 16.2741C303.233 17.1441 305.203 18.0841 308.403 19.4741L307.893 19.3241C309.773 20.1341 311.743 20.9341 313.673 21.8541C315.593 22.8141 317.523 23.7841 319.423 24.7441C320.373 25.2241 321.313 25.6941 322.243 26.1641C323.163 26.6441 324.033 27.1641 324.913 27.6341C326.653 28.604 328.303 29.5041 329.833 30.3141C339.513 36.104 348.693 42.504 357.303 49.504C365.833 56.594 373.813 64.224 381.203 72.344C395.853 88.704 408.113 107.054 417.273 127.084L418.953 130.804C419.503 132.044 420.093 133.274 420.563 134.544C421.553 137.074 422.553 139.594 423.543 142.114C424.513 144.644 425.303 147.234 426.193 149.784C426.623 151.064 427.073 152.344 427.473 153.634L428.583 157.534L429.693 161.434C430.073 162.734 430.443 164.034 430.723 165.354L432.543 173.244C433.123 175.884 433.523 178.554 434.023 181.204L434.733 185.194L435.243 189.214L435.753 193.234C435.913 194.574 436.133 195.914 436.203 197.264C436.413 199.964 436.613 202.664 436.823 205.364C436.873 206.044 436.943 206.714 436.963 207.394L437.013 209.424L437.113 213.494C437.183 216.214 437.263 218.934 437.233 221.634C437.213 232.474 437.193 243.374 437.173 254.374C436.973 264.684 436.983 265.454 437.063 276.774C437.033 276.314 437.023 275.604 436.993 276.364C437.153 276.934 437.013 284.334 437.163 285.414C437.173 301.684 437.173 316.664 437.183 333.394C437.163 330.744 437.033 329.424 437.043 332.564L437.143 335.854L437.093 336.384C437.113 338.534 437.193 340.884 437.253 338.664C437.393 380.704 437.063 422.054 437.103 463.234C437.033 473.014 437.093 486.924 437.133 497.554C436.913 529.044 436.733 557.424 436.893 589.414C436.913 589.414 436.483 585.234 436.393 572.034Z" fill="white"/>
</svg>
