<svg width="438" height="48" viewBox="0 0 438 48" fill="none" xmlns="http://www.w3.org/2000/svg">
<path d="M430.333 17.9343C425.313 16.3043 419.373 14.8843 413.273 13.6443C407.173 12.4143 400.903 11.3943 395.173 10.7043C393.833 10.5343 395.553 10.5443 392.523 10.1843C381.413 8.94431 363.913 6.9943 350.353 5.7343L351.183 5.74431C348.603 5.49431 345.423 5.4543 342.693 5.2343C342.673 5.1943 343.573 5.24433 342.943 5.14433C342.243 5.20433 337.983 4.8543 336.813 4.8643C335.733 4.7443 335.843 4.66433 334.443 4.51433L332.863 4.54429C328.483 4.58429 322.263 3.8743 316.303 3.7343C316.593 3.7143 317.183 3.7243 316.713 3.6743C307.143 3.3643 295.173 2.8243 284.463 2.5543C284.893 2.5243 285.293 2.44431 284.663 2.37431C284.133 2.50431 280.823 2.42431 277.953 2.37431C276.663 2.19431 273.033 2.36433 269.663 2.20433L269.953 2.1743C267.463 2.2643 266.263 2.00432 264.243 2.13432L262.673 1.9843C261.573 2.1643 259.073 1.80431 257.023 1.87431L257.093 1.91429C255.153 1.93429 254.143 1.80431 252.353 1.81431L252.183 1.78428C247.973 1.77428 245.523 1.63429 245.623 1.79429C244.153 1.64429 249.703 1.78432 247.393 1.57432C233.543 1.55432 219.263 1.48432 205.313 1.57432C203.733 1.52432 202.723 1.50433 202.363 1.45433C200.973 1.50433 197.113 1.52432 195.853 1.63432C196.323 1.62432 194.953 1.56431 194.213 1.56431C191.673 1.53431 191.443 1.77431 188.663 1.74431C189.773 1.68431 190.143 1.62432 189.773 1.57432C187.393 1.73432 184.223 1.76429 181.413 1.85429C181.853 1.82429 182.523 1.79431 182.423 1.74431C179.353 1.94431 176.823 1.82429 174.133 1.97429L175.143 1.85429C170.803 1.84429 173.873 2.07428 170.123 2.09428C171.023 2.04428 170.703 2.01429 170.863 1.97429C167.373 2.22429 161.723 2.3243 158.233 2.4843C158.443 2.4643 158.383 2.44432 158.383 2.44432C154.583 2.58432 150.613 2.65433 146.443 2.89433C144.923 2.91433 146.933 2.64433 142.913 2.83433C143.063 3.01433 136.093 3.1843 138.473 3.3043C135.043 3.4143 129.603 3.59434 127.323 3.77434C128.863 3.62434 125.643 3.63429 128.493 3.47429L126.333 3.46428C126.653 3.37428 128.553 3.38431 127.863 3.31431C126.433 3.38431 122.273 3.67428 120.993 3.71428C118.353 3.97428 115.933 4.31428 111.653 4.59428C113.663 4.40428 110.493 4.45428 111.863 4.34428L105.903 5.06431C104.483 5.16431 105.583 4.93431 103.523 5.12431C103.633 5.16431 102.743 5.25433 102.113 5.33433C101.573 5.34433 96.1927 5.78428 95.5627 5.65428C94.9327 5.62428 97.8827 5.44431 96.3027 5.49431C93.6727 5.68431 93.5627 5.75428 90.9327 5.96428L90.8827 5.94432C89.1427 6.04432 85.7727 6.42431 87.6627 6.37431C88.8727 6.28431 87.1927 6.30428 88.9827 6.21428C87.7727 6.41428 84.7127 6.68429 82.0927 6.91429C82.9827 6.80429 82.8727 6.77431 83.2327 6.68431C79.7127 7.12431 75.9727 7.50431 72.0427 7.93431C71.9927 8.02431 73.4927 7.63432 74.0827 7.63432C69.0227 7.98432 63.6827 8.83432 59.4627 9.13432C60.1527 9.04432 59.8527 9.21432 59.8027 9.19432C57.3727 9.45432 57.4727 9.3243 55.8927 9.5543C55.7327 9.4943 53.9127 9.81428 52.2927 10.0343C51.4627 10.1943 51.8627 10.0543 53.2827 9.8643C51.0227 10.1843 41.9927 11.4843 36.7727 12.2343C36.8827 12.2643 33.6027 12.9243 32.4127 13.1343L32.8627 12.9443C31.7627 13.0643 28.8727 13.6643 28.6527 13.6143C27.3927 13.9243 29.8327 13.4243 32.1727 12.9843C34.5127 12.5443 36.7427 12.1543 35.0227 12.4843C34.1127 12.5343 30.2527 13.4843 30.9627 13.2043C28.5627 13.6343 26.2727 14.2043 23.9827 14.5743C24.6427 14.4543 25.8827 14.0143 23.9627 14.4243C20.5827 15.1643 23.0127 14.6843 20.2827 15.3243L18.5827 15.7743C18.4927 15.8943 15.5927 16.5243 16.8627 16.3243C16.4127 16.3043 12.0527 17.7243 12.3527 17.4643L12.7727 17.1843C11.3527 17.6343 10.4927 18.0743 9.42272 18.5243C9.23272 18.5743 8.86272 18.6943 8.92272 18.6443C8.78272 18.9243 5.59272 19.9043 4.24272 21.0043C3.58272 21.3743 2.89272 21.8743 2.29272 22.4543C1.70272 23.0443 1.29272 23.7843 1.35272 24.4643C1.39272 25.1543 1.80272 25.7943 2.23272 26.2643C2.45272 26.5043 2.68272 26.7043 2.86272 26.8943C3.07272 27.0643 3.24272 27.2143 3.37272 27.3343C5.32272 28.5943 7.38272 29.3743 9.92272 30.3443C9.40272 30.1943 8.70272 29.9243 8.54272 29.9143C10.1227 30.5843 10.5427 30.6543 12.0427 31.1043C11.6927 31.0543 15.2927 32.2343 17.1427 32.7643C19.4827 33.2843 18.7127 32.9543 18.9627 32.9443C21.0327 33.6843 25.5827 34.2843 28.2327 34.9743C27.4127 34.8643 24.7827 34.4043 26.7227 34.8543C28.8327 35.4843 31.0927 35.5243 34.5627 36.2043L33.7327 35.8843C35.2627 36.2643 38.8827 36.6143 38.4927 36.7343C39.6727 36.8543 42.6027 37.4143 42.2427 37.1743C47.9627 38.1743 56.2427 38.9343 59.7527 39.6343C60.5827 39.7043 62.6427 39.9543 62.2327 39.8143C60.8727 39.5743 60.3027 39.6743 59.8027 39.5443C60.5427 39.6243 60.7127 39.5943 60.7927 39.5743C62.5827 39.8143 63.9927 39.9743 62.2827 39.9343C66.2627 40.4743 66.4327 40.0743 71.5127 40.6443C71.2727 40.6943 71.6627 40.7643 73.1527 40.8943L75.9927 41.0343C79.2827 41.3643 77.8427 41.3643 77.9127 41.5043C79.6727 41.6443 81.8327 41.8343 82.6327 41.8043L84.7527 42.1443C83.2027 41.9043 86.2027 42.1843 87.0427 42.2243L86.2127 42.1843C86.5327 42.2643 88.5727 42.3943 89.6027 42.4543C89.3727 42.3643 87.2927 42.1643 86.1627 42.0543C87.0727 42.0743 88.4627 42.2043 89.6627 42.2243C89.2627 42.3143 92.5227 42.5343 93.9227 42.6443C95.5327 42.7843 95.7427 42.6643 96.2127 42.7043C96.2527 42.7743 98.8327 42.9043 97.5727 42.9043C97.0227 42.8843 96.3227 42.7543 95.4127 42.7443C96.4727 42.8643 96.3427 42.9743 98.5427 43.0443C100.203 43.0943 98.1327 42.7743 101.273 43.0643C100.443 43.0343 100.293 43.0743 99.6527 43.0743L102.593 43.3343L102.723 43.2343C103.113 43.2843 102.843 43.2843 103.023 43.3043C103.903 43.2443 107.513 43.5643 108.193 43.4643C109.683 43.5443 111.313 43.7343 112.733 43.8243L112.463 43.8143C114.193 43.9843 116.503 44.0743 117.963 44.0743L117.883 44.0943C118.833 44.1543 121.063 44.2643 122.253 44.2543C124.643 44.4643 123.033 44.7143 125.693 44.7143C128.123 44.8343 129.513 44.6943 128.533 44.5743C132.893 44.8543 137.853 44.8943 141.893 45.2243C142.523 45.2043 142.123 45.1643 143.423 45.1843C149.833 45.4843 156.963 45.5343 162.063 45.8943C160.203 45.8843 161.933 46.0043 161.973 46.0643C163.513 46.0043 163.813 46.2243 164.373 46.0643C164.223 45.9643 164.373 45.9143 162.573 45.8243C166.403 45.8843 172.213 46.0243 174.333 46.1643C173.273 46.0943 174.093 46.0843 174.933 46.0743C174.653 46.2343 177.473 46.3143 179.613 46.2943L179.913 46.2043L181.303 46.3343C182.123 46.3143 182.213 46.1443 184.333 46.2743C184.443 46.3143 184.563 46.3543 184.953 46.3843C187.163 46.3443 190.273 46.2543 192.673 46.3643L194.633 46.5343C195.653 46.5343 197.383 46.4643 195.583 46.4043C199.673 46.5343 202.303 46.5643 203.603 46.7043C210.653 46.4643 220.873 46.4743 229.063 46.4543L228.823 46.5243C231.023 46.5843 229.963 46.3943 231.503 46.4343C230.793 46.5043 233.183 46.5743 231.453 46.6743C234.603 46.7343 235.503 46.5243 237.553 46.4743C237.863 46.3743 235.903 46.5543 236.303 46.4243C236.653 46.3843 240.653 46.4543 241.143 46.3043C241.933 46.3543 241.323 46.4643 240.893 46.5343L242.813 46.4443C245.163 46.5943 237.453 46.8043 239.923 46.9843L241.703 46.9443C243.393 47.0843 237.013 47.1643 241.463 47.1743C243.393 47.0843 245.043 46.8543 243.323 46.8043C247.343 46.7143 245.183 46.4443 249.503 46.3943C250.683 46.4643 246.043 46.4643 246.873 46.5743C248.913 46.6643 250.963 46.4543 252.763 46.4643C250.753 46.4343 252.453 46.2643 253.753 46.2243C255.953 46.2543 252.333 46.3843 255.443 46.3443C255.953 46.2543 258.813 46.1343 256.343 46.1243C257.463 45.9143 259.583 46.1143 261.273 45.9343C262.293 46.0443 258.073 46.3043 261.493 46.3043C260.953 46.1843 265.713 46.0443 263.893 45.8843C265.233 45.8943 265.373 45.9843 264.403 46.0943C266.323 46.1243 269.043 45.7543 269.683 45.9943L270.333 45.8443C270.933 45.8643 271.793 45.8943 272.773 45.9243C274.463 45.8843 278.203 45.5943 278.053 45.8043C278.593 45.7743 282.443 45.6643 280.953 45.5643C278.553 45.5543 278.203 45.7443 276.863 45.5943C278.553 45.7043 280.313 45.4743 281.693 45.3843L281.923 45.4543C282.743 45.3943 284.643 45.3543 285.153 45.2543C284.523 45.3243 284.853 45.3643 285.513 45.3543L286.373 45.2043C289.723 45.0343 287.163 45.3843 290.423 45.2343L287.953 45.4143C288.493 45.3743 289.603 45.4543 291.163 45.3543C291.763 45.2243 292.893 45.0543 293.413 44.9543C295.243 44.8343 294.243 45.0443 296.043 44.8643L293.683 45.0843C293.323 45.1343 295.283 45.2043 297.733 45.1043C299.293 45.0043 301.723 44.7543 299.243 44.7943C300.473 44.7443 302.203 44.7343 301.223 44.8543C304.003 44.6943 300.853 44.7543 303.253 44.5843C304.243 44.6143 307.303 44.5743 309.153 44.5943L306.653 44.8843L308.323 44.8043C306.163 45.0443 309.423 44.8643 308.213 45.0743C309.353 45.0443 310.733 44.9243 311.833 44.8343C308.493 44.7543 315.553 44.3243 314.573 44.1443C319.133 43.8443 317.453 44.5343 322.193 43.9343C321.413 43.9243 323.643 43.6243 320.773 43.8543C323.613 43.7243 322.693 43.5343 326.043 43.4243C323.563 43.6643 328.713 43.4943 325.143 43.8343C325.383 43.7443 323.143 43.8943 322.593 43.9443C323.773 43.9643 322.363 44.1843 325.273 44.0143C327.043 43.8943 329.473 43.7443 329.113 43.6443C329.033 43.5243 326.403 43.8143 327.533 43.6243C331.063 43.3643 331.663 43.5143 333.113 43.2043C330.883 43.3643 330.323 43.2643 330.353 43.1743L332.943 42.9643L332.443 43.0743C336.603 42.8643 333.663 42.8443 337.693 42.6043L339.593 42.6443C338.643 42.8543 333.733 42.9743 334.463 43.1543C337.083 42.9943 337.943 42.8143 340.413 42.7043C339.863 42.7543 339.113 42.8243 338.573 42.8743C339.513 42.8143 340.473 43.0643 344.183 42.6143C346.103 42.4043 344.683 42.4943 344.723 42.4043C348.923 42.0643 350.163 41.8843 352.873 41.6443C352.333 41.8643 357.653 41.2643 354.683 41.6943C353.303 41.7143 347.233 42.1943 345.753 42.4643C347.293 42.5543 342.453 42.6743 341.563 42.9443C344.933 42.7043 344.783 42.9143 345.343 43.0043C346.283 42.9443 347.183 42.8243 347.733 42.7543C348.123 42.6043 346.893 42.6943 346.813 42.5743C350.573 42.3243 354.193 41.9643 356.243 41.6743C357.503 41.6243 357.113 41.7843 355.633 41.9243C360.103 41.5243 364.873 41.1043 369.113 40.7243C366.353 40.7943 373.833 40.2043 371.953 40.2243C369.683 40.4143 367.713 40.4543 368.953 40.2443C370.373 40.1143 368.913 40.3343 369.513 40.3243C371.313 40.0443 372.343 40.2143 374.093 39.8643C370.033 40.3443 373.323 40.1843 372.593 40.4243C375.523 40.0343 372.483 40.5543 375.383 40.2443C378.313 39.8543 381.893 39.3843 385.133 38.9543C389.233 38.6143 395.453 37.6343 399.083 37.0743C400.993 36.8643 399.733 37.2443 401.803 36.9443C404.213 36.5543 399.983 37.0443 403.573 36.5543L403.233 36.6443C404.303 36.4443 409.803 35.6643 410.803 35.1943L409.743 35.5843C410.413 35.4743 411.013 35.3143 411.563 35.1943C411.603 35.2543 412.383 35.1643 411.313 35.4043C413.533 35.1143 415.913 34.4843 418.283 33.9343L416.733 34.1643C420.773 33.1843 423.503 32.6343 427.333 31.4143L427.253 31.5543C428.003 31.2843 428.753 31.0343 429.493 30.7343C428.983 31.0343 431.083 30.3743 432.203 29.7843C430.333 30.6743 428.383 31.4243 426.423 32.1143C424.743 32.5543 428.193 31.4443 427.123 31.6543C426.223 31.8543 422.643 32.8743 422.083 33.1043C423.473 32.7643 423.533 32.7143 424.583 32.3843C425.083 32.4043 422.993 32.9843 421.973 33.3343C422.693 33.1443 423.743 32.9243 423.883 32.8243C422.483 33.2743 421.053 33.6643 418.663 34.2143C420.263 33.7943 417.763 34.3143 418.363 34.1343C418.203 34.3043 415.933 34.8743 412.953 35.4143C410.803 35.6743 407.393 36.5643 403.923 37.0843C405.303 36.7143 407.073 36.3143 409.163 35.8743C406.993 36.1943 406.753 36.3043 404.573 36.6043C403.543 36.8743 402.813 37.1643 399.993 37.6543L399.823 37.5743C397.263 38.0143 397.283 38.1643 394.003 38.5943C388.383 39.3243 382.593 40.0143 378.293 40.4643L378.123 40.3843C375.753 40.8643 370.153 41.3043 366.943 41.7043C361.443 42.1343 355.023 42.8643 352.193 42.9143C342.503 43.7643 334.023 44.4043 323.963 44.9443L325.643 44.6943C323.843 44.9043 324.473 44.6843 322.703 44.7943C324.743 44.8043 320.263 45.0843 319.013 45.2443C314.533 45.3743 308.783 45.7743 304.813 46.0543L304.653 45.9643C300.643 46.3243 295.843 46.3643 290.843 46.5143C290.263 46.4943 289.353 46.4343 287.863 46.4943C285.153 46.7543 283.733 46.7843 279.753 47.0143C276.843 47.1043 272.123 47.1843 269.163 47.1943C258.223 47.6843 247.043 47.7243 235.673 47.9443L234.853 47.8343C223.823 48.1743 210.263 47.9243 200.843 47.9543L201.753 47.7543C198.803 47.6643 195.023 47.7443 195.773 47.8943C192.813 47.8043 188.383 47.8943 186.513 47.7043C183.493 47.6143 182.813 47.7343 180.293 47.7143C174.243 47.5143 171.993 47.4843 166.283 47.3743L167.693 47.4243C168.323 47.3943 168.383 47.3143 166.953 47.2643C164.823 47.2743 159.123 46.9943 161.243 47.2943C155.153 46.9843 147.023 46.9543 141.113 46.5243C141.613 46.6143 140.123 46.5643 139.483 46.5843C134.143 46.3643 128.533 45.9643 124.263 45.8643C123.413 45.7843 125.623 45.8243 123.453 45.7043C122.163 45.6643 123.413 45.7843 121.833 45.7443C113.173 45.4143 104.323 44.6143 96.4627 44.0843C82.4827 43.2143 67.9227 41.8543 54.5827 40.2643L54.7427 40.2343C50.2527 39.8943 44.3027 38.7143 40.7127 38.4543C39.6627 38.2543 36.6927 37.8143 37.4927 37.8443C33.9227 37.4243 27.6127 36.0943 22.5027 35.1443C22.9727 35.2443 23.2327 35.2943 23.7827 35.3843C18.6827 34.1843 14.1227 33.2743 8.89272 31.3143C9.43272 31.4843 10.4127 31.8143 10.5827 31.8143C8.57272 31.0843 5.71272 30.1943 4.76272 29.3943C3.66272 28.7943 3.91272 29.0643 4.60272 29.4343C3.25272 28.6743 1.85272 27.8443 0.802722 26.4043C0.282722 25.7043 -0.0472778 24.6643 0.172722 23.6943C0.382722 22.7243 0.952722 21.9943 1.54272 21.3843C2.77272 20.2043 4.20272 19.4243 5.64272 18.7243C7.09272 18.0343 8.57272 17.4443 10.0827 16.9243C16.1127 14.8643 22.3627 13.4843 28.5427 12.2843C37.4527 10.8343 29.1527 12.5543 36.1427 11.1943C36.7227 11.1443 36.5427 11.0343 36.6527 11.0743C39.3627 10.5743 40.9227 10.6843 42.8027 10.2843C42.0027 10.2543 44.0527 10.0243 44.0927 9.9243C49.5627 9.2643 50.6827 9.27432 54.9827 8.63432L54.6627 8.74431C59.6927 7.92431 65.5827 7.41431 69.8327 6.74431C97.8027 3.98431 124.703 2.4143 152.073 1.4243C179.133 0.554299 205.643 0.114289 233.133 0.414289C239.573 0.664289 240.053 0.664289 247.133 0.664289C246.853 0.694289 246.403 0.694297 246.873 0.734297C247.233 0.574297 251.853 0.794331 252.533 0.644331C262.693 0.844331 272.063 1.00433 282.513 1.33433C280.863 1.30433 280.023 1.40433 281.993 1.45433L284.053 1.41429L284.383 1.47429C285.723 1.49429 287.193 1.4643 285.813 1.3643C312.083 2.1043 337.883 3.81428 363.523 6.09428C369.603 6.71428 378.273 7.5343 384.873 8.3043C394.643 9.5943 403.903 11.0143 413.133 12.8743C417.743 13.8143 422.353 14.8543 426.963 16.2543C429.263 16.9643 431.573 17.7443 433.823 18.8143C434.953 19.3443 436.063 19.9443 437.103 20.7643C437.623 21.1643 438.113 21.6443 438.543 22.2143C438.953 22.8043 439.273 23.5343 439.303 24.3443C439.303 24.3443 439.253 24.1343 439.153 23.6743C439.083 23.4543 438.953 23.1943 438.793 22.8743C438.593 22.5943 438.373 22.2443 438.043 21.9343C436.693 20.6443 434.233 19.3243 430.333 17.9343Z" fill="white"/>
</svg>
